<svg width="16" height="18" viewBox="0 0 16 18" fill="none" xmlns="http://www.w3.org/2000/svg">
<path d="M15.6558 4.39509C15.5056 4.47287 15.3306 4.48782 15.1694 4.43668C15.0082 4.38553 14.8738 4.27245 14.7959 4.12231C14.1869 2.91913 13.265 1.9022 12.1272 1.17838C12.0563 1.13365 11.9949 1.0754 11.9465 1.00694C11.8981 0.938487 11.8636 0.861168 11.8451 0.779402C11.8266 0.697635 11.8244 0.613023 11.8386 0.530395C11.8527 0.447767 11.8831 0.368742 11.9278 0.297832C11.9725 0.226921 12.0308 0.165515 12.0992 0.117117C12.1677 0.0687204 12.245 0.0342806 12.3268 0.0157647C12.4085 -0.00275121 12.4931 -0.00498076 12.5758 0.00920337C12.6584 0.0233875 12.7374 0.0537075 12.8083 0.0984323C14.1344 0.947503 15.2112 2.13355 15.9285 3.53528C16.0063 3.68548 16.0213 3.86042 15.9701 4.02165C15.919 4.18287 15.8059 4.31719 15.6558 4.39509ZM0.63781 4.46687C0.754708 4.46682 0.869347 4.43466 0.969212 4.3739C1.06908 4.31313 1.15033 4.2261 1.2041 4.12231C1.81315 2.91913 2.73503 1.9022 3.87286 1.17838C3.94377 1.13365 4.00518 1.0754 4.05358 1.00694C4.10197 0.938487 4.13641 0.861168 4.15493 0.779402C4.17344 0.697635 4.17567 0.613023 4.16149 0.530395C4.14731 0.447767 4.11699 0.368742 4.07226 0.297832C4.02754 0.226921 3.96928 0.165515 3.90083 0.117117C3.83237 0.0687204 3.75505 0.0342806 3.67329 0.0157647C3.59152 -0.00275121 3.50691 -0.00498076 3.42428 0.00920337C3.34165 0.0233875 3.26263 0.0537075 3.19172 0.0984323C1.86563 0.947503 0.788859 2.13355 0.0715166 3.53528C0.0211386 3.63252 -0.00336262 3.74109 0.000370963 3.85054C0.00410455 3.96 0.0359472 4.06665 0.0928345 4.16023C0.149722 4.25382 0.229739 4.33118 0.325185 4.38489C0.420631 4.43859 0.528293 4.46682 0.63781 4.46687ZM15.4811 12.7571C15.5941 12.9509 15.6541 13.1712 15.6548 13.3956C15.6556 13.62 15.5972 13.8406 15.4855 14.0352C15.3738 14.2299 15.2127 14.3916 15.0186 14.5041C14.8244 14.6166 14.604 14.6759 14.3796 14.6761H11.1254C10.979 15.3973 10.5877 16.0457 10.0179 16.5115C9.44806 16.9772 8.73476 17.2316 7.99883 17.2316C7.2629 17.2316 6.5496 16.9772 5.97979 16.5115C5.40998 16.0457 5.0187 15.3973 4.87225 14.6761H1.61806C1.39379 14.6757 1.1736 14.6161 0.979665 14.5035C0.785732 14.3909 0.624905 14.2291 0.513384 14.0345C0.401864 13.84 0.343589 13.6194 0.344429 13.3952C0.345269 13.1709 0.405195 12.9508 0.518171 12.7571C1.23681 11.5168 1.61806 9.75334 1.61806 7.65726C1.61806 5.96497 2.29031 4.34199 3.48694 3.14537C4.68357 1.94874 6.30654 1.27648 7.99883 1.27648C9.69112 1.27648 11.3141 1.94874 12.5107 3.14537C13.7073 4.34199 14.3796 5.96497 14.3796 7.65726C14.3796 9.75254 14.7609 11.516 15.4811 12.7571ZM9.80299 14.6761H6.19467C6.32686 15.0489 6.5713 15.3716 6.89437 15.5998C7.21744 15.8281 7.60328 15.9506 7.99883 15.9506C8.39438 15.9506 8.78022 15.8281 9.10329 15.5998C9.42636 15.3716 9.6708 15.0489 9.80299 14.6761Z" fill="#E6E6E6"/>
</svg>
