<svg width="16" height="9" viewBox="0 0 16 9" fill="none" xmlns="http://www.w3.org/2000/svg">
<path d="M15.7869 1.24216L8.51452 8.51452C8.44698 8.58214 8.36677 8.63578 8.27849 8.67237C8.1902 8.70897 8.09557 8.72781 8 8.72781C7.90443 8.72781 7.8098 8.70897 7.72151 8.67237C7.63323 8.63578 7.55302 8.58214 7.48548 8.51452L0.213121 1.24216C0.0766618 1.1057 -1.43783e-09 0.920622 0 0.72764C1.43783e-09 0.534658 0.0766618 0.34958 0.213121 0.213121C0.34958 0.0766615 0.534658 1.43783e-09 0.72764 0C0.920623 -1.43783e-09 1.1057 0.0766615 1.24216 0.213121L8 6.97187L14.7578 0.213121C14.8254 0.145553 14.9056 0.0919553 14.9939 0.055388C15.0822 0.0188206 15.1768 0 15.2724 0C15.3679 0 15.4625 0.0188206 15.5508 0.055388C15.6391 0.0919553 15.7193 0.145553 15.7869 0.213121C15.8544 0.280688 15.908 0.360903 15.9446 0.449184C15.9812 0.537466 16 0.632085 16 0.72764C16 0.823195 15.9812 0.917815 15.9446 1.0061C15.908 1.09438 15.8544 1.17459 15.7869 1.24216Z" fill="#E6E6E6"/>
</svg>
