<svg width="16" height="16" viewBox="0 0 16 16" fill="none" xmlns="http://www.w3.org/2000/svg">
<path d="M7.27269 9.45454V13.8179C7.2728 13.9618 7.23021 14.1025 7.15031 14.2222C7.07041 14.3419 6.95679 14.4352 6.82384 14.4903C6.69088 14.5454 6.54457 14.5598 6.40343 14.5317C6.26228 14.5036 6.13265 14.4342 6.03094 14.3324L4.36377 12.6643L1.24215 15.7869C1.10569 15.9233 0.920613 16 0.727633 16C0.534652 16 0.349576 15.9233 0.213119 15.7869C0.076661 15.6504 3.8041e-09 15.4653 0 15.2724C-3.8041e-09 15.0794 0.076661 14.8943 0.213119 14.7579L3.33566 11.6362L1.66758 9.96906C1.56576 9.86735 1.4964 9.73772 1.46829 9.59657C1.44019 9.45543 1.45459 9.30912 1.50968 9.17617C1.56477 9.04321 1.65807 8.92959 1.77776 8.84969C1.89746 8.76979 2.03817 8.7272 2.18209 8.72731H6.54546C6.73833 8.72731 6.92331 8.80393 7.05969 8.94031C7.19607 9.07669 7.27269 9.26167 7.27269 9.45454ZM15.7867 0.213286C15.7192 0.145671 15.639 0.0920318 15.5507 0.0554346C15.4624 0.0188373 15.3678 0 15.2722 0C15.1766 0 15.082 0.0188373 14.9937 0.0554346C14.9054 0.0920318 14.8252 0.145671 14.7577 0.213286L11.6361 3.33582L9.96889 1.66774C9.86718 1.56592 9.73755 1.49657 9.59641 1.46846C9.45526 1.44035 9.30895 1.45476 9.176 1.50985C9.04304 1.56493 8.92942 1.65823 8.84952 1.77793C8.76962 1.89763 8.72703 2.03834 8.72714 2.18226V6.54563C8.72714 6.7385 8.80376 6.92347 8.94014 7.05985C9.07653 7.19624 9.2615 7.27286 9.45437 7.27286H13.8177C13.9617 7.27297 14.1024 7.23038 14.2221 7.15048C14.3418 7.07058 14.4351 6.95696 14.4902 6.824C14.5452 6.69105 14.5596 6.54474 14.5315 6.40359C14.5034 6.26245 14.4341 6.13282 14.3323 6.03111L12.6642 4.36394L15.7867 1.24231C15.8543 1.17477 15.908 1.09457 15.9446 1.00629C15.9812 0.918001 16 0.82337 16 0.7278C16 0.632231 15.9812 0.5376 15.9446 0.449315C15.908 0.361031 15.8543 0.280826 15.7867 0.213286Z" fill="#E6E6E6"/>
</svg>
