<svg width="9" height="16" viewBox="0 0 9 16" fill="none" xmlns="http://www.w3.org/2000/svg">
<path d="M8.51682 14.7615C8.58441 14.8291 8.63802 14.9094 8.6746 14.9977C8.71117 15.086 8.73 15.1806 8.73 15.2762C8.73 15.3718 8.71117 15.4664 8.6746 15.5547C8.63802 15.643 8.58441 15.7233 8.51682 15.7908C8.44924 15.8584 8.36901 15.912 8.2807 15.9486C8.1924 15.9852 8.09775 16.004 8.00218 16.004C7.9066 16.004 7.81195 15.9852 7.72365 15.9486C7.63535 15.912 7.55511 15.8584 7.48753 15.7908L0.213342 8.51666C0.145709 8.4491 0.0920559 8.36887 0.0554491 8.28057C0.0188422 8.19226 0 8.0976 0 8.00201C0 7.90641 0.0188422 7.81176 0.0554491 7.72345C0.0920559 7.63514 0.145709 7.55492 0.213342 7.48736L7.48753 0.213174C7.62402 0.0766811 7.80914 -3.80509e-09 8.00218 0C8.19521 3.8051e-09 8.38033 0.0766811 8.51682 0.213174C8.65332 0.349668 8.73 0.534792 8.73 0.727823C8.73 0.920854 8.65332 1.10598 8.51682 1.24247L1.75638 8.00201L8.51682 14.7615Z" fill="#E6E6E6"/>
</svg>
