<svg width="16" height="14" viewBox="0 0 16 14" fill="none" xmlns="http://www.w3.org/2000/svg">
<path d="M16 6.72055C16 6.97514 15.8989 7.21931 15.7188 7.39934C15.5388 7.57936 15.2946 7.6805 15.04 7.6805H3.2806L7.40201 11.8011C7.58235 11.9814 7.68366 12.226 7.68366 12.4811C7.68366 12.7361 7.58235 12.9807 7.40201 13.161C7.22167 13.3414 6.97708 13.4427 6.72204 13.4427C6.467 13.4427 6.22241 13.3414 6.04207 13.161L0.282344 7.40132C0.19285 7.31213 0.121842 7.20616 0.0733913 7.08948C0.0249404 6.97279 0 6.84769 0 6.72135C0 6.595 0.0249404 6.4699 0.0733913 6.35322C0.121842 6.23654 0.19285 6.13056 0.282344 6.04138L6.04207 0.281652C6.13137 0.192357 6.23737 0.121525 6.35404 0.0731988C6.47071 0.0248728 6.59576 0 6.72204 0C6.84832 0 6.97337 0.0248728 7.09003 0.0731988C7.2067 0.121525 7.31271 0.192357 7.40201 0.281652C7.4913 0.370946 7.56213 0.476955 7.61046 0.593624C7.65879 0.710293 7.68366 0.835338 7.68366 0.96162C7.68366 1.0879 7.65879 1.21295 7.61046 1.32962C7.56213 1.44628 7.4913 1.55229 7.40201 1.64159L3.2806 5.76059H15.04C15.2946 5.76059 15.5388 5.86173 15.7188 6.04176C15.8989 6.22178 16 6.46595 16 6.72055Z" fill="#E6E6E6"/>
</svg>
