<svg width="9" height="16" viewBox="0 0 9 16" fill="none" xmlns="http://www.w3.org/2000/svg">
<path d="M8.51452 8.51452L1.24216 15.7869C1.17459 15.8544 1.09438 15.908 1.0061 15.9446C0.917815 15.9812 0.823195 16 0.72764 16C0.632085 16 0.537466 15.9812 0.449184 15.9446C0.360903 15.908 0.280688 15.8544 0.213121 15.7869C0.145553 15.7193 0.0919553 15.6391 0.055388 15.5508C0.0188206 15.4625 0 15.3679 0 15.2724C0 15.1768 0.0188206 15.0822 0.055388 14.9939C0.0919553 14.9056 0.145553 14.8254 0.213121 14.7578L6.97187 8L0.213121 1.24216C0.0766615 1.1057 -1.43783e-09 0.920622 0 0.72764C1.43783e-09 0.534658 0.0766615 0.34958 0.213121 0.213121C0.34958 0.0766618 0.534658 1.43783e-09 0.72764 0C0.920622 -1.43783e-09 1.1057 0.0766618 1.24216 0.213121L8.51452 7.48548C8.58214 7.55302 8.63578 7.63323 8.67237 7.72151C8.70897 7.8098 8.72781 7.90443 8.72781 8C8.72781 8.09557 8.70897 8.1902 8.67237 8.27849C8.63578 8.36677 8.58214 8.44698 8.51452 8.51452Z" fill="#E6E6E6"/>
</svg>
