<svg width="16" height="9" viewBox="0 0 16 9" fill="none" xmlns="http://www.w3.org/2000/svg">
<path d="M15.7867 8.5146C15.7192 8.58221 15.639 8.63585 15.5507 8.67245C15.4624 8.70905 15.3678 8.72788 15.2722 8.72788C15.1766 8.72788 15.082 8.70905 14.9937 8.67245C14.9054 8.63585 14.8252 8.58221 14.7577 8.5146L7.99992 1.75592L1.24215 8.5146C1.10569 8.65106 0.920613 8.72772 0.727633 8.72772C0.534652 8.72772 0.349576 8.65106 0.213119 8.5146C0.076661 8.37814 3.8041e-09 8.19306 0 8.00008C-3.8041e-09 7.8071 0.076661 7.62203 0.213119 7.48557L7.4854 0.213286C7.55294 0.145671 7.63315 0.0920318 7.72143 0.0554346C7.80972 0.0188373 7.90435 0 7.99992 0C8.09548 0 8.19012 0.0188373 8.2784 0.0554346C8.36668 0.0920318 8.44689 0.145671 8.51443 0.213286L15.7867 7.48557C15.8543 7.55311 15.908 7.63331 15.9446 7.7216C15.9812 7.80988 16 7.90451 16 8.00008C16 8.09565 15.9812 8.19028 15.9446 8.27857C15.908 8.36685 15.8543 8.44706 15.7867 8.5146Z" fill="#E6E6E6"/>
</svg>
