<svg width="13" height="16" viewBox="0 0 13 16" fill="none" xmlns="http://www.w3.org/2000/svg">
<path d="M4.40918 1.9297C4.40918 1.54804 4.52236 1.17495 4.7344 0.857617C4.94644 0.540279 5.24781 0.292945 5.60042 0.14689C5.95303 0.000836106 6.34102 -0.0373784 6.71535 0.0370795C7.08967 0.111537 7.43351 0.295323 7.70339 0.565197C7.97326 0.83507 8.15705 1.17891 8.23151 1.55323C8.30596 1.92756 8.26775 2.31556 8.12169 2.66816C7.97564 3.02077 7.72831 3.32215 7.41097 3.53419C7.09363 3.74623 6.72054 3.8594 6.33888 3.8594C5.8271 3.8594 5.33627 3.65609 4.97438 3.2942C4.61249 2.93232 4.40918 2.44149 4.40918 1.9297ZM12.3637 9.15091L9.24515 5.61543C9.06406 5.41009 8.84136 5.24564 8.59183 5.13299C8.3423 5.02035 8.07165 4.96209 7.79787 4.96209H4.87989C4.60611 4.96209 4.33547 5.02035 4.08594 5.13299C3.83641 5.24564 3.6137 5.41009 3.43262 5.61543L0.314086 9.15091C0.111589 9.3581 -0.00123348 9.63667 1.01735e-05 9.92638C0.00125383 10.2161 0.116463 10.4937 0.320732 10.6991C0.525001 10.9046 0.801917 11.0214 1.09162 11.0243C1.38131 11.0272 1.66052 10.916 1.86887 10.7147L3.65109 9.28323L2.29341 14.4438C2.17529 14.709 2.1665 15.01 2.26894 15.2816C2.37139 15.5532 2.5768 15.7735 2.84062 15.8946C3.10444 16.0157 3.40537 16.0279 3.67813 15.9286C3.95088 15.8292 4.17345 15.6263 4.29754 15.3639L6.33888 11.8539L8.37747 15.3687C8.50156 15.6311 8.72413 15.834 8.99689 15.9334C9.26964 16.0328 9.57057 16.0206 9.83439 15.8994C10.0982 15.7783 10.3036 15.5581 10.4061 15.2865C10.5085 15.0148 10.4997 14.7138 10.3816 14.4486L9.02668 9.28323L10.8117 10.7147C11.02 10.916 11.2992 11.0272 11.5889 11.0243C11.8786 11.0214 12.1555 10.9046 12.3598 10.6991C12.5641 10.4937 12.6793 10.2161 12.6805 9.92638C12.6818 9.63667 12.5689 9.3581 12.3664 9.15091H12.3637Z" fill="#E6E6E6"/>
</svg>
