<svg width="14" height="16" viewBox="0 0 14 16" fill="none" xmlns="http://www.w3.org/2000/svg">
<path d="M8.80946 2.20168C8.80946 1.76623 8.68033 1.34056 8.43841 0.978494C8.19649 0.616429 7.85263 0.334234 7.45033 0.167594C7.04802 0.000953947 6.60534 -0.0426467 6.17825 0.0423057C5.75117 0.127258 5.35887 0.336948 5.05095 0.644859C4.74304 0.95277 4.53335 1.34507 4.4484 1.77216C4.36345 2.19924 4.40705 2.64193 4.57369 3.04423C4.74033 3.44654 5.02253 3.79039 5.38459 4.03231C5.74665 4.27424 6.17233 4.40337 6.60778 4.40337C7.1917 4.40337 7.75171 4.1714 8.1646 3.75851C8.5775 3.34561 8.80946 2.78561 8.80946 2.20168ZM6.60778 3.30252C6.39005 3.30252 6.17722 3.23796 5.99618 3.117C5.81515 2.99604 5.67405 2.82411 5.59073 2.62296C5.50741 2.4218 5.48561 2.20046 5.52809 1.98692C5.57057 1.77338 5.67541 1.57723 5.82937 1.42327C5.98332 1.26932 6.17947 1.16447 6.39302 1.12199C6.60656 1.07952 6.8279 1.10132 7.02905 1.18464C7.23021 1.26796 7.40213 1.40906 7.52309 1.59009C7.64406 1.77112 7.70862 1.98396 7.70862 2.20168C7.70862 2.49364 7.59264 2.77365 7.38619 2.9801C7.17974 3.18654 6.89974 3.30252 6.60778 3.30252ZM12.8234 8.67256L9.71559 5.1485C9.50896 4.91427 9.25485 4.7267 8.97015 4.59823C8.68545 4.46975 8.37667 4.40333 8.06433 4.40337H5.15123C4.83888 4.40333 4.53011 4.46975 4.24541 4.59823C3.96071 4.7267 3.7066 4.91427 3.49997 5.1485L0.392155 8.67256C0.139772 8.93069 -0.00106644 9.27766 6.08098e-06 9.63866C0.0010786 9.99967 0.143976 10.3458 0.397889 10.6024C0.651802 10.859 0.996392 11.0056 1.35737 11.0105C1.71834 11.0154 2.06678 10.8783 2.32757 10.6286L3.44905 9.72868L2.31106 14.055C2.16033 14.3876 2.14789 14.7664 2.27647 15.1081C2.40505 15.4498 2.66411 15.7265 2.99668 15.8772C3.32924 16.028 3.70806 16.0404 4.04979 15.9118C4.39153 15.7832 4.66819 15.5242 4.81891 15.1916L6.60778 12.1044L8.39665 15.1916C8.5541 15.513 8.83059 15.7604 9.16744 15.8813C9.50429 16.0023 9.87501 15.9872 10.2009 15.8393C10.5268 15.6914 10.7823 15.4224 10.9132 15.0893C11.044 14.7561 11.0399 14.3851 10.9017 14.055L9.76651 9.72868L10.888 10.6286C11.1488 10.8783 11.4972 11.0154 11.8582 11.0105C12.2192 11.0056 12.5638 10.859 12.8177 10.6024C13.0716 10.3458 13.2145 9.99967 13.2156 9.63866C13.2166 9.27766 13.0758 8.93069 12.8234 8.67256ZM12.0315 9.82638C12.0059 9.85197 11.9756 9.87227 11.9422 9.88612C11.9088 9.89997 11.8729 9.9071 11.8368 9.9071C11.8006 9.9071 11.7648 9.89997 11.7314 9.88612C11.698 9.87227 11.6676 9.85197 11.6421 9.82638C11.6276 9.81262 11.6132 9.79886 11.5973 9.78648L9.15347 7.82698C9.06328 7.75498 8.95274 7.71316 8.83748 7.70742C8.72222 7.70167 8.60807 7.73231 8.51116 7.79498C8.41426 7.85766 8.33951 7.9492 8.29748 8.05668C8.25544 8.16416 8.24825 8.28213 8.27693 8.39391L9.85113 14.3797C9.85923 14.4117 9.87029 14.4428 9.88416 14.4726C9.90004 14.5055 9.90924 14.5411 9.91122 14.5775C9.9132 14.614 9.90792 14.6504 9.89568 14.6848C9.88345 14.7191 9.86451 14.7507 9.83997 14.7777C9.81542 14.8047 9.78576 14.8265 9.7527 14.8419C9.71964 14.8573 9.68385 14.866 9.64741 14.8675C9.61097 14.8689 9.5746 14.8631 9.54041 14.8504C9.50623 14.8377 9.47492 14.8183 9.4483 14.7933C9.42168 14.7684 9.40028 14.7384 9.38534 14.7052C9.37863 14.6903 9.37105 14.6758 9.36263 14.6618L7.08389 10.7332C7.03551 10.6498 6.96606 10.5806 6.8825 10.5324C6.79894 10.4843 6.70421 10.459 6.60778 10.459C6.51135 10.459 6.41662 10.4843 6.33306 10.5324C6.2495 10.5806 6.18005 10.6498 6.13167 10.7332L3.85568 14.6584C3.84726 14.6724 3.83968 14.6868 3.83297 14.7017C3.81769 14.7345 3.79609 14.764 3.76941 14.7884C3.74272 14.8129 3.71149 14.8318 3.67748 14.8442C3.6263 14.8629 3.5707 14.8661 3.51774 14.8532C3.46477 14.8403 3.41682 14.812 3.37997 14.7718C3.34312 14.7316 3.31903 14.6814 3.31075 14.6276C3.30247 14.5737 3.31038 14.5186 3.33347 14.4692C3.34734 14.4393 3.35839 14.4082 3.36649 14.3763L4.93863 8.39391C4.9673 8.28213 4.96011 8.16416 4.91808 8.05668C4.87605 7.9492 4.8013 7.85766 4.70439 7.79498C4.60749 7.73231 4.49334 7.70167 4.37808 7.70742C4.26282 7.71316 4.15228 7.75498 4.06208 7.82698L1.61822 9.78648C1.60239 9.79886 1.58794 9.81262 1.5735 9.82638C1.54822 9.85304 1.51786 9.87436 1.48421 9.8891C1.45056 9.90383 1.4143 9.91168 1.37757 9.91218C1.34084 9.91269 1.30438 9.90583 1.27034 9.89202C1.23631 9.87821 1.20538 9.85773 1.17938 9.83177C1.15338 9.80582 1.13284 9.77493 1.11897 9.74092C1.1051 9.7069 1.09818 9.67045 1.09862 9.63372C1.09906 9.59699 1.10684 9.56072 1.12152 9.52704C1.1362 9.49337 1.15746 9.46297 1.18407 9.43765C1.19233 9.42939 1.1999 9.42114 1.20747 9.41219L4.3256 5.87643C4.42895 5.75938 4.55601 5.66566 4.69836 5.60148C4.84071 5.5373 4.99508 5.50415 5.15123 5.50421H8.06433C8.22048 5.50415 8.37485 5.5373 8.51719 5.60148C8.65954 5.66566 8.78661 5.75938 8.88996 5.87643L12.0081 9.41219C12.0157 9.42114 12.0232 9.42939 12.0315 9.43765C12.083 9.48924 12.1119 9.55914 12.1119 9.63202C12.1119 9.70489 12.083 9.77479 12.0315 9.82638Z" fill="#E6E6E6"/>
</svg>
