<svg width="20" height="16" viewBox="0 0 20 16" fill="none" xmlns="http://www.w3.org/2000/svg">
<path d="M15.7143 0H4.28571C3.90683 0 3.54347 0.168571 3.27556 0.468629C3.00765 0.768687 2.85714 1.17565 2.85714 1.6V14.4C2.85714 14.8243 3.00765 15.2313 3.27556 15.5314C3.54347 15.8314 3.90683 16 4.28571 16H15.7143C16.0932 16 16.4565 15.8314 16.7244 15.5314C16.9923 15.2313 17.1429 14.8243 17.1429 14.4V1.6C17.1429 1.17565 16.9923 0.768687 16.7244 0.468629C16.4565 0.168571 16.0932 0 15.7143 0ZM15.7143 14.4H4.28571V1.6H15.7143V14.4ZM20 0.8V15.2C20 15.4122 19.9247 15.6157 19.7908 15.7657C19.6568 15.9157 19.4752 16 19.2857 16C19.0963 16 18.9146 15.9157 18.7806 15.7657C18.6467 15.6157 18.5714 15.4122 18.5714 15.2V0.8C18.5714 0.587827 18.6467 0.384344 18.7806 0.234315C18.9146 0.0842856 19.0963 0 19.2857 0C19.4752 0 19.6568 0.0842856 19.7908 0.234315C19.9247 0.384344 20 0.587827 20 0.8ZM1.42857 0.8V15.2C1.42857 15.4122 1.35332 15.6157 1.21936 15.7657C1.08541 15.9157 0.903726 16 0.714286 16C0.524845 16 0.343164 15.9157 0.209209 15.7657C0.0752549 15.6157 0 15.4122 0 15.2V0.8C0 0.587827 0.0752549 0.384344 0.209209 0.234315C0.343164 0.0842856 0.524845 0 0.714286 0C0.903726 0 1.08541 0.0842856 1.21936 0.234315C1.35332 0.384344 1.42857 0.587827 1.42857 0.8Z" fill="#E6E6E6"/>
</svg>
