<svg width="15" height="16" viewBox="0 0 15 16" fill="none" xmlns="http://www.w3.org/2000/svg">
<path d="M13.5385 1.23077H11.6923V0.615385C11.6923 0.452174 11.6275 0.295649 11.5121 0.180242C11.3967 0.064835 11.2401 0 11.0769 0C10.9137 0 10.7572 0.064835 10.6418 0.180242C10.5264 0.295649 10.4615 0.452174 10.4615 0.615385V1.23077H4.30769V0.615385C4.30769 0.452174 4.24286 0.295649 4.12745 0.180242C4.01204 0.064835 3.85552 0 3.69231 0C3.5291 0 3.37257 0.064835 3.25717 0.180242C3.14176 0.295649 3.07692 0.452174 3.07692 0.615385V1.23077H1.23077C0.904349 1.23077 0.591298 1.36044 0.360484 1.59125C0.12967 1.82207 0 2.13512 0 2.46154V14.7692C0 15.0957 0.12967 15.4087 0.360484 15.6395C0.591298 15.8703 0.904349 16 1.23077 16H13.5385C13.8649 16 14.1779 15.8703 14.4087 15.6395C14.6396 15.4087 14.7692 15.0957 14.7692 14.7692V2.46154C14.7692 2.13512 14.6396 1.82207 14.4087 1.59125C14.1779 1.36044 13.8649 1.23077 13.5385 1.23077ZM3.07692 2.46154V3.07692C3.07692 3.24013 3.14176 3.39666 3.25717 3.51207C3.37257 3.62747 3.5291 3.69231 3.69231 3.69231C3.85552 3.69231 4.01204 3.62747 4.12745 3.51207C4.24286 3.39666 4.30769 3.24013 4.30769 3.07692V2.46154H10.4615V3.07692C10.4615 3.24013 10.5264 3.39666 10.6418 3.51207C10.7572 3.62747 10.9137 3.69231 11.0769 3.69231C11.2401 3.69231 11.3967 3.62747 11.5121 3.51207C11.6275 3.39666 11.6923 3.24013 11.6923 3.07692V2.46154H13.5385V4.92308H1.23077V2.46154H3.07692ZM13.5385 14.7692H1.23077V6.15385H13.5385V14.7692Z" fill="#E6E6E6"/>
</svg>
