<svg width="16" height="15" viewBox="0 0 16 15" fill="none" xmlns="http://www.w3.org/2000/svg">
<path d="M14.1538 1.84615H12.0215L10.9731 0.273846C10.9169 0.189655 10.8408 0.120618 10.7516 0.0728504C10.6624 0.0250832 10.5627 6.0773e-05 10.4615 0H5.53846C5.43725 6.0773e-05 5.33762 0.0250832 5.24839 0.0728504C5.15916 0.120618 5.08309 0.189655 5.02692 0.273846L3.97769 1.84615H1.84615C1.35652 1.84615 0.886947 2.04066 0.540726 2.38688C0.194505 2.7331 0 3.20268 0 3.69231V12.3077C0 12.7973 0.194505 13.2669 0.540726 13.6131C0.886947 13.9593 1.35652 14.1538 1.84615 14.1538H14.1538C14.6435 14.1538 15.1131 13.9593 15.4593 13.6131C15.8055 13.2669 16 12.7973 16 12.3077V3.69231C16 3.20268 15.8055 2.7331 15.4593 2.38688C15.1131 2.04066 14.6435 1.84615 14.1538 1.84615ZM14.7692 12.3077C14.7692 12.4709 14.7044 12.6274 14.589 12.7428C14.4736 12.8582 14.3171 12.9231 14.1538 12.9231H1.84615C1.68294 12.9231 1.52642 12.8582 1.41101 12.7428C1.2956 12.6274 1.23077 12.4709 1.23077 12.3077V3.69231C1.23077 3.5291 1.2956 3.37257 1.41101 3.25716C1.52642 3.14176 1.68294 3.07692 1.84615 3.07692H4.30769C4.40903 3.07699 4.50882 3.05203 4.59819 3.00425C4.68756 2.95648 4.76376 2.88738 4.82 2.80308L5.86769 1.23077H10.1315L11.18 2.80308C11.2362 2.88738 11.3124 2.95648 11.4018 3.00425C11.4912 3.05203 11.591 3.07699 11.6923 3.07692H14.1538C14.3171 3.07692 14.4736 3.14176 14.589 3.25716C14.7044 3.37257 14.7692 3.5291 14.7692 3.69231V12.3077ZM8 4.30769C7.33059 4.30769 6.67621 4.5062 6.11961 4.8781C5.56301 5.25001 5.1292 5.77861 4.87302 6.39707C4.61685 7.01553 4.54982 7.69606 4.68042 8.35261C4.81102 9.00916 5.13337 9.61224 5.60672 10.0856C6.08006 10.5589 6.68314 10.8813 7.33969 11.0119C7.99625 11.1425 8.67678 11.0755 9.29524 10.8193C9.91369 10.5631 10.4423 10.1293 10.8142 9.5727C11.1861 9.0161 11.3846 8.36172 11.3846 7.69231C11.3836 6.79496 11.0267 5.93467 10.3922 5.30015C9.75764 4.66563 8.89734 4.30871 8 4.30769ZM8 9.84615C7.57401 9.84615 7.15759 9.71983 6.80339 9.48316C6.44919 9.2465 6.17313 8.91011 6.01011 8.51655C5.84709 8.12298 5.80443 7.68992 5.88754 7.27211C5.97065 6.85431 6.17578 6.47053 6.477 6.16931C6.77822 5.86809 7.162 5.66295 7.57981 5.57985C7.99761 5.49674 8.43068 5.53939 8.82424 5.70241C9.2178 5.86543 9.55419 6.1415 9.79086 6.49569C10.0275 6.84989 10.1538 7.26632 10.1538 7.69231C10.1538 8.26354 9.92692 8.81138 9.523 9.21531C9.11908 9.61923 8.57124 9.84615 8 9.84615Z" fill="#E6E6E6"/>
</svg>
