<svg width="16" height="15" viewBox="0 0 16 15" fill="none" xmlns="http://www.w3.org/2000/svg">
<path d="M14.1538 1.84615H12.0215L10.9731 0.273846C10.9169 0.189655 10.8408 0.120618 10.7516 0.0728504C10.6624 0.0250832 10.5627 6.0773e-05 10.4615 0H5.53846C5.43725 6.0773e-05 5.33762 0.0250832 5.24839 0.0728504C5.15916 0.120618 5.08309 0.189655 5.02692 0.273846L3.97769 1.84615H1.84615C1.35652 1.84615 0.886947 2.04066 0.540726 2.38688C0.194505 2.7331 0 3.20268 0 3.69231V12.3077C0 12.7973 0.194505 13.2669 0.540726 13.6131C0.886947 13.9593 1.35652 14.1538 1.84615 14.1538H14.1538C14.6435 14.1538 15.1131 13.9593 15.4593 13.6131C15.8055 13.2669 16 12.7973 16 12.3077V3.69231C16 3.20268 15.8055 2.7331 15.4593 2.38688C15.1131 2.04066 14.6435 1.84615 14.1538 1.84615ZM10.7692 7.69231C10.7692 8.24001 10.6068 8.77541 10.3025 9.23081C9.99824 9.68621 9.56575 10.0411 9.05974 10.2507C8.55373 10.4603 7.99693 10.5152 7.45975 10.4083C6.92257 10.3015 6.42914 10.0377 6.04186 9.65045C5.65457 9.26316 5.39083 8.76974 5.28398 8.23256C5.17713 7.69538 5.23197 7.13858 5.44156 6.63257C5.65116 6.12656 6.0061 5.69406 6.4615 5.38978C6.9169 5.08549 7.4523 4.92308 8 4.92308C8.73445 4.92308 9.43881 5.21483 9.95814 5.73417C10.4775 6.2535 10.7692 6.95786 10.7692 7.69231Z" fill="#E6E6E6"/>
</svg>
