<svg width="16" height="16" viewBox="0 0 16 16" fill="none" xmlns="http://www.w3.org/2000/svg">
<path d="M16.0015 7.99749C16.0018 9.3788 15.6445 10.7367 14.9643 11.9389C14.2842 13.1411 13.3043 14.1468 12.1202 14.858C10.936 15.5692 9.5879 15.9617 8.20705 15.9973C6.8262 16.033 5.45964 15.7105 4.24041 15.0612L1.62092 15.9344C1.40405 16.0067 1.17131 16.0172 0.948804 15.9647C0.726296 15.9122 0.522809 15.7988 0.361151 15.6371C0.199492 15.4754 0.0860502 15.272 0.0335398 15.0494C-0.0189707 14.8269 -0.00847441 14.5942 0.063852 14.3773L0.937013 11.7578C0.366303 10.6848 0.0475408 9.49593 0.0049215 8.28134C-0.0376978 7.06675 0.196946 5.85841 0.691043 4.74805C1.18514 3.63768 1.9257 2.65447 2.85652 1.87305C3.78733 1.09162 4.88394 0.532521 6.06309 0.238184C7.24225 -0.0561535 8.47296 -0.0779917 9.66182 0.174326C10.8507 0.426645 11.9664 0.946488 12.9244 1.6944C13.8823 2.44231 14.6573 3.39862 15.1905 4.49076C15.7237 5.5829 16.001 6.78215 16.0015 7.99749Z" fill="#E6E6E6"/>
</svg>
