<svg width="16" height="16" viewBox="0 0 16 16" fill="none" xmlns="http://www.w3.org/2000/svg">
<path d="M8.00175 1.9052e-07C6.62057 -0.000301201 5.26284 0.356991 4.06071 1.0371C2.85858 1.71721 1.85301 2.69696 1.14188 3.881C0.430744 5.06504 0.0382705 6.41302 0.00265996 7.79374C-0.0329505 9.17446 0.289515 10.5409 0.938669 11.76L0.0655923 14.3792C-0.00672718 14.5961 -0.0172224 14.8288 0.035283 15.0513C0.0877884 15.2738 0.201219 15.4772 0.362863 15.6389C0.524506 15.8005 0.727973 15.914 0.950459 15.9665C1.17295 16.019 1.40566 16.0085 1.62252 15.9362L4.24175 15.0631C5.31465 15.6337 6.50345 15.9525 7.71792 15.9951C8.93239 16.0377 10.1406 15.8031 11.2509 15.309C12.3611 14.815 13.3442 14.0745 14.1256 13.1438C14.9069 12.213 15.466 11.1165 15.7603 9.93749C16.0546 8.75844 16.0765 7.52785 15.8242 6.33911C15.5719 5.15036 15.0521 4.03472 14.3042 3.07686C13.5564 2.119 12.6002 1.34409 11.5081 0.810965C10.4161 0.277837 9.21697 0.000498639 8.00175 1.9052e-07ZM8.00175 14.7692C6.81173 14.77 5.64259 14.4567 4.61252 13.8608C4.5371 13.817 4.45325 13.7898 4.36652 13.7809C4.27979 13.7721 4.19216 13.7817 4.10944 13.8092L1.23252 14.7692L2.19175 11.8923C2.2194 11.8096 2.22917 11.722 2.22042 11.6353C2.21166 11.5486 2.18459 11.4647 2.14098 11.3892C1.3948 10.0992 1.09521 8.59891 1.28869 7.1212C1.48217 5.64349 2.1579 4.27094 3.21104 3.21646C4.26419 2.16197 5.6359 1.48452 7.11336 1.28917C8.59082 1.09383 10.0915 1.39152 11.3825 2.13607C12.6735 2.88061 13.6827 4.03039 14.2536 5.40704C14.8244 6.78369 14.925 8.31025 14.5398 9.74992C14.1545 11.1896 13.3049 12.4619 12.1228 13.3694C10.9407 14.2769 9.49207 14.769 8.00175 14.7692Z" fill="#E6E6E6"/>
</svg>
