<svg width="16" height="16" viewBox="0 0 16 16" fill="none" xmlns="http://www.w3.org/2000/svg">
<path d="M14.6667 0H1.33333C0.979711 0 0.640573 0.140476 0.390524 0.390524C0.140476 0.640573 0 0.979711 0 1.33333V14.6667C0 15.0203 0.140476 15.3594 0.390524 15.6095C0.640573 15.8595 0.979711 16 1.33333 16H14.6667C15.0203 16 15.3594 15.8595 15.6095 15.6095C15.8595 15.3594 16 15.0203 16 14.6667V1.33333C16 0.979711 15.8595 0.640573 15.6095 0.390524C15.3594 0.140476 15.0203 0 14.6667 0ZM11.805 6.47167L7.13833 11.1383C7.07642 11.2003 7.00289 11.2495 6.92196 11.283C6.84103 11.3166 6.75428 11.3339 6.66667 11.3339C6.57906 11.3339 6.49231 11.3166 6.41137 11.283C6.33044 11.2495 6.25692 11.2003 6.195 11.1383L4.195 9.13833C4.06991 9.01324 3.99963 8.84358 3.99963 8.66667C3.99963 8.48976 4.06991 8.32009 4.195 8.195C4.32009 8.06991 4.48976 7.99963 4.66667 7.99963C4.84358 7.99963 5.01324 8.06991 5.13833 8.195L6.66667 9.72417L10.8617 5.52833C10.9236 5.46639 10.9971 5.41726 11.0781 5.38374C11.159 5.35022 11.2457 5.33296 11.3333 5.33296C11.4209 5.33296 11.5077 5.35022 11.5886 5.38374C11.6695 5.41726 11.7431 5.46639 11.805 5.52833C11.8669 5.59027 11.9161 5.66381 11.9496 5.74474C11.9831 5.82566 12.0004 5.9124 12.0004 6C12.0004 6.0876 11.9831 6.17434 11.9496 6.25526C11.9161 6.33619 11.8669 6.40973 11.805 6.47167Z" fill="#E6E6E6"/>
</svg>
