<svg width="16" height="14" viewBox="0 0 16 14" fill="none" xmlns="http://www.w3.org/2000/svg">
<path d="M15.4483 12.1379H14.8966V6.62069C14.8966 6.32804 14.7803 6.04737 14.5734 5.84043C14.3664 5.6335 14.0858 5.51724 13.7931 5.51724H9.93103V1.10345C9.93103 0.810796 9.81478 0.530129 9.60784 0.323193C9.4009 0.116256 9.12024 0 8.82759 0H2.2069C1.91424 0 1.63358 0.116256 1.42664 0.323193C1.2197 0.530129 1.10345 0.810796 1.10345 1.10345V12.1379H0.551724C0.405398 12.1379 0.265065 12.1961 0.161596 12.2995C0.0581279 12.403 0 12.5433 0 12.6897C0 12.836 0.0581279 12.9763 0.161596 13.0798C0.265065 13.1833 0.405398 13.2414 0.551724 13.2414H15.4483C15.5946 13.2414 15.7349 13.1833 15.8384 13.0798C15.9419 12.9763 16 12.836 16 12.6897C16 12.5433 15.9419 12.403 15.8384 12.2995C15.7349 12.1961 15.5946 12.1379 15.4483 12.1379ZM7.17241 12.1379H3.86207V8.82759H7.17241V12.1379ZM7.17241 4.96552H6.06897V6.06897C6.06897 6.21529 6.01084 6.35563 5.90737 6.45909C5.8039 6.56256 5.66357 6.62069 5.51724 6.62069C5.37092 6.62069 5.23058 6.56256 5.12711 6.45909C5.02365 6.35563 4.96552 6.21529 4.96552 6.06897V4.96552H3.86207C3.71574 4.96552 3.57541 4.90739 3.47194 4.80392C3.36847 4.70045 3.31034 4.56012 3.31034 4.41379C3.31034 4.26747 3.36847 4.12713 3.47194 4.02367C3.57541 3.9202 3.71574 3.86207 3.86207 3.86207H4.96552V2.75862C4.96552 2.61229 5.02365 2.47196 5.12711 2.36849C5.23058 2.26502 5.37092 2.2069 5.51724 2.2069C5.66357 2.2069 5.8039 2.26502 5.90737 2.36849C6.01084 2.47196 6.06897 2.61229 6.06897 2.75862V3.86207H7.17241C7.31874 3.86207 7.45907 3.9202 7.56254 4.02367C7.66601 4.12713 7.72414 4.26747 7.72414 4.41379C7.72414 4.56012 7.66601 4.70045 7.56254 4.80392C7.45907 4.90739 7.31874 4.96552 7.17241 4.96552ZM13.7931 12.1379H9.93103V6.62069H13.7931V12.1379Z" fill="#E6E6E6"/>
</svg>
