<svg width="16" height="16" viewBox="0 0 16 16" fill="none" xmlns="http://www.w3.org/2000/svg">
<path d="M8.00175 1.9052e-07C6.62057 -0.000301201 5.26284 0.356991 4.06071 1.0371C2.85858 1.71721 1.85301 2.69696 1.14188 3.881C0.430744 5.06504 0.0382705 6.41302 0.00265996 7.79374C-0.0329505 9.17446 0.289515 10.5409 0.938669 11.76L0.0655923 14.3792C-0.00672718 14.5961 -0.0172224 14.8288 0.035283 15.0513C0.0877884 15.2738 0.201219 15.4772 0.362863 15.6389C0.524506 15.8005 0.727973 15.914 0.950459 15.9665C1.17295 16.019 1.40566 16.0085 1.62252 15.9362L4.24175 15.0631C5.31465 15.6337 6.50345 15.9525 7.71792 15.9951C8.93239 16.0377 10.1406 15.8031 11.2509 15.309C12.3611 14.815 13.3442 14.0745 14.1256 13.1438C14.9069 12.213 15.466 11.1165 15.7603 9.93749C16.0546 8.75844 16.0765 7.52785 15.8242 6.33911C15.5719 5.15036 15.0521 4.03472 14.3042 3.07686C13.5564 2.119 12.6002 1.34409 11.5081 0.810965C10.4161 0.277837 9.21697 0.000498639 8.00175 1.9052e-07ZM4.61713 8.92308C4.43456 8.92308 4.2561 8.86894 4.1043 8.76751C3.9525 8.66608 3.83418 8.52192 3.76432 8.35325C3.69445 8.18458 3.67617 7.99898 3.71179 7.81992C3.74741 7.64086 3.83532 7.47638 3.96442 7.34729C4.09351 7.21819 4.25799 7.13028 4.43705 7.09466C4.61611 7.05904 4.80171 7.07732 4.97038 7.14719C5.13905 7.21705 5.28321 7.33537 5.38464 7.48717C5.48607 7.63897 5.54021 7.81743 5.54021 8C5.54021 8.24482 5.44296 8.4796 5.26985 8.65271C5.09673 8.82582 4.86195 8.92308 4.61713 8.92308ZM8.00175 8.92308C7.81918 8.92308 7.64071 8.86894 7.48891 8.76751C7.33711 8.66608 7.2188 8.52192 7.14893 8.35325C7.07907 8.18458 7.06079 7.99898 7.09641 7.81992C7.13202 7.64086 7.21994 7.47638 7.34903 7.34729C7.47813 7.21819 7.6426 7.13028 7.82166 7.09466C8.00072 7.05904 8.18632 7.07732 8.35499 7.14719C8.52366 7.21705 8.66783 7.33537 8.76926 7.48717C8.87069 7.63897 8.92482 7.81743 8.92482 8C8.92482 8.24482 8.82757 8.4796 8.65446 8.65271C8.48135 8.82582 8.24656 8.92308 8.00175 8.92308ZM11.3864 8.92308C11.2038 8.92308 11.0253 8.86894 10.8735 8.76751C10.7217 8.66608 10.6034 8.52192 10.5336 8.35325C10.4637 8.18458 10.4454 7.99898 10.481 7.81992C10.5166 7.64086 10.6046 7.47638 10.7336 7.34729C10.8627 7.21819 11.0272 7.13028 11.2063 7.09466C11.3853 7.05904 11.5709 7.07732 11.7396 7.14719C11.9083 7.21705 12.0524 7.33537 12.1539 7.48717C12.2553 7.63897 12.3094 7.81743 12.3094 8C12.3094 8.24482 12.2122 8.4796 12.0391 8.65271C11.866 8.82582 11.6312 8.92308 11.3864 8.92308Z" fill="#E6E6E6"/>
</svg>
