<svg width="16" height="16" viewBox="0 0 16 16" fill="none" xmlns="http://www.w3.org/2000/svg">
<path d="M1.14286 2.85714C1.14286 2.40249 1.32347 1.96645 1.64496 1.64496C1.96645 1.32347 2.40249 1.14286 2.85714 1.14286H4C4.15155 1.14286 4.2969 1.08265 4.40406 0.97549C4.51122 0.868326 4.57143 0.722981 4.57143 0.571429C4.57143 0.419876 4.51122 0.274531 4.40406 0.167368C4.2969 0.0602039 4.15155 0 4 0H2.85714C2.09938 0 1.37266 0.30102 0.836838 0.836838C0.30102 1.37266 0 2.09938 0 2.85714V4C0 4.15155 0.0602039 4.2969 0.167368 4.40406C0.274531 4.51122 0.419876 4.57143 0.571429 4.57143C0.722981 4.57143 0.868326 4.51122 0.97549 4.40406C1.08265 4.2969 1.14286 4.15155 1.14286 4V2.85714ZM2.46971 14.8137C2.59543 14.8427 2.72457 14.8571 2.85714 14.8571H4C4.15155 14.8571 4.2969 14.9173 4.40406 15.0245C4.51122 15.1317 4.57143 15.277 4.57143 15.4286C4.57143 15.5801 4.51122 15.7255 4.40406 15.8326C4.2969 15.9398 4.15155 16 4 16H2.85714C2.09938 16 1.37266 15.699 0.836838 15.1632C0.30102 14.6273 0 13.9006 0 13.1429V12C0 11.8484 0.0602039 11.7031 0.167368 11.5959C0.274531 11.4888 0.419876 11.4286 0.571429 11.4286C0.722981 11.4286 0.868326 11.4888 0.97549 11.5959C1.08265 11.7031 1.14286 11.8484 1.14286 12V13.1429C1.14265 13.5303 1.27371 13.9064 1.51467 14.2099C1.75563 14.5133 2.09227 14.7261 2.46971 14.8137ZM13.1429 1.14286C13.5975 1.14286 14.0336 1.32347 14.355 1.64496C14.6765 1.96645 14.8571 2.40249 14.8571 2.85714V4C14.8571 4.15155 14.9173 4.2969 15.0245 4.40406C15.1317 4.51122 15.277 4.57143 15.4286 4.57143C15.5801 4.57143 15.7255 4.51122 15.8326 4.40406C15.9398 4.2969 16 4.15155 16 4V2.85714C16 2.09938 15.699 1.37266 15.1632 0.836838C14.6273 0.30102 13.9006 0 13.1429 0H12C11.8484 0 11.7031 0.0602039 11.5959 0.167368C11.4888 0.274531 11.4286 0.419876 11.4286 0.571429C11.4286 0.722981 11.4888 0.868326 11.5959 0.97549C11.7031 1.08265 11.8484 1.14286 12 1.14286H13.1429ZM13.5303 14.8137C13.4032 14.8429 13.2732 14.8574 13.1429 14.8571H12C11.8484 14.8571 11.7031 14.9173 11.5959 15.0245C11.4888 15.1317 11.4286 15.277 11.4286 15.4286C11.4286 15.5801 11.4888 15.7255 11.5959 15.8326C11.7031 15.9398 11.8484 16 12 16H13.1429C13.9006 16 14.6273 15.699 15.1632 15.1632C15.699 14.6273 16 13.9006 16 13.1429V12C16 11.8484 15.9398 11.7031 15.8326 11.5959C15.7255 11.4888 15.5801 11.4286 15.4286 11.4286C15.277 11.4286 15.1317 11.4888 15.0245 11.5959C14.9173 11.7031 14.8571 11.8484 14.8571 12V13.1429C14.8574 13.5303 14.7263 13.9064 14.4853 14.2099C14.2444 14.5133 13.9077 14.7261 13.5303 14.8137ZM2.85714 13.7143C2.70559 13.7143 2.56025 13.6541 2.45308 13.5469C2.34592 13.4398 2.28571 13.2944 2.28571 13.1429C2.28571 12.6882 2.46633 12.2522 2.78782 11.9307C3.10931 11.6092 3.54534 11.4286 4 11.4286H12C12.4547 11.4286 12.8907 11.6092 13.2122 11.9307C13.5337 12.2522 13.7143 12.6882 13.7143 13.1429C13.7143 13.2944 13.6541 13.4398 13.5469 13.5469C13.4398 13.6541 13.2944 13.7143 13.1429 13.7143H12.5714V13.1429C12.5714 12.9913 12.5112 12.846 12.4041 12.7388C12.2969 12.6316 12.1516 12.5714 12 12.5714H4C3.84845 12.5714 3.7031 12.6316 3.59594 12.7388C3.48878 12.846 3.42857 12.9913 3.42857 13.1429V13.7143H2.85714ZM11.1429 6.57143C11.1429 5.73789 10.8117 4.93849 10.2223 4.34909C9.63294 3.75969 8.83354 3.42857 8 3.42857C7.16646 3.42857 6.36706 3.75969 5.77766 4.34909C5.18826 4.93849 4.85714 5.73789 4.85714 6.57143C4.85714 7.40497 5.18826 8.20436 5.77766 8.79377C6.36706 9.38316 7.16646 9.71429 8 9.71429C8.83354 9.71429 9.63294 9.38316 10.2223 8.79377C10.8117 8.20436 11.1429 7.40497 11.1429 6.57143ZM6 6.57143C6 6.041 6.21071 5.53229 6.58579 5.15722C6.96086 4.78214 7.46957 4.57143 8 4.57143C8.53043 4.57143 9.03914 4.78214 9.41421 5.15722C9.78929 5.53229 10 6.041 10 6.57143C10 7.10186 9.78929 7.61057 9.41421 7.98564C9.03914 8.36071 8.53043 8.57143 8 8.57143C7.46957 8.57143 6.96086 8.36071 6.58579 7.98564C6.21071 7.61057 6 7.10186 6 6.57143Z" fill="#E6E6E6"/>
</svg>
