<svg width="16" height="14" viewBox="0 0 16 14" fill="none" xmlns="http://www.w3.org/2000/svg">
<path d="M15.3493 3.54339C15.1258 3.43385 14.8724 3.40101 14.6284 3.44994C14.3844 3.49887 14.1633 3.62685 13.9994 3.81408L11.5945 6.40605L9.03755 0.67144C9.03743 0.669061 9.03743 0.666677 9.03755 0.664298C8.94612 0.465988 8.79978 0.298027 8.61586 0.180297C8.43194 0.0625679 8.21814 0 7.99977 0C7.78139 0 7.56759 0.0625679 7.38367 0.180297C7.19975 0.298027 7.05342 0.465988 6.96198 0.664298C6.9621 0.666677 6.9621 0.669061 6.96198 0.67144L4.40502 6.40605L2.00018 3.81408C1.83517 3.62682 1.61338 3.49872 1.36872 3.44938C1.12405 3.40003 0.869952 3.43214 0.645253 3.54081C0.420555 3.64947 0.237611 3.82872 0.124375 4.05115C0.0111395 4.27358 -0.0261608 4.52696 0.0181738 4.77259C0.0181738 4.78044 0.0181738 4.78759 0.0231735 4.79544L1.64306 12.2142C1.69293 12.4755 1.83235 12.7111 2.0373 12.8806C2.24224 13.0501 2.49989 13.1428 2.76584 13.1427H13.2344C13.5002 13.1426 13.7577 13.0498 13.9625 12.8804C14.1673 12.7109 14.3066 12.4753 14.3565 12.2142L15.9764 4.79544C15.9764 4.78759 15.9764 4.78044 15.9814 4.77259C16.0265 4.52666 15.989 4.27269 15.8747 4.05032C15.7603 3.82795 15.5756 3.6497 15.3493 3.54339ZM13.2387 11.9771L13.2344 11.9999H2.76513L2.76084 11.9771L1.1431 4.57189L1.1531 4.58331L4.15289 7.81452C4.21712 7.88393 4.29758 7.93631 4.38705 7.96697C4.47652 7.99762 4.57219 8.00559 4.6655 7.99016C4.7588 7.97472 4.84682 7.93637 4.92165 7.87854C4.99648 7.82071 5.05579 7.74521 5.09425 7.65882L7.99977 1.14355L10.906 7.66096C10.9445 7.74736 11.0038 7.82286 11.0786 7.88069C11.1534 7.93852 11.2414 7.97687 11.3348 7.9923C11.4281 8.00773 11.5237 7.99976 11.6132 7.96911C11.7027 7.93846 11.7831 7.88607 11.8474 7.81666L14.8472 4.58546L14.8564 4.57189L13.2387 11.9771Z" fill="#E6E6E6"/>
</svg>
