<svg width="16" height="14" viewBox="0 0 16 14" fill="none" xmlns="http://www.w3.org/2000/svg">
<path d="M15.9854 4.77379C15.9854 4.78165 15.9854 4.7888 15.9804 4.79665L14.3601 12.2173C14.3102 12.4786 14.1708 12.7143 13.9658 12.8839C13.7608 13.0534 13.5031 13.1461 13.237 13.146H2.76583C2.49993 13.1459 2.24239 13.0531 2.03753 12.8836C1.83268 12.7141 1.69333 12.4785 1.64348 12.2173L0.0231793 4.79665C0.0231793 4.7888 0.0196073 4.78165 0.0181784 4.77379C-0.0261674 4.52811 0.0111423 4.27466 0.124407 4.05217C0.237671 3.82968 0.420661 3.6504 0.645416 3.5417C0.870171 3.43301 1.12433 3.40089 1.36906 3.45025C1.61379 3.49961 1.83563 3.62773 2.00069 3.81505L4.40613 6.40766L6.96374 0.67161C6.96386 0.66923 6.96386 0.666846 6.96374 0.664466C7.0552 0.466106 7.20157 0.298102 7.38554 0.180343C7.56951 0.0625837 7.78336 0 8.00179 0C8.22022 0 8.43407 0.0625837 8.61804 0.180343C8.80201 0.298102 8.94838 0.466106 9.03984 0.664466C9.03972 0.666846 9.03972 0.66923 9.03984 0.67161L11.5975 6.40766L14.0029 3.81505C14.1683 3.62912 14.3898 3.50225 14.6339 3.4537C14.878 3.40515 15.1312 3.43756 15.3552 3.54603C15.5791 3.65449 15.7616 3.83308 15.8748 4.05467C15.988 4.27626 16.0259 4.52875 15.9825 4.77379H15.9854Z" fill="#E6E6E6"/>
</svg>
