<svg width="15" height="16" viewBox="0 0 15 16" fill="none" xmlns="http://www.w3.org/2000/svg">
<path d="M14.7692 3.07692C14.7692 3.24013 14.7044 3.39666 14.589 3.51207C14.4736 3.62747 14.3171 3.69231 14.1538 3.69231H13.5385V14.7692C13.5385 15.0957 13.4088 15.4087 13.178 15.6395C12.9472 15.8703 12.6341 16 12.3077 16H2.46154C2.13512 16 1.82207 15.8703 1.59125 15.6395C1.36044 15.4087 1.23077 15.0957 1.23077 14.7692V3.69231H0.615385C0.452174 3.69231 0.295649 3.62747 0.180242 3.51207C0.0648351 3.39666 0 3.24013 0 3.07692C0 2.91371 0.0648351 2.75719 0.180242 2.64178C0.295649 2.52637 0.452174 2.46154 0.615385 2.46154H14.1538C14.3171 2.46154 14.4736 2.52637 14.589 2.64178C14.7044 2.75719 14.7692 2.91371 14.7692 3.07692ZM4.30769 1.23077H10.4615C10.6247 1.23077 10.7813 1.16593 10.8967 1.05053C11.0121 0.93512 11.0769 0.778595 11.0769 0.615385C11.0769 0.452174 11.0121 0.295649 10.8967 0.180242C10.7813 0.064835 10.6247 0 10.4615 0H4.30769C4.14448 0 3.98796 0.064835 3.87255 0.180242C3.75714 0.295649 3.69231 0.452174 3.69231 0.615385C3.69231 0.778595 3.75714 0.93512 3.87255 1.05053C3.98796 1.16593 4.14448 1.23077 4.30769 1.23077Z" fill="#E6E6E6"/>
</svg>
