<svg width="15" height="16" viewBox="0 0 15 16" fill="none" xmlns="http://www.w3.org/2000/svg">
<path d="M14.1538 2.46154H0.615385C0.452174 2.46154 0.295649 2.52637 0.180242 2.64178C0.0648351 2.75719 0 2.91371 0 3.07692C0 3.24013 0.0648351 3.39666 0.180242 3.51207C0.295649 3.62747 0.452174 3.69231 0.615385 3.69231H1.23077V14.7692C1.23077 15.0957 1.36044 15.4087 1.59125 15.6395C1.82207 15.8703 2.13512 16 2.46154 16H12.3077C12.6341 16 12.9472 15.8703 13.178 15.6395C13.4088 15.4087 13.5385 15.0957 13.5385 14.7692V3.69231H14.1538C14.3171 3.69231 14.4736 3.62747 14.589 3.51207C14.7044 3.39666 14.7692 3.24013 14.7692 3.07692C14.7692 2.91371 14.7044 2.75719 14.589 2.64178C14.4736 2.52637 14.3171 2.46154 14.1538 2.46154ZM12.3077 14.7692H2.46154V3.69231H12.3077V14.7692ZM3.69231 0.615385C3.69231 0.452174 3.75714 0.295649 3.87255 0.180242C3.98796 0.064835 4.14448 0 4.30769 0H10.4615C10.6247 0 10.7813 0.064835 10.8967 0.180242C11.0121 0.295649 11.0769 0.452174 11.0769 0.615385C11.0769 0.778595 11.0121 0.93512 10.8967 1.05053C10.7813 1.16593 10.6247 1.23077 10.4615 1.23077H4.30769C4.14448 1.23077 3.98796 1.16593 3.87255 1.05053C3.75714 0.93512 3.69231 0.778595 3.69231 0.615385Z" fill="#E6E6E6"/>
</svg>
