<svg width="16" height="16" viewBox="0 0 16 16" fill="none" xmlns="http://www.w3.org/2000/svg">
<path fill-rule="evenodd" clip-rule="evenodd" d="M12.4444 4.44444C12.4444 6.89911 10.4547 8.88889 8 8.88889C5.54533 8.88889 3.55556 6.89911 3.55556 4.44444C3.55556 1.98978 5.54533 0 8 0C10.4547 0 12.4444 1.98978 12.4444 4.44444ZM11.5556 4.44444C11.5556 5.38744 11.181 6.29181 10.5142 6.9586C9.84736 7.6254 8.94299 8 8 8C7.05701 8 6.15264 7.6254 5.48584 6.9586C4.81905 6.29181 4.44444 5.38744 4.44444 4.44444C4.44444 3.50145 4.81905 2.59708 5.48584 1.93029C6.15264 1.26349 7.05701 0.888889 8 0.888889C8.94299 0.888889 9.84736 1.26349 10.5142 1.93029C11.181 2.59708 11.5556 3.50145 11.5556 4.44444ZM5.29511 10.1578L5.3 10.1676L5.33333 10.2329H10.5551C10.6569 10.04 10.8876 9.73244 11.1111 9.78356C11.6133 9.89778 12.1191 10.0569 12.6049 10.2529L12.6196 10.2458L12.6244 10.2556L12.628 10.2622C14.4569 11.0053 16 12.2649 16 13.5867V16H0V13.5867C0 11.9089 2.48711 10.3302 4.88889 9.78356C5.08489 9.73911 5.20133 9.97022 5.29511 10.1578ZM11.8684 10.9258C11.6778 10.8589 11.485 10.7986 11.2902 10.7449L11.092 11.1218H4.79689L4.61289 10.772L4.45289 10.82C4.44963 10.849 4.44726 10.8822 4.44578 10.9196C4.44 11.0729 4.45156 11.2547 4.47689 11.4396C4.50272 11.6324 4.54434 11.8228 4.60133 12.0089C4.91354 12.0459 5.20264 12.192 5.41756 12.4215C5.63249 12.6509 5.75943 12.9489 5.77595 13.2629C5.79248 13.5768 5.69753 13.8865 5.50788 14.1373C5.31823 14.388 5.04607 14.5637 4.73947 14.6333C4.43287 14.7028 4.11155 14.6618 3.83226 14.5174C3.55297 14.3731 3.33367 14.1347 3.21309 13.8443C3.09251 13.554 3.07841 13.2304 3.17328 12.9306C3.26815 12.6309 3.46588 12.3743 3.73156 12.2062L3.728 12.1938C3.66865 11.986 3.62453 11.7742 3.596 11.56C3.57715 11.4232 3.5647 11.2855 3.55867 11.1476C3.00933 11.3822 2.49689 11.6658 2.06756 11.9787C1.21333 12.6027 0.888889 13.1858 0.888889 13.5867V15.1111H15.1111V13.5867C15.1111 13.1853 14.7867 12.6022 13.9324 11.9791C13.5599 11.7114 13.1632 11.479 12.7476 11.2849C12.7294 11.5258 12.6925 11.7648 12.6373 12H12.8889C12.9714 12 13.0523 12.0231 13.1225 12.0665C13.1926 12.1099 13.2493 12.172 13.2862 12.2458L13.7307 13.1347C13.7618 13.1964 13.7778 13.2644 13.7778 13.3333V14.2222C13.7778 14.3401 13.731 14.4531 13.6476 14.5365C13.5643 14.6198 13.4512 14.6667 13.3333 14.6667H12.4444V13.7778H12.8889V13.4382L12.6142 12.8889H11.3858L11.1111 13.4382V13.7778H11.5556V14.6667H10.6667C10.5488 14.6667 10.4357 14.6198 10.3524 14.5365C10.269 14.4531 10.2222 14.3401 10.2222 14.2222V13.3333C10.2222 13.2644 10.2382 13.1964 10.2693 13.1347L10.7138 12.2458C10.7507 12.172 10.8074 12.1099 10.8775 12.0665C10.9477 12.0231 11.0286 12 11.1111 12H11.7164L11.7329 11.9449C11.7747 11.8022 11.812 11.6249 11.8373 11.44C11.8622 11.2569 11.8738 11.0778 11.8684 10.9258ZM4.88889 13.3333C4.88889 13.5884 4.68356 13.7844 4.44444 13.7844C4.20533 13.7844 4 13.5889 4 13.3333C4 13.0782 4.20533 12.8822 4.44444 12.8822C4.68356 12.8822 4.88889 13.0778 4.88889 13.3333Z" fill="#E6E6E6"/>
</svg>
