<svg width="16" height="16" viewBox="0 0 16 16" fill="none" xmlns="http://www.w3.org/2000/svg">
<path d="M8 7.11111C8.94299 7.11111 9.84736 6.73651 10.5142 6.06971C11.181 5.40292 11.5556 4.49855 11.5556 3.55556C11.5556 2.61256 11.181 1.70819 10.5142 1.0414C9.84736 0.374602 8.94299 0 8 0C7.05701 0 6.15264 0.374602 5.48584 1.0414C4.81905 1.70819 4.44444 2.61256 4.44444 3.55556C4.44444 4.49855 4.81905 5.40292 5.48584 6.06971C6.15264 6.73651 7.05701 7.11111 8 7.11111ZM4.99556 8.81956L5.328 8.33156C6.1362 8.69877 7.01362 8.8888 7.90133 8.88889H8.09956C8.86076 8.88877 9.61548 8.74897 10.3262 8.47645L10.56 8.81956C10.6684 8.97956 10.7778 9.29067 10.8507 9.68445C10.9218 10.064 10.9413 10.424 10.928 10.6222C10.9228 10.7126 10.9348 10.8031 10.9636 10.8889H10.6276C10.4991 10.889 10.3733 10.9258 10.265 10.9949C10.1566 11.0641 10.0703 11.1626 10.016 11.2791L9.40178 12.5947C9.3538 12.6976 9.33256 12.811 9.34002 12.9243C9.34748 13.0377 9.38339 13.1473 9.44444 13.2431C9.50549 13.3389 9.5897 13.4177 9.68929 13.4723C9.78889 13.527 9.90064 13.5556 10.0142 13.5556H11.0222V12.2222H12.1333V13.5556H13.0969C13.2105 13.5556 13.3222 13.527 13.4218 13.4723C13.5214 13.4177 13.6056 13.3389 13.6667 13.2431C13.7277 13.1473 13.7636 13.0377 13.7711 12.9243C13.7785 12.811 13.7573 12.6976 13.7093 12.5947L13.096 11.2791C13.0416 11.1624 12.955 11.0636 12.8463 10.9945C12.7376 10.9253 12.6115 10.8887 12.4827 10.8889H12.2222C12.2416 10.8314 12.2536 10.7716 12.2578 10.7111C12.2809 10.3751 12.2471 9.90044 12.1618 9.44C12.0791 8.99378 11.9289 8.46133 11.6622 8.06933L11.6187 8.00533C11.6636 8.00184 11.7087 8.00006 11.7538 8C12.3114 8 12.8636 8.10983 13.3787 8.32322C13.8939 8.53662 14.362 8.84939 14.7563 9.24369C15.1506 9.63799 15.4634 10.1061 15.6768 10.6213C15.8902 11.1364 16 11.6886 16 12.2462V16H0V12.2462C0 10.0062 1.73333 8.17156 3.93244 8.01156L3.89333 8.06933C3.368 8.84178 3.288 9.79911 3.35289 10.5671C3.37511 10.8311 3.41511 11.0916 3.47022 11.3369C3.25084 11.5318 3.10191 11.7937 3.04652 12.0819C2.99113 12.3701 3.03238 12.6686 3.16386 12.9309C3.29535 13.1933 3.50973 13.405 3.77377 13.5331C4.0378 13.6612 4.33673 13.6987 4.62421 13.6396C4.91169 13.5806 5.17165 13.4283 5.36378 13.2065C5.55591 12.9846 5.66948 12.7056 5.68688 12.4126C5.70428 12.1196 5.62453 11.8291 5.46 11.5861C5.29547 11.3431 5.05536 11.1611 4.77689 11.0684C4.73063 10.8665 4.69855 10.6615 4.68089 10.4551C4.62756 9.82756 4.71644 9.22933 4.99556 8.81956Z" fill="#E6E6E6"/>
</svg>
