<svg width="10" height="16" viewBox="0 0 10 16" fill="none" xmlns="http://www.w3.org/2000/svg">
<path d="M2.4 1.2C2.4 1.43734 2.32962 1.66935 2.19776 1.86668C2.06591 2.06402 1.87849 2.21783 1.65922 2.30866C1.43995 2.39948 1.19867 2.42325 0.965892 2.37694C0.733115 2.33064 0.519295 2.21635 0.351472 2.04853C0.183649 1.88071 0.0693605 1.66689 0.0230582 1.43411C-0.0232441 1.20133 0.000519943 0.960052 0.0913451 0.74078C0.18217 0.521509 0.335978 0.334095 0.533317 0.202237C0.730656 0.0703795 0.962663 6.47336e-07 1.2 6.47336e-07C1.51826 6.47336e-07 1.82349 0.126429 2.04853 0.351472C2.27357 0.576516 2.4 0.881741 2.4 1.2ZM8.4 2.4C8.63734 2.4 8.86934 2.32962 9.06668 2.19776C9.26402 2.06591 9.41783 1.87849 9.50865 1.65922C9.59948 1.43995 9.62324 1.19867 9.57694 0.965892C9.53064 0.733115 9.41635 0.519295 9.24853 0.351472C9.0807 0.183649 8.86689 0.0693605 8.63411 0.0230582C8.40133 -0.0232441 8.16005 0.000519943 7.94078 0.0913451C7.72151 0.18217 7.53409 0.335977 7.40224 0.533316C7.27038 0.730655 7.2 0.962663 7.2 1.2C7.2 1.51826 7.32643 1.82349 7.55147 2.04853C7.77652 2.27357 8.08174 2.4 8.4 2.4ZM1.2 6.8C0.962663 6.8 0.730656 6.87038 0.533317 7.00224C0.335978 7.13409 0.18217 7.32151 0.0913451 7.54078C0.000519943 7.76005 -0.0232441 8.00133 0.0230582 8.23411C0.0693605 8.46689 0.183649 8.68071 0.351472 8.84853C0.519295 9.01635 0.733115 9.13064 0.965892 9.17694C1.19867 9.22324 1.43995 9.19948 1.65922 9.10865C1.87849 9.01783 2.06591 8.86402 2.19776 8.66668C2.32962 8.46935 2.4 8.23734 2.4 8C2.4 7.68174 2.27357 7.37652 2.04853 7.15147C1.82349 6.92643 1.51826 6.8 1.2 6.8ZM8.4 6.8C8.16266 6.8 7.93065 6.87038 7.73332 7.00224C7.53598 7.13409 7.38217 7.32151 7.29135 7.54078C7.20052 7.76005 7.17675 8.00133 7.22306 8.23411C7.26936 8.46689 7.38365 8.68071 7.55147 8.84853C7.7193 9.01635 7.93311 9.13064 8.16589 9.17694C8.39867 9.22324 8.63995 9.19948 8.85922 9.10865C9.07849 9.01783 9.2659 8.86402 9.39776 8.66668C9.52962 8.46935 9.6 8.23734 9.6 8C9.6 7.68174 9.47357 7.37652 9.24853 7.15147C9.02348 6.92643 8.71826 6.8 8.4 6.8ZM1.2 13.6C0.962663 13.6 0.730656 13.6704 0.533317 13.8022C0.335978 13.9341 0.18217 14.1215 0.0913451 14.3408C0.000519943 14.5601 -0.0232441 14.8013 0.0230582 15.0341C0.0693605 15.2669 0.183649 15.4807 0.351472 15.6485C0.519295 15.8163 0.733115 15.9306 0.965892 15.9769C1.19867 16.0232 1.43995 15.9995 1.65922 15.9087C1.87849 15.8178 2.06591 15.664 2.19776 15.4667C2.32962 15.2693 2.4 15.0373 2.4 14.8C2.4 14.4817 2.27357 14.1765 2.04853 13.9515C1.82349 13.7264 1.51826 13.6 1.2 13.6ZM8.4 13.6C8.16266 13.6 7.93065 13.6704 7.73332 13.8022C7.53598 13.9341 7.38217 14.1215 7.29135 14.3408C7.20052 14.5601 7.17675 14.8013 7.22306 15.0341C7.26936 15.2669 7.38365 15.4807 7.55147 15.6485C7.7193 15.8163 7.93311 15.9306 8.16589 15.9769C8.39867 16.0232 8.63995 15.9995 8.85922 15.9087C9.07849 15.8178 9.2659 15.664 9.39776 15.4667C9.52962 15.2693 9.6 15.0373 9.6 14.8C9.6 14.4817 9.47357 14.1765 9.24853 13.9515C9.02348 13.7264 8.71826 13.6 8.4 13.6Z" fill="#E6E6E6"/>
</svg>
