<svg width="16" height="16" viewBox="0 0 16 16" fill="none" xmlns="http://www.w3.org/2000/svg">
<path d="M15.8123 2.74762L13.2524 0.187697C13.1929 0.128194 13.1224 0.0809901 13.0447 0.0487836C12.967 0.016577 12.8837 0 12.7996 0C12.7155 0 12.6322 0.016577 12.5545 0.0487836C12.4768 0.0809901 12.4062 0.128194 12.3468 0.187697L4.66705 7.86746C4.60764 7.92693 4.56053 7.99754 4.52841 8.07523C4.49629 8.15292 4.47979 8.23617 4.47986 8.32024V10.8802C4.47986 11.0499 4.54729 11.2127 4.6673 11.3327C4.78732 11.4527 4.95011 11.5201 5.11984 11.5201H7.67976C7.76383 11.5202 7.84708 11.5037 7.92478 11.4716C8.00247 11.4395 8.07307 11.3924 8.13254 11.3329L15.8123 3.65319C15.8718 3.59375 15.919 3.52317 15.9512 3.44548C15.9834 3.36778 16 3.28451 16 3.2004C16 3.1163 15.9834 3.03302 15.9512 2.95533C15.919 2.87764 15.8718 2.80705 15.8123 2.74762ZM7.41497 10.2402H5.75982V8.58503L10.8797 3.46519L12.5348 5.12034L7.41497 10.2402ZM13.4396 4.21557L11.7844 2.56042L12.7996 1.54525L14.4547 3.2004L13.4396 4.21557ZM15.3595 8.32024V14.72C15.3595 15.0595 15.2247 15.3851 14.9846 15.6251C14.7446 15.8651 14.419 16 14.0796 16H1.27996C0.940493 16 0.614931 15.8651 0.374891 15.6251C0.134852 15.3851 0 15.0595 0 14.72V1.92044C0 1.58098 0.134852 1.25541 0.374891 1.01537C0.614931 0.775336 0.940493 0.640483 1.27996 0.640483H7.67976C7.84949 0.640483 8.01227 0.70791 8.13229 0.827929C8.25231 0.947949 8.31974 1.11073 8.31974 1.28046C8.31974 1.4502 8.25231 1.61298 8.13229 1.733C8.01227 1.85302 7.84949 1.92044 7.67976 1.92044H1.27996V14.72H14.0796V8.32024C14.0796 8.15051 14.147 7.98773 14.267 7.86771C14.387 7.74769 14.5498 7.68026 14.7195 7.68026C14.8893 7.68026 15.0521 7.74769 15.1721 7.86771C15.2921 7.98773 15.3595 8.15051 15.3595 8.32024Z" fill="#E6E6E6"/>
</svg>
