<svg width="5" height="16" viewBox="0 0 5 16" fill="none" xmlns="http://www.w3.org/2000/svg">
<path d="M4.14815 8C4.14815 8.41021 4.02651 8.81121 3.7986 9.15229C3.5707 9.49337 3.24678 9.75921 2.86779 9.91619C2.4888 10.0732 2.07177 10.1143 1.66944 10.0342C1.26711 9.95419 0.897548 9.75666 0.607483 9.46659C0.317419 9.17653 0.119882 8.80696 0.0398537 8.40463C-0.0401749 8.0023 0.000898661 7.58527 0.15788 7.20629C0.314862 6.8273 0.580701 6.50337 0.921781 6.27547C1.26286 6.04757 1.66386 5.92593 2.07407 5.92593C2.62415 5.92593 3.1517 6.14444 3.54067 6.53341C3.92963 6.92237 4.14815 7.44992 4.14815 8ZM2.07407 4.14815C2.48429 4.14815 2.88529 4.02651 3.22637 3.7986C3.56745 3.5707 3.83329 3.24678 3.99027 2.86779C4.14725 2.4888 4.18832 2.07177 4.1083 1.66944C4.02827 1.26711 3.83073 0.897548 3.54067 0.607483C3.2506 0.317419 2.88104 0.119882 2.47871 0.0398537C2.07638 -0.0401749 1.65935 0.000898661 1.28036 0.15788C0.901374 0.314862 0.577448 0.580702 0.349545 0.921781C0.121643 1.26286 1.11722e-06 1.66386 1.11722e-06 2.07407C1.11722e-06 2.62415 0.218519 3.1517 0.607483 3.54067C0.996448 3.92963 1.524 4.14815 2.07407 4.14815ZM2.07407 11.8519C1.66386 11.8519 1.26286 11.9735 0.921781 12.2014C0.580701 12.4293 0.314862 12.7532 0.15788 13.1322C0.000898661 13.5112 -0.0401749 13.9282 0.0398537 14.3306C0.119882 14.7329 0.317419 15.1025 0.607483 15.3925C0.897548 15.6826 1.26711 15.8801 1.66944 15.9601C2.07177 16.0402 2.4888 15.9991 2.86779 15.8421C3.24678 15.6851 3.5707 15.4193 3.7986 15.0782C4.02651 14.7371 4.14815 14.3361 4.14815 13.9259C4.14815 13.3758 3.92963 12.8483 3.54067 12.4593C3.1517 12.0704 2.62415 11.8519 2.07407 11.8519Z" fill="#E6E6E6"/>
</svg>
