<svg width="16" height="13" viewBox="0 0 16 13" fill="none" xmlns="http://www.w3.org/2000/svg">
<path d="M5.912 1.7294C5.8805 1.6949 5.85862 1.65272 5.84855 1.6071C5.83848 1.56149 5.84057 1.51402 5.85461 1.46946C5.86866 1.42491 5.89416 1.38482 5.92856 1.35322C5.96297 1.32162 6.00508 1.29961 6.05066 1.2894C6.6901 1.1432 7.34407 1.07006 8 1.0714C10.3253 1.0714 12.438 1.9554 14.1107 3.62807C15.366 4.8834 15.9307 6.13607 15.954 6.18874C15.9843 6.25694 16 6.33076 16 6.4054C16 6.48005 15.9843 6.55386 15.954 6.62207C15.9307 6.67474 15.366 7.92674 14.1107 9.18207C13.9204 9.37141 13.7251 9.55074 13.5247 9.72007C13.4719 9.76485 13.4039 9.78738 13.3348 9.7829C13.2658 9.77842 13.2012 9.74729 13.1547 9.69607L5.912 1.7294ZM13.728 11.9127C13.7761 11.9644 13.8134 12.0251 13.8379 12.0913C13.8624 12.1575 13.8735 12.2279 13.8705 12.2984C13.8676 12.3689 13.8506 12.4381 13.8207 12.5021C13.7908 12.566 13.7486 12.6234 13.6963 12.6708C13.6441 12.7183 13.583 12.7549 13.5165 12.7786C13.45 12.8023 13.3795 12.8125 13.309 12.8087C13.2385 12.8049 13.1695 12.7872 13.1059 12.7565C13.0424 12.7258 12.9855 12.6829 12.9387 12.6301L11.4667 11.0134C10.375 11.4963 9.19368 11.7432 8 11.7381C5.67466 11.7381 3.562 10.8541 1.88933 9.18207C0.633994 7.92674 0.0666603 6.67474 0.0459936 6.62207C0.0156691 6.55386 0 6.48005 0 6.4054C0 6.33076 0.0156691 6.25694 0.0459936 6.18874C0.0666603 6.13807 0.633994 4.8834 1.88933 3.62807C2.39085 3.12423 2.95031 2.68159 3.556 2.3094L2.272 0.896733C2.22391 0.845075 2.18655 0.784387 2.16209 0.718185C2.13763 0.651984 2.12655 0.581585 2.12949 0.51107C2.13244 0.440555 2.14935 0.371326 2.17925 0.307396C2.20915 0.243465 2.25144 0.186104 2.30367 0.138638C2.3559 0.0911723 2.41703 0.0545448 2.48352 0.0308787C2.55001 0.00721262 2.62054 -0.00302124 2.69101 0.000770155C2.76149 0.00456155 2.83051 0.0223029 2.89408 0.0529658C2.95764 0.0836287 3.01449 0.126603 3.06133 0.179399L13.728 11.9127ZM9.362 8.69607L5.84933 4.8294C5.48738 5.32533 5.30764 5.93097 5.34046 6.54407C5.37329 7.15716 5.61667 7.74014 6.02951 8.19459C6.44235 8.64904 6.99936 8.94711 7.6065 9.03847C8.21363 9.12983 8.8337 9.00889 9.362 8.69607Z" fill="#E6E6E6"/>
</svg>
