<svg width="16" height="13" viewBox="0 0 16 13" fill="none" xmlns="http://www.w3.org/2000/svg">
<path d="M3.06133 0.179399C3.01449 0.126603 2.95764 0.0836287 2.89408 0.0529658C2.83051 0.0223029 2.76149 0.00456155 2.69101 0.000770155C2.62054 -0.00302124 2.55001 0.00721262 2.48352 0.0308787C2.41703 0.0545448 2.3559 0.0911723 2.30367 0.138638C2.25144 0.186104 2.20915 0.243465 2.17925 0.307396C2.14935 0.371326 2.13244 0.440555 2.12949 0.51107C2.12655 0.581585 2.13763 0.651984 2.16209 0.718185C2.18655 0.784387 2.22391 0.845075 2.272 0.896733L3.55466 2.30807C1.13333 3.79407 0.0919937 6.08474 0.0459936 6.18874C0.0156691 6.25694 0 6.33076 0 6.4054C0 6.48005 0.0156691 6.55386 0.0459936 6.62207C0.069327 6.67474 0.633994 7.92674 1.88933 9.18207C3.562 10.8541 5.67466 11.7381 8 11.7381C9.19508 11.7449 10.3781 11.4988 11.4713 11.0161L12.938 12.6301C12.9848 12.6829 13.0417 12.7258 13.1053 12.7565C13.1688 12.7872 13.2378 12.8049 13.3083 12.8087C13.3788 12.8125 13.4493 12.8023 13.5158 12.7786C13.5823 12.7549 13.6434 12.7183 13.6957 12.6708C13.7479 12.6234 13.7902 12.566 13.8201 12.5021C13.85 12.4381 13.8669 12.3689 13.8698 12.2984C13.8728 12.2279 13.8617 12.1575 13.8372 12.0913C13.8128 12.0251 13.7754 11.9644 13.7273 11.9127L3.06133 0.179399ZM6.21667 5.2354L8.99467 8.29207C8.57633 8.51215 8.09674 8.58706 7.63122 8.50503C7.1657 8.423 6.7406 8.18869 6.42268 7.83888C6.10476 7.48906 5.91202 7.04357 5.87473 6.57235C5.83745 6.10112 5.95772 5.63086 6.21667 5.2354ZM8 10.6714C5.948 10.6714 4.15533 9.92541 2.67133 8.45474C2.06223 7.84937 1.54417 7.15884 1.13333 6.40474C1.44599 5.81874 2.44399 4.17874 4.29 3.11273L5.49 4.4294C5.02542 5.02441 4.78615 5.76449 4.81449 6.51885C4.84282 7.27321 5.13692 7.99326 5.64482 8.55174C6.15272 9.11022 6.8417 9.47117 7.58999 9.57078C8.33828 9.67038 9.09769 9.50224 9.734 9.09607L10.716 10.1761C9.84933 10.5086 8.92825 10.6766 8 10.6714ZM8.4 4.3094C8.26103 4.28288 8.13828 4.20224 8.05877 4.08522C7.97925 3.96819 7.94948 3.82438 7.976 3.6854C8.00252 3.54643 8.08316 3.42368 8.20019 3.34417C8.31721 3.26465 8.46103 3.23488 8.6 3.2614C9.27974 3.39318 9.89866 3.74117 10.3645 4.25346C10.8303 4.76575 11.118 5.4149 11.1847 6.10407C11.1978 6.2449 11.1545 6.38519 11.0643 6.49409C10.974 6.60298 10.8442 6.67156 10.7033 6.68474C10.6867 6.68578 10.67 6.68578 10.6533 6.68474C10.52 6.68531 10.3913 6.63594 10.2926 6.54636C10.1939 6.45677 10.1323 6.33347 10.12 6.20074C10.0751 5.74233 9.88347 5.31066 9.57358 4.9699C9.26369 4.62914 8.85209 4.39749 8.4 4.3094ZM15.952 6.62207C15.924 6.68474 15.2487 8.18007 13.728 9.54207C13.676 9.59009 13.615 9.6273 13.5486 9.65151C13.4821 9.67573 13.4115 9.68648 13.3408 9.68313C13.2701 9.67978 13.2008 9.66241 13.1369 9.63202C13.073 9.60162 13.0158 9.55882 12.9686 9.50611C12.9214 9.45339 12.8852 9.39181 12.8621 9.32495C12.8389 9.2581 12.8293 9.18731 12.8338 9.1167C12.8382 9.04609 12.8567 8.97707 12.8881 8.91367C12.9195 8.85027 12.9632 8.79375 13.0167 8.74741C13.7627 8.07712 14.3894 7.28496 14.87 6.40474C14.4582 5.64995 13.939 4.95896 13.3287 4.3534C11.8447 2.88407 10.052 2.13807 8 2.13807C7.56764 2.13755 7.13596 2.17256 6.70933 2.24273C6.63995 2.255 6.56883 2.2534 6.50008 2.23803C6.43132 2.22266 6.36629 2.19381 6.30874 2.15316C6.2512 2.11251 6.20228 2.06087 6.16481 2.0012C6.12734 1.94154 6.10206 1.87504 6.09043 1.80555C6.07881 1.73606 6.08107 1.66496 6.09708 1.59635C6.11309 1.52774 6.14253 1.46298 6.18371 1.40581C6.22489 1.34865 6.27699 1.30021 6.337 1.26329C6.39701 1.22637 6.46374 1.20171 6.53333 1.19073C7.01811 1.11069 7.50866 1.07078 8 1.0714C10.3253 1.0714 12.438 1.9554 14.1107 3.62807C15.366 4.8834 15.9307 6.13607 15.954 6.18874C15.9843 6.25694 16 6.33076 16 6.4054C16 6.48005 15.9843 6.55386 15.954 6.62207H15.952Z" fill="#E6E6E6"/>
</svg>
