<svg width="16" height="11" viewBox="0 0 16 11" fill="none" xmlns="http://www.w3.org/2000/svg">
<path d="M15.954 5.11734C15.9307 5.06467 15.366 3.812 14.1107 2.55667C12.438 0.884001 10.3253 0 8 0C5.67466 0 3.562 0.884001 1.88933 2.55667C0.633994 3.812 0.0666603 5.06667 0.0459936 5.11734C0.0156691 5.18554 0 5.25936 0 5.334C0 5.40865 0.0156691 5.48246 0.0459936 5.55067C0.069327 5.60334 0.633994 6.85534 1.88933 8.11067C3.562 9.78267 5.67466 10.6667 8 10.6667C10.3253 10.6667 12.438 9.78267 14.1107 8.11067C15.366 6.85534 15.9307 5.60334 15.954 5.55067C15.9843 5.48246 16 5.40865 16 5.334C16 5.25936 15.9843 5.18554 15.954 5.11734ZM8 8.00001C7.47258 8.00001 6.95701 7.84361 6.51848 7.55059C6.07995 7.25757 5.73815 6.8411 5.53632 6.35383C5.33449 5.86656 5.28168 5.33038 5.38457 4.8131C5.48746 4.29581 5.74144 3.82066 6.11438 3.44772C6.48732 3.07478 6.96247 2.8208 7.47976 2.71791C7.99704 2.61501 8.53322 2.66782 9.02049 2.86966C9.50776 3.07149 9.92424 3.41328 10.2173 3.85182C10.5103 4.29035 10.6667 4.80592 10.6667 5.33334C10.6667 6.04058 10.3857 6.71886 9.88562 7.21896C9.38552 7.71905 8.70724 8.00001 8 8.00001Z" fill="#E6E6E6"/>
</svg>
