<svg width="16" height="11" viewBox="0 0 16 11" fill="none" xmlns="http://www.w3.org/2000/svg">
<path d="M15.954 5.11734C15.9307 5.06467 15.366 3.812 14.1107 2.55667C12.438 0.884001 10.3253 0 8 0C5.67466 0 3.562 0.884001 1.88933 2.55667C0.633994 3.812 0.0666603 5.06667 0.0459936 5.11734C0.0156691 5.18554 0 5.25936 0 5.334C0 5.40865 0.0156691 5.48246 0.0459936 5.55067C0.069327 5.60334 0.633994 6.85534 1.88933 8.11067C3.562 9.78267 5.67466 10.6667 8 10.6667C10.3253 10.6667 12.438 9.78267 14.1107 8.11067C15.366 6.85534 15.9307 5.60334 15.954 5.55067C15.9843 5.48246 16 5.40865 16 5.334C16 5.25936 15.9843 5.18554 15.954 5.11734ZM8 9.60001C5.948 9.60001 4.15533 8.85401 2.67133 7.38334C2.06245 6.77778 1.54441 6.08729 1.13333 5.33334C1.54425 4.57928 2.0623 3.88877 2.67133 3.28334C4.15533 1.81267 5.948 1.06667 8 1.06667C10.052 1.06667 11.8447 1.81267 13.3287 3.28334C13.9387 3.88867 14.4579 4.57917 14.87 5.33334C14.3893 6.23067 12.2953 9.60001 8 9.60001ZM8 2.13333C7.3671 2.13333 6.74841 2.32101 6.22217 2.67263C5.69594 3.02425 5.28578 3.52403 5.04358 4.10875C4.80138 4.69347 4.73801 5.33689 4.86148 5.95763C4.98496 6.57837 5.28973 7.14855 5.73726 7.59608C6.18478 8.04361 6.75497 8.34838 7.37571 8.47185C7.99645 8.59533 8.63986 8.53195 9.22459 8.28975C9.80931 8.04755 10.3091 7.6374 10.6607 7.11116C11.0123 6.58493 11.2 5.96624 11.2 5.33334C11.1991 4.48491 10.8617 3.67149 10.2618 3.07157C9.66184 2.47164 8.84842 2.13422 8 2.13333ZM8 7.46667C7.57807 7.46667 7.16561 7.34155 6.81478 7.10714C6.46396 6.87273 6.19052 6.53954 6.02906 6.14973C5.86759 5.75991 5.82534 5.33097 5.90766 4.91714C5.98997 4.50332 6.19315 4.12319 6.4915 3.82484C6.78986 3.52649 7.16998 3.32331 7.58381 3.24099C7.99763 3.15868 8.42658 3.20093 8.81639 3.36239C9.20621 3.52386 9.53939 3.79729 9.7738 4.14812C10.0082 4.49895 10.1333 4.9114 10.1333 5.33334C10.1333 5.89913 9.90857 6.44175 9.50849 6.84183C9.10842 7.24191 8.56579 7.46667 8 7.46667Z" fill="#E6E6E6"/>
</svg>
