<svg width="21" height="16" viewBox="0 0 21 16" fill="none" xmlns="http://www.w3.org/2000/svg">
<path d="M0 2.94674C0 2.72337 0.0887327 2.50915 0.246678 2.35121C0.404623 2.19326 0.618842 2.10453 0.84221 2.10453H4.75533C4.93686 1.49643 5.3098 0.963149 5.8187 0.583979C6.32759 0.20481 6.94527 0 7.57989 0C8.21451 0 8.83219 0.20481 9.34108 0.583979C9.84998 0.963149 10.2229 1.49643 10.4045 2.10453H19.3708C19.5942 2.10453 19.8084 2.19326 19.9664 2.35121C20.1243 2.50915 20.213 2.72337 20.213 2.94674C20.213 3.17011 20.1243 3.38433 19.9664 3.54227C19.8084 3.70022 19.5942 3.78895 19.3708 3.78895H10.4045C10.2229 4.39705 9.84998 4.93033 9.34108 5.3095C8.83219 5.68867 8.21451 5.89348 7.57989 5.89348C6.94527 5.89348 6.32759 5.68867 5.8187 5.3095C5.3098 4.93033 4.93686 4.39705 4.75533 3.78895H0.84221C0.618842 3.78895 0.404623 3.70022 0.246678 3.54227C0.0887327 3.38433 0 3.17011 0 2.94674ZM19.3708 12.2111H17.1421C16.9606 11.6029 16.5877 11.0697 16.0788 10.6905C15.5699 10.3113 14.9522 10.1065 14.3176 10.1065C13.6829 10.1065 13.0653 10.3113 12.5564 10.6905C12.0475 11.0697 11.6745 11.6029 11.493 12.2111H0.84221C0.618842 12.2111 0.404623 12.2998 0.246678 12.4577C0.0887327 12.6157 0 12.8299 0 13.0533C0 13.2766 0.0887327 13.4908 0.246678 13.6488C0.404623 13.8067 0.618842 13.8955 0.84221 13.8955H11.493C11.6745 14.5036 12.0475 15.0369 12.5564 15.416C13.0653 15.7952 13.6829 16 14.3176 16C14.9522 16 15.5699 15.7952 16.0788 15.416C16.5877 15.0369 16.9606 14.5036 17.1421 13.8955H19.3708C19.5942 13.8955 19.8084 13.8067 19.9664 13.6488C20.1243 13.4908 20.213 13.2766 20.213 13.0533C20.213 12.8299 20.1243 12.6157 19.9664 12.4577C19.8084 12.2998 19.5942 12.2111 19.3708 12.2111Z" fill="#E6E6E6"/>
</svg>
