<svg width="20" height="16" viewBox="0 0 20 16" fill="none" xmlns="http://www.w3.org/2000/svg">
<path d="M0.799373 4.00314H4.09679C4.27289 4.69093 4.6729 5.30055 5.23374 5.73589C5.79459 6.17123 6.48438 6.40752 7.19436 6.40752C7.90434 6.40752 8.59412 6.17123 9.15497 5.73589C9.71582 5.30055 10.1158 4.69093 10.2919 4.00314H18.3856C18.5976 4.00314 18.8009 3.91892 18.9508 3.769C19.1007 3.61909 19.185 3.41577 19.185 3.20376C19.185 2.99176 19.1007 2.78843 18.9508 2.63852C18.8009 2.48861 18.5976 2.40439 18.3856 2.40439H10.2919C10.1158 1.7166 9.71582 1.10698 9.15497 0.671636C8.59412 0.236296 7.90434 0 7.19436 0C6.48438 0 5.79459 0.236296 5.23374 0.671636C4.6729 1.10698 4.27289 1.7166 4.09679 2.40439H0.799373C0.587366 2.40439 0.384043 2.48861 0.234131 2.63852C0.0842196 2.78843 0 2.99176 0 3.20376C0 3.41577 0.0842196 3.61909 0.234131 3.769C0.384043 3.91892 0.587366 4.00314 0.799373 4.00314ZM7.19436 1.60502C7.51056 1.60502 7.81966 1.69878 8.08257 1.87445C8.34549 2.05013 8.5504 2.29982 8.67141 2.59195C8.79241 2.88408 8.82407 3.20554 8.76238 3.51566C8.7007 3.82579 8.54843 4.11066 8.32484 4.33425C8.10125 4.55783 7.81638 4.7101 7.50626 4.77179C7.19613 4.83348 6.87468 4.80182 6.58254 4.68081C6.29041 4.55981 6.04072 4.35489 5.86505 4.09198C5.68938 3.82907 5.59561 3.51996 5.59561 3.20376C5.59561 2.77975 5.76405 2.3731 6.06387 2.07328C6.3637 1.77346 6.77034 1.60502 7.19436 1.60502ZM18.3856 11.9969H16.6869C16.5108 11.3091 16.1108 10.6995 15.55 10.2641C14.9891 9.82877 14.2993 9.59248 13.5893 9.59248C12.8794 9.59248 12.1896 9.82877 11.6287 10.2641C11.0679 10.6995 10.6679 11.3091 10.4918 11.9969H0.799373C0.587366 11.9969 0.384043 12.0811 0.234131 12.231C0.0842196 12.3809 0 12.5842 0 12.7962C0 13.0082 0.0842196 13.2116 0.234131 13.3615C0.384043 13.5114 0.587366 13.5956 0.799373 13.5956H10.4918C10.6679 14.2834 11.0679 14.893 11.6287 15.3284C12.1896 15.7637 12.8794 16 13.5893 16C14.2993 16 14.9891 15.7637 15.55 15.3284C16.1108 14.893 16.5108 14.2834 16.6869 13.5956H18.3856C18.5976 13.5956 18.8009 13.5114 18.9508 13.3615C19.1007 13.2116 19.185 13.0082 19.185 12.7962C19.185 12.5842 19.1007 12.3809 18.9508 12.231C18.8009 12.0811 18.5976 11.9969 18.3856 11.9969ZM13.5893 14.395C13.2731 14.395 12.964 14.3012 12.7011 14.1255C12.4382 13.9499 12.2333 13.7002 12.1123 13.4081C11.9913 13.1159 11.9596 12.7945 12.0213 12.4843C12.083 12.1742 12.2353 11.8893 12.4589 11.6658C12.6824 11.4422 12.9673 11.2899 13.2774 11.2282C13.5876 11.1665 13.909 11.1982 14.2012 11.3192C14.4933 11.4402 14.743 11.6451 14.9187 11.908C15.0943 12.1709 15.1881 12.48 15.1881 12.7962C15.1881 13.2203 15.0196 13.6269 14.7198 13.9267C14.42 14.2265 14.0134 14.395 13.5893 14.395Z" fill="#E6E6E6"/>
</svg>
