<svg width="16" height="16" viewBox="0 0 16 16" fill="none" xmlns="http://www.w3.org/2000/svg">
<path d="M0.22081 1.43934C0.151955 1.49902 0.0966383 1.57272 0.0585586 1.6555C0.0204788 1.73828 0.000514164 1.82824 0 1.91936V15.36C0 15.5297 0.0674316 15.6925 0.18746 15.8125C0.307489 15.9326 0.470283 16 0.640029 16C0.809775 16 0.972569 15.9326 1.0926 15.8125C1.21263 15.6925 1.28006 15.5297 1.28006 15.36V11.8214C3.42335 10.1285 5.26984 11.0414 7.39633 12.0942C8.70839 12.7431 10.1213 13.4423 11.6365 13.4423C12.751 13.4423 13.9198 13.0623 15.1423 12.0022C15.2111 11.9425 15.2665 11.8688 15.3045 11.7861C15.3426 11.7033 15.3626 11.6133 15.3631 11.5222V1.91936C15.3628 1.79651 15.3272 1.67634 15.2604 1.5732C15.1937 1.47006 15.0987 1.3883 14.9868 1.33769C14.8748 1.28707 14.7507 1.26975 14.6292 1.28777C14.5076 1.3058 14.3939 1.35841 14.3014 1.43934C12.0613 3.37783 10.1637 2.43859 7.96436 1.34974C5.68586 0.220086 3.10254 -1.05757 0.22081 1.43934ZM14.0806 11.2198C11.9373 12.9127 10.0909 11.999 7.96436 10.947C5.96427 9.95893 3.73937 8.85648 1.28006 10.2749V2.22258C3.42335 0.5297 5.26984 1.44254 7.39633 2.49459C9.39643 3.48263 11.6221 4.58508 14.0806 3.16662V11.2198Z" fill="#E6E6E6"/>
</svg>
