<svg width="16" height="16" viewBox="0 0 16 16" fill="none" xmlns="http://www.w3.org/2000/svg">
<path d="M15.3624 1.91781V11.5193C15.3619 11.6104 15.3419 11.7004 15.3038 11.7832C15.2657 11.866 15.2104 11.9397 15.1416 11.9994C13.919 13.0579 12.75 13.4396 11.6354 13.4396C10.1224 13.4396 8.70935 12.7403 7.39475 12.0914C5.27042 11.0392 3.42373 10.1279 1.2802 11.821V15.3599C1.2802 15.5297 1.21276 15.6925 1.09272 15.8125C0.972676 15.9326 0.809864 16 0.640099 16C0.470334 16 0.307523 15.9326 0.187481 15.8125C0.067439 15.6925 0 15.5297 0 15.3599V1.91781C0.000613741 1.82662 0.0207054 1.73662 0.0589291 1.65382C0.0971529 1.57103 0.152626 1.49736 0.221634 1.43774C3.10208 -1.05705 5.68728 0.220751 7.96604 1.34813C10.1616 2.4347 12.0651 3.37404 14.303 1.43774C14.3955 1.35756 14.5091 1.30558 14.6302 1.28797C14.7514 1.27036 14.875 1.28785 14.9865 1.33838C15.098 1.38891 15.1927 1.47035 15.2593 1.57305C15.3259 1.67575 15.3617 1.7954 15.3624 1.91781Z" fill="#E6E6E6"/>
</svg>
