<svg width="16" height="16" viewBox="0 0 16 16" fill="none" xmlns="http://www.w3.org/2000/svg">
<path d="M15.2174 4.5491C16.0705 6.33338 16.2325 8.37043 15.672 10.2671C15.1116 12.1638 13.8684 13.7856 12.1825 14.8196C10.4965 15.8536 8.48734 16.2264 6.54268 15.8661C4.59803 15.5058 2.85575 14.438 1.65212 12.8687C0.448484 11.2994 -0.131181 9.33983 0.0249959 7.36825C0.181173 5.39668 1.06212 3.55284 2.49782 2.1926C3.93352 0.832356 5.82218 0.0521349 7.79931 0.00251999C9.77644 -0.0470949 11.7019 0.637413 13.204 1.92393L14.9461 0.180997C15.0615 0.0656372 15.218 0.00082863 15.3811 0.00082863C15.5443 0.00082863 15.7007 0.0656372 15.8161 0.180997C15.9314 0.296357 15.9962 0.452819 15.9962 0.615963C15.9962 0.779107 15.9314 0.935569 15.8161 1.05093L8.43857 8.42844C8.32321 8.5438 8.16674 8.60861 8.0036 8.60861C7.84046 8.60861 7.68399 8.5438 7.56863 8.42844C7.45327 8.31308 7.38847 8.15662 7.38847 7.99347C7.38847 7.83033 7.45327 7.67387 7.56863 7.55851L9.69889 5.42825C9.12156 5.04643 8.43227 4.87063 7.7426 4.92931C7.05292 4.98798 6.40324 5.27771 5.89871 5.75157C5.39419 6.22544 5.06436 6.85571 4.96262 7.54036C4.86087 8.225 4.99318 8.92395 5.3381 9.52405C5.68303 10.1241 6.22039 10.5903 6.8632 10.847C7.50601 11.1037 8.21664 11.1359 8.88004 10.9385C9.54345 10.741 10.1208 10.3254 10.5186 9.75904C10.9165 9.19264 11.1115 8.50854 11.0722 7.81749C11.0676 7.73675 11.079 7.65591 11.1057 7.57959C11.1324 7.50326 11.1739 7.43294 11.2278 7.37264C11.2817 7.31234 11.3469 7.26324 11.4198 7.22815C11.4926 7.19306 11.5717 7.17266 11.6524 7.16812C11.8154 7.15894 11.9755 7.21492 12.0972 7.32373C12.1575 7.37761 12.2066 7.44283 12.2417 7.51569C12.2768 7.58854 12.2972 7.66759 12.3018 7.74833C12.3578 8.72644 12.0784 9.69441 11.5098 10.4922C10.9412 11.2901 10.1174 11.87 9.17452 12.1362C8.23165 12.4024 7.22618 12.3389 6.32429 11.9562C5.42239 11.5735 4.67807 10.8946 4.21434 10.0315C3.75061 9.1685 3.59522 8.17308 3.77387 7.20978C3.95252 6.24649 4.45451 5.37298 5.19687 4.73363C5.93923 4.09429 6.87751 3.72738 7.85665 3.69355C8.83579 3.65971 9.79717 3.96098 10.5819 4.54756L12.3302 2.79925C11.049 1.7355 9.41991 1.18262 7.75588 1.2468C6.09185 1.31098 4.51021 1.98769 3.31472 3.14696C2.11923 4.30623 1.3942 5.86632 1.27888 7.52758C1.16356 9.18885 1.66607 10.8342 2.68992 12.1475C3.71376 13.4608 5.18673 14.3496 6.82593 14.6431C8.46513 14.9365 10.155 14.6141 11.5709 13.7375C12.9868 12.861 14.029 11.4923 14.4972 9.89421C14.9654 8.29613 14.8267 6.5814 14.1077 5.07936C14.0374 4.9322 14.0284 4.76314 14.0828 4.60936C14.1371 4.45559 14.2503 4.32969 14.3974 4.25938C14.5446 4.18906 14.7137 4.18008 14.8674 4.23442C15.0212 4.28875 15.1471 4.40194 15.2174 4.5491Z" fill="#E6E6E6"/>
</svg>
