<svg width="20" height="20" viewBox="0 0 20 20" fill="none" xmlns="http://www.w3.org/2000/svg">
<path d="M10.2026 8.17969V12.0519H15.6951C15.454 13.2972 14.7302 14.3516 13.6447 15.0606L16.9569 17.5785C18.8867 15.8333 20.0001 13.27 20.0001 10.225C20.0001 9.51598 19.9351 8.83419 19.8145 8.1798L10.2026 8.17969Z" fill="#4285F4"/>
<path d="M4.48747 11.9062L3.74044 12.4665L1.09619 14.4844C2.77549 17.7475 6.21734 20.0018 10.2068 20.0018C12.9623 20.0018 15.2725 19.111 16.9611 17.584L13.6489 15.0661C12.7396 15.666 11.5799 16.0297 10.2068 16.0297C7.55334 16.0297 5.29888 14.2754 4.49164 11.912L4.48747 11.9062Z" fill="#34A853"/>
<path d="M1.09471 5.51562C0.398909 6.86084 0 8.37883 0 9.99677C0 11.6147 0.398909 13.1327 1.09471 14.4779C1.09471 14.4869 4.49049 11.8964 4.49049 11.8964C4.28638 11.2965 4.16573 10.6603 4.16573 9.99666C4.16573 9.33303 4.28638 8.69679 4.49049 8.09688L1.09471 5.51562Z" fill="#FBBC05"/>
<path d="M10.207 3.98127C11.7101 3.98127 13.0461 4.49028 14.113 5.47197L17.0355 2.60877C15.2634 0.990835 12.9626 0 10.207 0C6.21755 0 2.77549 2.24514 1.09619 5.51743L4.49186 8.0989C5.29899 5.73556 7.55355 3.98127 10.207 3.98127Z" fill="#EA4335"/>
</svg>
