<svg width="16" height="12" viewBox="0 0 16 12" fill="none" xmlns="http://www.w3.org/2000/svg">
<path d="M3.74077 6.65739C3.74257 6.69352 3.73701 6.72964 3.72442 6.76355C3.71183 6.79746 3.69248 6.82846 3.66753 6.85466C3.64258 6.88085 3.61256 6.9017 3.5793 6.91593C3.54605 6.93016 3.51024 6.93747 3.47407 6.93743H0.532365C0.411974 6.93761 0.295062 6.89706 0.20064 6.82237C0.106218 6.74768 0.03984 6.64324 0.0123006 6.52604C-0.00484762 6.44582 -0.0040571 6.36281 0.0146155 6.28293C0.0332882 6.20305 0.0693815 6.12829 0.120314 6.06398C0.590934 5.43991 1.21533 4.94853 1.93254 4.63781C1.61765 4.3507 1.37614 3.99233 1.22824 3.5927C1.08033 3.19307 1.03034 2.76381 1.08244 2.34089C1.13455 1.91796 1.28724 1.51368 1.52772 1.16189C1.7682 0.810112 2.08947 0.521073 2.46463 0.318988C2.83978 0.116902 3.2579 0.00765188 3.68396 0.00038762C4.11003 -0.00687664 4.53163 0.0880563 4.91345 0.277236C5.29528 0.466415 5.62622 0.744333 5.87855 1.08771C6.13089 1.43109 6.29727 1.82994 6.36376 2.25084C6.37235 2.30744 6.36221 2.3653 6.33489 2.41561C6.30756 2.46592 6.26456 2.50592 6.21241 2.52954C5.47258 2.87157 4.84601 3.41808 4.40665 4.10459C3.96729 4.7911 3.73347 5.58896 3.73276 6.40403C3.73276 6.48937 3.73276 6.57338 3.74077 6.65739ZM15.8756 6.06332C15.4061 5.43995 14.7831 4.94883 14.0674 4.63781C14.3823 4.3507 14.6238 3.99233 14.7717 3.5927C14.9196 3.19307 14.9696 2.76381 14.9175 2.34089C14.8654 1.91796 14.7127 1.51368 14.4722 1.16189C14.2317 0.810112 13.9105 0.521073 13.5353 0.318988C13.1601 0.116902 12.742 0.00765188 12.316 0.00038762C11.8899 -0.00687664 11.4683 0.0880563 11.0865 0.277236C10.7046 0.466415 10.3737 0.744333 10.1214 1.08771C9.86904 1.43109 9.70266 1.82994 9.63617 2.25084C9.62758 2.30744 9.63772 2.3653 9.66504 2.41561C9.69236 2.46592 9.73537 2.50592 9.78752 2.52954C10.5274 2.87157 11.1539 3.41808 11.5933 4.10459C12.0326 4.7911 12.2665 5.58896 12.2672 6.40403C12.2672 6.48937 12.2672 6.57338 12.2592 6.65739C12.2574 6.69352 12.2629 6.72964 12.2755 6.76355C12.2881 6.79746 12.3075 6.82846 12.3324 6.85466C12.3573 6.88085 12.3874 6.9017 12.4206 6.91593C12.4539 6.93016 12.4897 6.93747 12.5259 6.93743H15.4676C15.588 6.93761 15.7049 6.89706 15.7993 6.82237C15.8937 6.74768 15.9601 6.64324 15.9876 6.52604C16.0049 6.44568 16.0041 6.36248 15.9853 6.28246C15.9665 6.20245 15.9302 6.1276 15.8789 6.06332H15.8756ZM9.94154 8.94234C10.4726 8.5356 10.8629 7.97266 11.0576 7.33265C11.2522 6.69263 11.2414 6.00771 11.0267 5.37416C10.8119 4.7406 10.4041 4.19026 9.8604 3.80048C9.31673 3.4107 8.66459 3.20108 7.99563 3.20108C7.32667 3.20108 6.67453 3.4107 6.13086 3.80048C5.58719 4.19026 5.17933 4.7406 4.9646 5.37416C4.74986 6.00771 4.73905 6.69263 4.93369 7.33265C5.12833 7.97266 5.51862 8.5356 6.04972 8.94234C5.10729 9.35068 4.32035 10.05 3.80411 10.9379C3.75729 11.019 3.73264 11.111 3.73265 11.2047C3.73265 11.2983 3.75731 11.3903 3.80414 11.4714C3.85097 11.5525 3.91832 11.6198 3.99942 11.6666C4.08053 11.7134 4.17252 11.738 4.26616 11.738H11.7338C11.8274 11.738 11.9194 11.7134 12.0005 11.6666C12.0816 11.6198 12.149 11.5525 12.1958 11.4714C12.2426 11.3903 12.2673 11.2983 12.2673 11.2047C12.2673 11.111 12.2426 11.019 12.1958 10.9379C11.6785 10.0494 10.8901 9.35005 9.94621 8.94234H9.94154Z" fill="#E6E6E6"/>
</svg>
