<svg width="16" height="12" viewBox="0 0 16 12" fill="none" xmlns="http://www.w3.org/2000/svg">
<path d="M15.7851 6.82532C15.7291 6.86734 15.6653 6.89791 15.5975 6.91529C15.5296 6.93267 15.459 6.93652 15.3897 6.92662C15.3204 6.91671 15.2537 6.89325 15.1934 6.85757C15.1332 6.82189 15.0805 6.77469 15.0385 6.71867C14.7171 6.28662 14.2987 5.93608 13.8171 5.69526C13.3354 5.45444 12.804 5.33007 12.2655 5.33216C12.1606 5.33215 12.0581 5.30122 11.9707 5.24324C11.8833 5.18527 11.815 5.10281 11.7742 5.00619C11.7465 4.94058 11.7323 4.87009 11.7323 4.79888C11.7323 4.72767 11.7465 4.65718 11.7742 4.59157C11.815 4.49496 11.8833 4.4125 11.9707 4.35453C12.0581 4.29655 12.1606 4.26562 12.2655 4.26561C12.5647 4.26558 12.8579 4.18165 13.1118 4.02333C13.3657 3.86502 13.5701 3.63867 13.7018 3.37001C13.8335 3.10134 13.8873 2.80112 13.8569 2.50345C13.8265 2.20578 13.7133 1.92259 13.5301 1.68605C13.3468 1.44951 13.1009 1.2691 12.8203 1.1653C12.5397 1.06151 12.2355 1.0385 11.9425 1.09889C11.6494 1.15928 11.3792 1.30064 11.1624 1.50692C10.9457 1.71319 10.7911 1.97612 10.7163 2.26584C10.6988 2.33368 10.6681 2.39741 10.626 2.45338C10.5838 2.50936 10.5311 2.55649 10.4707 2.59209C10.4104 2.62768 10.3436 2.65103 10.2742 2.66082C10.2049 2.67061 10.1342 2.66663 10.0664 2.64913C9.99856 2.63162 9.93483 2.60092 9.87885 2.55878C9.82287 2.51665 9.77574 2.4639 9.74015 2.40354C9.70456 2.34319 9.6812 2.27642 9.67142 2.20704C9.66163 2.13767 9.6656 2.06704 9.68311 1.9992C9.78694 1.59745 9.98309 1.22548 10.256 0.912889C10.5289 0.600294 10.8709 0.3557 11.255 0.198569C11.639 0.0414385 12.0544 -0.0238914 12.4682 0.00777734C12.8819 0.0394461 13.2825 0.16724 13.6382 0.380989C13.9938 0.594739 14.2947 0.888545 14.5168 1.23903C14.7389 1.58952 14.8762 1.98701 14.9177 2.39987C14.9591 2.81274 14.9037 3.22959 14.7557 3.61725C14.6077 4.00491 14.3713 4.35269 14.0653 4.6329C14.7904 4.94687 15.4208 5.44509 15.8937 6.07807C15.9358 6.13424 15.9663 6.19814 15.9836 6.26612C16.0008 6.33411 16.0045 6.40483 15.9945 6.47424C15.9844 6.54365 15.9607 6.61039 15.9247 6.67064C15.8888 6.73088 15.8414 6.78345 15.7851 6.82532ZM12.1935 10.9315C12.2321 10.9922 12.258 11.0601 12.2697 11.1311C12.2813 11.202 12.2785 11.2746 12.2614 11.3445C12.2443 11.4143 12.2132 11.48 12.1701 11.5376C12.1269 11.5951 12.0726 11.6433 12.0103 11.6793C11.9481 11.7153 11.8792 11.7383 11.8078 11.747C11.7364 11.7557 11.6639 11.7498 11.5949 11.7298C11.5258 11.7097 11.4615 11.6759 11.4058 11.6304C11.3502 11.5849 11.3043 11.5285 11.2709 11.4648C10.935 10.896 10.4566 10.4246 9.88284 10.0971C9.30911 9.76961 8.65991 9.59737 7.9993 9.59737C7.33869 9.59737 6.68949 9.76961 6.11576 10.0971C5.54203 10.4246 5.0636 10.896 4.72767 11.4648C4.69433 11.5285 4.64845 11.5849 4.59277 11.6304C4.5371 11.6759 4.4728 11.7097 4.40372 11.7298C4.33465 11.7498 4.26224 11.7557 4.19084 11.747C4.11944 11.7383 4.05054 11.7153 3.98827 11.6793C3.926 11.6433 3.87166 11.5951 3.82851 11.5376C3.78536 11.48 3.75429 11.4143 3.73718 11.3445C3.72007 11.2746 3.71727 11.202 3.72894 11.1311C3.74061 11.0601 3.76652 10.9922 3.80511 10.9315C4.32211 10.0432 5.11042 9.34415 6.05418 8.93708C5.52313 8.53049 5.13284 7.9677 4.93818 7.32782C4.74351 6.68794 4.75426 6.00314 4.96892 5.36969C5.18357 4.73624 5.59133 4.18597 6.13489 3.79625C6.67844 3.40652 7.33046 3.19693 7.9993 3.19693C8.66813 3.19693 9.32015 3.40652 9.86371 3.79625C10.4073 4.18597 10.815 4.73624 11.0297 5.36969C11.2443 6.00314 11.2551 6.68794 11.0604 7.32782C10.8658 7.9677 10.4755 8.53049 9.94441 8.93708C10.8882 9.34415 11.6765 10.0432 12.1935 10.9315ZM7.9993 8.5318C8.42118 8.5318 8.8336 8.40669 9.18438 8.17231C9.53517 7.93792 9.80857 7.60477 9.97002 7.215C10.1315 6.82523 10.1737 6.39634 10.0914 5.98256C10.0091 5.56878 9.80594 5.1887 9.50762 4.89038C9.20931 4.59206 8.82922 4.3889 8.41544 4.3066C8.00167 4.22429 7.57277 4.26653 7.183 4.42798C6.79323 4.58943 6.46008 4.86284 6.2257 5.21362C5.99131 5.56441 5.86621 5.97682 5.86621 6.3987C5.86621 6.96444 6.09094 7.507 6.49097 7.90703C6.89101 8.30706 7.43357 8.5318 7.9993 8.5318ZM4.26639 4.79888C4.26639 4.65745 4.2102 4.52181 4.11019 4.4218C4.01019 4.32179 3.87455 4.26561 3.73311 4.26561C3.4339 4.26558 3.14069 4.18165 2.88679 4.02333C2.63289 3.86502 2.42847 3.63867 2.29676 3.37001C2.16505 3.10134 2.11133 2.80112 2.14169 2.50345C2.17205 2.20578 2.28529 1.92259 2.46853 1.68605C2.65177 1.44951 2.89767 1.2691 3.17831 1.1653C3.45894 1.06151 3.76306 1.0385 4.05612 1.09889C4.34918 1.15928 4.61943 1.30064 4.83617 1.50692C5.05292 1.71319 5.20747 1.97612 5.28227 2.26584C5.31763 2.40285 5.40597 2.5202 5.52785 2.59209C5.64974 2.66397 5.79519 2.68448 5.9322 2.64913C6.06921 2.61377 6.18657 2.52543 6.25845 2.40354C6.33033 2.28166 6.35085 2.13621 6.31549 1.9992C6.21166 1.59745 6.01551 1.22548 5.74263 0.912889C5.46975 0.600294 5.12768 0.3557 4.74363 0.198569C4.35959 0.0414385 3.94418 -0.0238914 3.53044 0.00777734C3.11671 0.0394461 2.71607 0.16724 2.36042 0.380989C2.00476 0.594739 1.7039 0.888545 1.48178 1.23903C1.25966 1.58952 1.1224 1.98701 1.08092 2.39987C1.03945 2.81274 1.09491 3.22959 1.24289 3.61725C1.39087 4.00491 1.62728 4.35269 1.93332 4.6329C1.20892 4.94716 0.579278 5.44536 0.106855 6.07807C0.0647927 6.1341 0.0341773 6.19786 0.0167567 6.26571C-0.000663987 6.33357 -0.0045488 6.40419 0.00532405 6.47355C0.0151969 6.54291 0.0386341 6.60964 0.0742974 6.66994C0.109961 6.73024 0.157152 6.78293 0.213176 6.82499C0.2692 6.86705 0.332961 6.89767 0.400817 6.91509C0.468673 6.93251 0.539296 6.93639 0.608654 6.92652C0.678012 6.91665 0.744745 6.89321 0.805045 6.85755C0.865345 6.82188 0.91803 6.77469 0.960092 6.71867C1.28151 6.28662 1.69988 5.93608 2.18153 5.69526C2.66317 5.45444 3.19463 5.33007 3.73311 5.33216C3.87455 5.33216 4.01019 5.27597 4.11019 5.17596C4.2102 5.07596 4.26639 4.94032 4.26639 4.79888Z" fill="#E6E6E6"/>
</svg>
