<svg width="19" height="16" viewBox="0 0 19 16" fill="none" xmlns="http://www.w3.org/2000/svg">
<path d="M4.66679 8.6669H1.33337C1.15655 8.6669 0.98698 8.59667 0.861952 8.47164C0.736925 8.34661 0.666685 8.17704 0.666685 8.00022C0.666685 7.8234 0.736925 7.65383 0.861952 7.5288C0.98698 7.40377 1.15655 7.33353 1.33337 7.33353H4.31012L5.44515 5.63015C5.50601 5.53871 5.58852 5.46371 5.68535 5.41184C5.78217 5.35997 5.89032 5.33283 6.00016 5.33283C6.11001 5.33283 6.21816 5.35997 6.31498 5.41184C6.41181 5.46371 6.49432 5.53871 6.55518 5.63015L8.6669 8.79691L9.44526 7.63021C9.50619 7.53888 9.58873 7.46402 9.68556 7.41226C9.78238 7.36051 9.89049 7.33346 10.0003 7.33353H12.0003C12.1771 7.33353 12.3467 7.40377 12.4717 7.5288C12.5968 7.65383 12.667 7.8234 12.667 8.00022C12.667 8.17704 12.5968 8.34661 12.4717 8.47164C12.3467 8.59667 12.1771 8.6669 12.0003 8.6669H10.357L9.22192 10.3703C9.16106 10.4617 9.07855 10.5367 8.98172 10.5886C8.8849 10.6405 8.77675 10.6676 8.6669 10.6676C8.55706 10.6676 8.44891 10.6405 8.35209 10.5886C8.25526 10.5367 8.17275 10.4617 8.11189 10.3703L6.00016 7.20186L5.22181 8.36856C5.16107 8.4602 5.07861 8.53539 4.98177 8.58744C4.88494 8.6395 4.77673 8.66679 4.66679 8.6669ZM13.5004 0C11.7795 0 10.2728 0.74002 9.33359 1.99089C8.3944 0.74002 6.88769 0 5.16681 0C3.79696 0.00154399 2.48366 0.546399 1.51503 1.51503C0.546399 2.48366 0.00154399 3.79696 0 5.16681V5.35431C0.0055255 5.53113 0.0810645 5.69851 0.209999 5.81963C0.338934 5.94075 0.510703 6.00569 0.687519 6.00016C0.864335 5.99464 1.03171 5.9191 1.15283 5.79017C1.27395 5.66123 1.3389 5.48946 1.33337 5.31265V5.16681C1.33469 4.15052 1.739 3.17624 2.45762 2.45762C3.17624 1.739 4.15052 1.33469 5.16681 1.33337C6.78769 1.33337 8.14856 2.19673 8.71691 3.58343C8.76713 3.70571 8.85258 3.81029 8.96239 3.8839C9.07219 3.9575 9.2014 3.9968 9.33359 3.9968C9.46578 3.9968 9.59499 3.9575 9.70479 3.8839C9.8146 3.81029 9.90004 3.70571 9.95027 3.58343C10.5186 2.19423 11.8795 1.33337 13.5004 1.33337C14.5167 1.33469 15.4909 1.739 16.2096 2.45762C16.9282 3.17624 17.3325 4.15052 17.3338 5.16681C17.3338 9.63443 10.8536 13.6795 9.33359 14.5671C8.43106 14.0412 5.78099 12.4003 3.77677 10.2161C3.71756 10.1515 3.64622 10.0993 3.56681 10.0623C3.4874 10.0253 3.40149 10.0043 3.31396 10.0005C3.22644 9.9967 3.13903 10.0102 3.05672 10.0402C2.97441 10.0702 2.89881 10.1161 2.83424 10.1753C2.76968 10.2345 2.7174 10.3058 2.68041 10.3852C2.64341 10.4646 2.62242 10.5506 2.61862 10.6381C2.61483 10.7256 2.62832 10.813 2.65831 10.8953C2.6883 10.9776 2.7342 11.0532 2.79341 11.1178C5.39098 13.9512 8.87108 15.8413 9.01775 15.9204C9.11483 15.9727 9.22335 16 9.33359 16C9.44383 16 9.55235 15.9727 9.64943 15.9204C10.0178 15.7221 18.6672 11.0003 18.6672 5.16681C18.6656 3.79696 18.1208 2.48366 17.1522 1.51503C16.1835 0.546399 14.8702 0.00154399 13.5004 0Z" fill="#E6E6E6"/>
</svg>
