<svg width="19" height="16" viewBox="0 0 19 16" fill="none" xmlns="http://www.w3.org/2000/svg">
<path d="M18.6711 5.16789C18.6711 11.0026 10.0199 15.7254 9.65144 15.9204C9.55434 15.9727 9.4458 16 9.33554 16C9.22527 16 9.11673 15.9727 9.01963 15.9204C8.74039 15.7704 3.72254 13.0289 1.29447 9.178C1.26315 9.12756 1.24587 9.06966 1.24441 9.01031C1.24295 8.95095 1.25737 8.89228 1.28618 8.84037C1.31498 8.78845 1.35713 8.74516 1.40827 8.71498C1.4594 8.68481 1.51766 8.66883 1.57704 8.66871H4.66777C4.77758 8.66878 4.88571 8.64173 4.98255 8.58997C5.07939 8.5382 5.16195 8.46332 5.2229 8.37197L6.00142 7.20503L8.11358 10.3724C8.19451 10.4938 8.31301 10.5853 8.45092 10.6329C8.58883 10.6805 8.73854 10.6815 8.87709 10.6358C9.02408 10.5861 9.14984 10.4879 9.23384 10.3574L10.3591 8.66871H12.0028C12.0942 8.66891 12.1847 8.65031 12.2686 8.61408C12.3526 8.57784 12.4281 8.52473 12.4907 8.45805C12.5532 8.39137 12.6014 8.31255 12.6322 8.22648C12.6629 8.14041 12.6757 8.04892 12.6697 7.95771C12.6547 7.78631 12.5756 7.62689 12.448 7.51141C12.3205 7.39594 12.154 7.33294 11.982 7.33506H10.0024C9.89255 7.33499 9.78442 7.36204 9.68758 7.41381C9.59073 7.46557 9.50817 7.54045 9.44723 7.6318L8.66871 8.79874L6.55655 5.63133C6.47557 5.50978 6.35693 5.41817 6.21884 5.37059C6.08076 5.323 5.93087 5.32207 5.7922 5.36793C5.64559 5.41799 5.52017 5.51609 5.43628 5.64633L4.31102 7.33506H0.627648C0.556392 7.33526 0.486946 7.31262 0.429494 7.27047C0.372041 7.22832 0.329605 7.16887 0.308406 7.10084C0.107379 6.47608 0.00336792 5.82418 0 5.16789C0.00154431 3.79775 0.546512 2.48418 1.51534 1.51534C2.48418 0.546512 3.79775 0.00154431 5.16789 0C6.88912 0 8.39615 0.740174 9.33554 1.9913C10.2749 0.740174 11.7819 0 13.5032 0C14.8733 0.00154431 16.1869 0.546512 17.1557 1.51534C18.1246 2.48418 18.6695 3.79775 18.6711 5.16789Z" fill="#E6E6E6"/>
</svg>
