<svg width="16" height="16" viewBox="0 0 16 16" fill="none" xmlns="http://www.w3.org/2000/svg">
<path d="M14.9846 6.77452L8.5847 0.374602C8.34468 0.13474 8.01924 0 7.67991 0C7.34058 0 7.01514 0.13474 6.77512 0.374602L0.375203 6.77452C0.255768 6.89307 0.161093 7.03418 0.0966816 7.18964C0.0322705 7.34511 -0.000590918 7.51183 8.04268e-06 7.68011V15.36C8.04268e-06 15.5297 0.0674357 15.6925 0.187457 15.8126C0.307479 15.9326 0.470263 16 0.64 16H5.75993C5.92967 16 6.09245 15.9326 6.21248 15.8126C6.3325 15.6925 6.39993 15.5297 6.39993 15.36V10.8801H8.95989V15.36C8.95989 15.5297 9.02732 15.6925 9.14734 15.8126C9.26736 15.9326 9.43015 16 9.59988 16H14.7198C14.8896 16 15.0523 15.9326 15.1724 15.8126C15.2924 15.6925 15.3598 15.5297 15.3598 15.36V7.68011C15.3604 7.51183 15.3275 7.34511 15.2631 7.18964C15.1987 7.03418 15.1041 6.89307 14.9846 6.77452ZM14.0798 14.72H10.2399V10.2401C10.2399 10.0703 10.1724 9.90755 10.0524 9.78753C9.93241 9.66751 9.76962 9.60008 9.59988 9.60008H5.75993C5.5902 9.60008 5.42741 9.66751 5.30739 9.78753C5.18737 9.90755 5.11994 10.0703 5.11994 10.2401V14.72H1.27999V7.68011L7.67991 1.28019L14.0798 7.68011V14.72Z" fill="#E6E6E6"/>
</svg>
