<svg width="16" height="16" viewBox="0 0 16 16" fill="none" xmlns="http://www.w3.org/2000/svg">
<path d="M15.3606 7.67969V15.36C15.3606 15.5297 15.2931 15.6925 15.1731 15.8125C15.0531 15.9326 14.8903 16 14.7205 16H10.2404C10.0706 16 9.90784 15.9326 9.78782 15.8125C9.66779 15.6925 9.60036 15.5297 9.60036 15.36V11.1998C9.60036 11.1149 9.56664 11.0336 9.50663 10.9735C9.44661 10.9135 9.36522 10.8798 9.28034 10.8798H6.08023C5.99535 10.8798 5.91396 10.9135 5.85394 10.9735C5.79393 11.0336 5.76021 11.1149 5.76021 11.1998V15.36C5.76021 15.5297 5.69278 15.6925 5.57276 15.8125C5.45273 15.9326 5.28994 16 5.12019 16H0.640024C0.470279 16 0.307486 15.9326 0.187459 15.8125C0.067431 15.6925 0 15.5297 0 15.36V7.67969C0.000157357 7.34026 0.135122 7.01479 0.375214 6.77486L6.77545 0.374621C7.01548 0.134747 7.34094 0 7.68029 0C8.01963 0 8.34509 0.134747 8.58512 0.374621L14.9854 6.77486C15.2254 7.01479 15.3604 7.34026 15.3606 7.67969Z" fill="#E6E6E6"/>
</svg>
