<svg width="13" height="16" viewBox="0 0 13 16" fill="none" xmlns="http://www.w3.org/2000/svg">
<path d="M9.71327 15.4286C9.71327 15.5802 9.65307 15.7255 9.54592 15.8327C9.43877 15.9398 9.29344 16 9.14191 16H3.42827C3.27674 16 3.13141 15.9398 3.02426 15.8327C2.91711 15.7255 2.85691 15.5802 2.85691 15.4286C2.85691 15.2771 2.91711 15.1318 3.02426 15.0246C3.13141 14.9175 3.27674 14.8573 3.42827 14.8573H9.14191C9.29344 14.8573 9.43877 14.9175 9.54592 15.0246C9.65307 15.1318 9.71327 15.2771 9.71327 15.4286ZM12.5701 6.28682C12.5726 7.23931 12.3574 8.17978 11.941 9.03644C11.5246 9.89311 10.918 10.6433 10.1675 11.2298C10.0272 11.3374 9.91329 11.4756 9.83457 11.6339C9.75584 11.7923 9.71435 11.9665 9.71327 12.1433V12.5718C9.71327 12.8749 9.59288 13.1655 9.37857 13.3798C9.16427 13.5942 8.87361 13.7145 8.57054 13.7145H3.99964C3.69657 13.7145 3.40591 13.5942 3.19161 13.3798C2.9773 13.1655 2.85691 12.8749 2.85691 12.5718V12.1433C2.85679 11.9686 2.81662 11.7963 2.73949 11.6395C2.66235 11.4828 2.55031 11.3458 2.41196 11.2391C1.66333 10.6561 1.05715 9.91037 0.639291 9.05844C0.221433 8.20652 0.00285237 7.2707 9.34533e-05 6.32182C-0.0184759 2.91792 2.73264 0.0832435 6.13368 0.00182421C6.97169 -0.0183701 7.80527 0.129276 8.58537 0.436073C9.36546 0.74287 10.0763 1.20262 10.676 1.78826C11.2758 2.3739 11.7523 3.07359 12.0776 3.84616C12.4029 4.61873 12.5703 5.44857 12.5701 6.28682ZM8.97478 6.45395C8.92172 6.40082 8.85871 6.35868 8.78934 6.32993C8.71998 6.30117 8.64563 6.28637 8.57054 6.28637C8.49546 6.28637 8.42111 6.30117 8.35175 6.32993C8.28238 6.35868 8.21937 6.40082 8.1663 6.45395L6.28509 8.33587L4.40388 6.45395C4.29667 6.34673 4.15126 6.2865 3.99964 6.2865C3.84802 6.2865 3.70261 6.34673 3.5954 6.45395C3.48819 6.56116 3.42796 6.70657 3.42796 6.85818C3.42796 7.0098 3.48819 7.15521 3.5954 7.26242L5.71373 9.38004V12.0005C5.71373 12.152 5.77392 12.2973 5.88108 12.4045C5.98823 12.5116 6.13356 12.5718 6.28509 12.5718C6.43663 12.5718 6.58195 12.5116 6.68911 12.4045C6.79626 12.2973 6.85645 12.152 6.85645 12.0005V9.38004L8.97478 7.26242C9.02791 7.20936 9.07005 7.14635 9.0988 7.07698C9.12756 7.00762 9.14236 6.93327 9.14236 6.85818C9.14236 6.7831 9.12756 6.70875 9.0988 6.63939C9.07005 6.57002 9.02791 6.50701 8.97478 6.45395Z" fill="#E6E6E6"/>
</svg>
