<svg width="16" height="16" viewBox="0 0 16 16" fill="none" xmlns="http://www.w3.org/2000/svg">
<path d="M10.8968 5.10322C10.954 5.16037 10.9994 5.22824 11.0304 5.30294C11.0613 5.37765 11.0773 5.45772 11.0773 5.53859C11.0773 5.61946 11.0613 5.69953 11.0304 5.77424C10.9994 5.84894 10.954 5.91681 10.8968 5.97396L5.97387 10.8969C5.91669 10.954 5.84882 10.9994 5.77412 11.0303C5.69942 11.0613 5.61935 11.0772 5.5385 11.0772C5.45764 11.0772 5.37758 11.0613 5.30288 11.0303C5.22818 10.9994 5.1603 10.954 5.10313 10.8969C5.04595 10.8397 5.0006 10.7718 4.96966 10.6971C4.93872 10.6224 4.92279 10.5424 4.92279 10.4615C4.92279 10.3806 4.93872 10.3006 4.96966 10.2259C5.0006 10.1512 5.04595 10.0833 5.10313 10.0261L10.026 5.10322C10.0832 5.046 10.1511 5.00062 10.2258 4.96965C10.3005 4.93868 10.3805 4.92274 10.4614 4.92274C10.5423 4.92274 10.6224 4.93868 10.6971 4.96965C10.7718 5.00062 10.8396 5.046 10.8968 5.10322ZM14.7382 1.26181C14.3382 0.861768 13.8633 0.544437 13.3407 0.327935C12.818 0.111433 12.2579 0 11.6921 0C11.1264 0 10.5663 0.111433 10.0436 0.327935C9.52096 0.544437 9.04608 0.861768 8.64609 1.26181L6.33386 3.57327C6.21839 3.68874 6.15352 3.84534 6.15352 4.00864C6.15352 4.17193 6.21839 4.32854 6.33386 4.44401C6.44932 4.55948 6.60593 4.62435 6.76923 4.62435C6.93252 4.62435 7.08913 4.55948 7.2046 4.44401L9.51683 2.13639C10.0959 1.56999 10.8751 1.25482 11.6851 1.25928C12.4952 1.26374 13.2708 1.58747 13.8436 2.16022C14.4165 2.73297 14.7403 3.50852 14.7449 4.31857C14.7496 5.12861 14.4345 5.9078 13.8682 6.48702L11.5552 8.79925C11.4398 8.91461 11.3748 9.07112 11.3748 9.23435C11.3747 9.39757 11.4395 9.55414 11.5548 9.66961C11.6702 9.78507 11.8267 9.84998 11.9899 9.85005C12.1532 9.85013 12.3097 9.78536 12.4252 9.66999L14.7382 7.35391C15.1382 6.95391 15.4556 6.47903 15.6721 5.95639C15.8886 5.43375 16 4.87357 16 4.30786C16 3.74215 15.8886 3.18198 15.6721 2.65933C15.4556 2.13669 15.1382 1.66181 14.7382 1.26181ZM8.79531 11.5553L6.48308 13.8675C6.19854 14.1585 5.8591 14.3901 5.48443 14.5489C5.10977 14.7078 4.70731 14.7907 4.30036 14.793C3.89342 14.7952 3.49007 14.7167 3.11368 14.562C2.73728 14.4073 2.39532 14.1794 2.10759 13.8916C1.81985 13.6039 1.59207 13.2619 1.43742 12.8854C1.28277 12.509 1.20434 12.1056 1.20665 11.6987C1.20896 11.2918 1.29198 10.8893 1.4509 10.5147C1.60981 10.14 1.84147 9.80064 2.13246 9.51615L4.44392 7.20469C4.55939 7.08922 4.62425 6.93261 4.62425 6.76932C4.62425 6.60602 4.55939 6.44941 4.44392 6.33395C4.32845 6.21848 4.17184 6.15361 4.00855 6.15361C3.84525 6.15361 3.68865 6.21848 3.57318 6.33395L1.26172 8.64618C0.453853 9.45404 0 10.5497 0 11.6922C0 12.8347 0.453853 13.9304 1.26172 14.7383C2.06958 15.5461 3.16528 16 4.30777 16C5.45026 16 6.54596 15.5461 7.35382 14.7383L9.66605 12.4253C9.78142 12.3098 9.84619 12.1532 9.84612 11.99C9.84604 11.8268 9.78114 11.6703 9.66567 11.5549C9.5502 11.4396 9.39363 11.3748 9.23041 11.3749C9.06719 11.3749 8.91068 11.4398 8.79531 11.5553Z" fill="#E6E6E6"/>
</svg>
