<svg width="16" height="16" viewBox="0 0 16 16" fill="none" xmlns="http://www.w3.org/2000/svg">
<path d="M5.00052 9.74168L9.73995 5.00225C9.82261 4.91959 9.92074 4.85402 10.0287 4.80929C10.1367 4.76455 10.2525 4.74152 10.3694 4.74152C10.4863 4.74152 10.6021 4.76455 10.7101 4.80929C10.8181 4.85402 10.9162 4.91959 10.9989 5.00225C11.0815 5.08491 11.1471 5.18305 11.1918 5.29105C11.2366 5.39905 11.2596 5.51481 11.2596 5.63171C11.2596 5.74861 11.2366 5.86437 11.1918 5.97237C11.1471 6.08037 11.0815 6.1785 10.9989 6.26116L6.25943 11.0006C6.09249 11.1675 5.86607 11.2613 5.62997 11.2613C5.39388 11.2613 5.16746 11.1675 5.00052 11.0006C4.83358 10.8337 4.73979 10.6072 4.73979 10.3711C4.73979 10.135 4.83358 9.90862 5.00052 9.74168ZM14.7015 1.29957C13.8675 0.46737 12.7373 0 11.5591 0C10.3808 0 9.2507 0.46737 8.41661 1.29957L6.18612 3.52785C6.01918 3.69479 5.92539 3.92121 5.92539 4.1573C5.92539 4.39339 6.01917 4.61982 6.18612 4.78676C6.35306 4.9537 6.57948 5.04749 6.81557 5.04749C7.05166 5.04749 7.27809 4.9537 7.44503 4.78676L9.67182 2.56071C9.91941 2.31306 10.2134 2.11661 10.5369 1.98257C10.8604 1.84853 11.2071 1.77952 11.5573 1.77948C11.9075 1.77945 12.2543 1.84839 12.5778 1.98237C12.9014 2.11635 13.1954 2.31274 13.443 2.56034C13.6906 2.80793 13.8871 3.10188 14.0211 3.4254C14.1552 3.74891 14.2242 4.09566 14.2242 4.44585C14.2243 4.79603 14.1553 5.1428 14.0213 5.46634C13.8874 5.78989 13.691 6.08387 13.4434 6.33151L11.2136 8.55682C11.0467 8.72377 10.9529 8.95019 10.9529 9.18628C10.9529 9.42237 11.0467 9.64879 11.2136 9.81573C11.3806 9.98268 11.607 10.0765 11.8431 10.0765C12.0792 10.0765 12.3056 9.98268 12.4725 9.81573L14.7001 7.58968C15.5327 6.75509 16.0001 5.62419 15.9997 4.44528C15.9993 3.26637 15.5311 2.1358 14.6978 1.3018L14.7015 1.29957ZM8.55657 11.2139L6.32978 13.4414C6.08214 13.689 5.78815 13.8854 5.46461 14.0194C5.14106 14.1533 4.7943 14.2223 4.44411 14.2222C4.09393 14.2222 3.74718 14.1532 3.42366 14.0192C3.10014 13.8851 2.8062 13.6887 2.5586 13.441C2.05856 12.9409 1.77768 12.2626 1.77775 11.5554C1.77782 10.8481 2.05883 10.1699 2.55897 9.66985L4.78502 7.44306C4.86768 7.3604 4.93325 7.26226 4.97799 7.15426C5.02273 7.04626 5.04575 6.9305 5.04575 6.8136C5.04575 6.6967 5.02273 6.58095 4.97799 6.47294C4.93325 6.36494 4.86768 6.26681 4.78502 6.18415C4.70236 6.10149 4.60423 6.03592 4.49623 5.99118C4.38822 5.94644 4.27247 5.92342 4.15557 5.92342C4.03867 5.92342 3.92291 5.94644 3.81491 5.99118C3.70691 6.03592 3.60877 6.10149 3.52611 6.18415L1.30154 8.41316C0.468109 9.24669 -6.9431e-05 10.3772 7.72308e-09 11.5559C6.94464e-05 12.7346 0.468382 13.865 1.30191 14.6985C2.13544 15.5319 3.26592 16.0001 4.44464 16C5.62336 15.9999 6.75378 15.5316 7.58721 14.6981L9.81326 12.4713C9.9802 12.3044 10.074 12.0779 10.074 11.8418C10.074 11.6058 9.9802 11.3793 9.81326 11.2124C9.64632 11.0454 9.4199 10.9517 9.18381 10.9517C8.94771 10.9517 8.72129 11.0454 8.55435 11.2124L8.55657 11.2139Z" fill="#E6E6E6"/>
</svg>
