<svg width="16" height="13" viewBox="0 0 16 13" fill="none" xmlns="http://www.w3.org/2000/svg">
<path d="M4 1C4 0.823189 4.07024 0.65362 4.19526 0.528596C4.32029 0.403571 4.48986 0.333333 4.66667 0.333333H15.3333C15.5101 0.333333 15.6797 0.403571 15.8047 0.528596C15.9298 0.65362 16 0.823189 16 1C16 1.17681 15.9298 1.34638 15.8047 1.4714C15.6797 1.59643 15.5101 1.66667 15.3333 1.66667H4.66667C4.48986 1.66667 4.32029 1.59643 4.19526 1.4714C4.07024 1.34638 4 1.17681 4 1ZM15.3333 5.66667H4.66667C4.48986 5.66667 4.32029 5.7369 4.19526 5.86193C4.07024 5.98695 4 6.15652 4 6.33333C4 6.51014 4.07024 6.67971 4.19526 6.80474C4.32029 6.92976 4.48986 7 4.66667 7H15.3333C15.5101 7 15.6797 6.92976 15.8047 6.80474C15.9298 6.67971 16 6.51014 16 6.33333C16 6.15652 15.9298 5.98695 15.8047 5.86193C15.6797 5.7369 15.5101 5.66667 15.3333 5.66667ZM15.3333 11H4.66667C4.48986 11 4.32029 11.0702 4.19526 11.1953C4.07024 11.3203 4 11.4899 4 11.6667C4 11.8435 4.07024 12.013 4.19526 12.1381C4.32029 12.2631 4.48986 12.3333 4.66667 12.3333H15.3333C15.5101 12.3333 15.6797 12.2631 15.8047 12.1381C15.9298 12.013 16 11.8435 16 11.6667C16 11.4899 15.9298 11.3203 15.8047 11.1953C15.6797 11.0702 15.5101 11 15.3333 11ZM1 0C0.802219 0 0.608879 0.058649 0.44443 0.16853C0.279981 0.278412 0.151809 0.43459 0.0761209 0.617317C0.000433286 0.800043 -0.0193701 1.00111 0.0192152 1.19509C0.0578004 1.38907 0.153041 1.56725 0.292894 1.70711C0.432746 1.84696 0.610929 1.9422 0.80491 1.98079C0.998891 2.01937 1.19996 1.99957 1.38268 1.92388C1.56541 1.84819 1.72159 1.72002 1.83147 1.55557C1.94135 1.39112 2 1.19778 2 1C2 0.734783 1.89464 0.480429 1.70711 0.292893C1.51957 0.105357 1.26522 0 1 0ZM1 5.33333C0.802219 5.33333 0.608879 5.39198 0.44443 5.50186C0.279981 5.61174 0.151809 5.76792 0.0761209 5.95065C0.000433286 6.13338 -0.0193701 6.33444 0.0192152 6.52842C0.0578004 6.7224 0.153041 6.90059 0.292894 7.04044C0.432746 7.18029 0.610929 7.27553 0.80491 7.31412C0.998891 7.3527 1.19996 7.3329 1.38268 7.25721C1.56541 7.18152 1.72159 7.05335 1.83147 6.8889C1.94135 6.72445 2 6.53111 2 6.33333C2 6.06812 1.89464 5.81376 1.70711 5.62623C1.51957 5.43869 1.26522 5.33333 1 5.33333ZM1 10.6667C0.802219 10.6667 0.608879 10.7253 0.44443 10.8352C0.279981 10.9451 0.151809 11.1013 0.0761209 11.284C0.000433286 11.4667 -0.0193701 11.6678 0.0192152 11.8618C0.0578004 12.0557 0.153041 12.2339 0.292894 12.3738C0.432746 12.5136 0.610929 12.6089 0.80491 12.6475C0.998891 12.686 1.19996 12.6662 1.38268 12.5905C1.56541 12.5149 1.72159 12.3867 1.83147 12.2222C1.94135 12.0578 2 11.8644 2 11.6667C2 11.4014 1.89464 11.1471 1.70711 10.9596C1.51957 10.772 1.26522 10.6667 1 10.6667Z" fill="#E6E6E6"/>
</svg>
