<svg width="16" height="16" viewBox="0 0 16 16" fill="none" xmlns="http://www.w3.org/2000/svg">
<path d="M14.6667 0H1.33333C0.979711 0 0.640573 0.140476 0.390524 0.390524C0.140476 0.640573 0 0.979711 0 1.33333V14.6667C0 15.0203 0.140476 15.3594 0.390524 15.6095C0.640573 15.8595 0.979711 16 1.33333 16H14.6667C15.0203 16 15.3594 15.8595 15.6095 15.6095C15.8595 15.3594 16 15.0203 16 14.6667V1.33333C16 0.979711 15.8595 0.640573 15.6095 0.390524C15.3594 0.140476 15.0203 0 14.6667 0ZM3 13C2.80222 13 2.60888 12.9414 2.44443 12.8315C2.27998 12.7216 2.15181 12.5654 2.07612 12.3827C2.00043 12.2 1.98063 11.9989 2.01921 11.8049C2.0578 11.6109 2.15304 11.4327 2.29289 11.2929C2.43275 11.153 2.61093 11.0578 2.80491 11.0192C2.99889 10.9806 3.19996 11.0004 3.38268 11.0761C3.56541 11.1518 3.72159 11.28 3.83147 11.4444C3.94135 11.6089 4 11.8022 4 12C4 12.2652 3.89464 12.5196 3.70711 12.7071C3.51957 12.8946 3.26522 13 3 13ZM3 9C2.80222 9 2.60888 8.94135 2.44443 8.83147C2.27998 8.72159 2.15181 8.56541 2.07612 8.38268C2.00043 8.19996 1.98063 7.99889 2.01921 7.80491C2.0578 7.61093 2.15304 7.43275 2.29289 7.29289C2.43275 7.15304 2.61093 7.0578 2.80491 7.01921C2.99889 6.98063 3.19996 7.00043 3.38268 7.07612C3.56541 7.15181 3.72159 7.27998 3.83147 7.44443C3.94135 7.60888 4 7.80222 4 8C4 8.26522 3.89464 8.51957 3.70711 8.70711C3.51957 8.89464 3.26522 9 3 9ZM3 5C2.80222 5 2.60888 4.94135 2.44443 4.83147C2.27998 4.72159 2.15181 4.56541 2.07612 4.38268C2.00043 4.19996 1.98063 3.99889 2.01921 3.80491C2.0578 3.61093 2.15304 3.43275 2.29289 3.29289C2.43275 3.15304 2.61093 3.0578 2.80491 3.01921C2.99889 2.98063 3.19996 3.00043 3.38268 3.07612C3.56541 3.15181 3.72159 3.27998 3.83147 3.44443C3.94135 3.60888 4 3.80222 4 4C4 4.26522 3.89464 4.51957 3.70711 4.70711C3.51957 4.89464 3.26522 5 3 5ZM13.3333 12.6667H6C5.82319 12.6667 5.65362 12.5964 5.5286 12.4714C5.40357 12.3464 5.33333 12.1768 5.33333 12C5.33333 11.8232 5.40357 11.6536 5.5286 11.5286C5.65362 11.4036 5.82319 11.3333 6 11.3333H13.3333C13.5101 11.3333 13.6797 11.4036 13.8047 11.5286C13.9298 11.6536 14 11.8232 14 12C14 12.1768 13.9298 12.3464 13.8047 12.4714C13.6797 12.5964 13.5101 12.6667 13.3333 12.6667ZM13.3333 8.66667H6C5.82319 8.66667 5.65362 8.59643 5.5286 8.47141C5.40357 8.34638 5.33333 8.17681 5.33333 8C5.33333 7.82319 5.40357 7.65362 5.5286 7.5286C5.65362 7.40357 5.82319 7.33333 6 7.33333H13.3333C13.5101 7.33333 13.6797 7.40357 13.8047 7.5286C13.9298 7.65362 14 7.82319 14 8C14 8.17681 13.9298 8.34638 13.8047 8.47141C13.6797 8.59643 13.5101 8.66667 13.3333 8.66667ZM13.3333 4.66667H6C5.82319 4.66667 5.65362 4.59643 5.5286 4.4714C5.40357 4.34638 5.33333 4.17681 5.33333 4C5.33333 3.82319 5.40357 3.65362 5.5286 3.5286C5.65362 3.40357 5.82319 3.33333 6 3.33333H13.3333C13.5101 3.33333 13.6797 3.40357 13.8047 3.5286C13.9298 3.65362 14 3.82319 14 4C14 4.17681 13.9298 4.34638 13.8047 4.4714C13.6797 4.59643 13.5101 4.66667 13.3333 4.66667Z" fill="#E6E6E6"/>
</svg>
