<svg width="15" height="16" viewBox="0 0 15 16" fill="none" xmlns="http://www.w3.org/2000/svg">
<path d="M13.037 5.33333H10.6667V3.55556C10.6667 2.61256 10.2921 1.70819 9.62527 1.0414C8.95847 0.374602 8.0541 0 7.11111 0C6.16812 0 5.26375 0.374602 4.59695 1.0414C3.93016 1.70819 3.55556 2.61256 3.55556 3.55556V5.33333H1.18519C0.870854 5.33333 0.569398 5.4582 0.347133 5.68047C0.124867 5.90273 0 6.20419 0 6.51852V14.8148C0 15.1291 0.124867 15.4306 0.347133 15.6529C0.569398 15.8751 0.870854 16 1.18519 16H13.037C13.3514 16 13.6528 15.8751 13.8751 15.6529C14.0974 15.4306 14.2222 15.1291 14.2222 14.8148V6.51852C14.2222 6.20419 14.0974 5.90273 13.8751 5.68047C13.6528 5.4582 13.3514 5.33333 13.037 5.33333ZM7.11111 11.5556C6.93531 11.5556 6.76345 11.5034 6.61727 11.4058C6.47109 11.3081 6.35716 11.1693 6.28989 11.0068C6.22261 10.8444 6.205 10.6657 6.2393 10.4933C6.2736 10.3208 6.35826 10.1624 6.48257 10.0381C6.60688 9.91381 6.76527 9.82916 6.9377 9.79486C7.11013 9.76056 7.28885 9.77816 7.45127 9.84544C7.6137 9.91272 7.75252 10.0266 7.85019 10.1728C7.94787 10.319 8 10.4909 8 10.6667C8 10.9024 7.90635 11.1285 7.73965 11.2952C7.57295 11.4619 7.34686 11.5556 7.11111 11.5556ZM9.48148 5.33333H4.74074V3.55556C4.74074 2.92689 4.99048 2.32398 5.43501 1.87945C5.87954 1.43492 6.48245 1.18519 7.11111 1.18519C7.73977 1.18519 8.34268 1.43492 8.78722 1.87945C9.23175 2.32398 9.48148 2.92689 9.48148 3.55556V5.33333Z" fill="#E6E6E6"/>
</svg>
