<svg width="15" height="16" viewBox="0 0 15 16" fill="none" xmlns="http://www.w3.org/2000/svg">
<path d="M13.037 5.33333H4.74074V3.55556C4.74074 2.92689 4.99048 2.32398 5.43501 1.87945C5.87954 1.43492 6.48245 1.18519 7.11111 1.18519C8.24963 1.18519 9.27407 2 9.49333 3.08074C9.52589 3.23346 9.6174 3.36715 9.74798 3.45277C9.87856 3.53839 10.0377 3.56901 10.1907 3.53797C10.3437 3.50693 10.4783 3.41675 10.5652 3.28703C10.6521 3.1573 10.6843 2.99852 10.6548 2.84519C10.32 1.1963 8.82963 0 7.11111 0C6.16842 0.000980439 5.26462 0.375897 4.59804 1.04248C3.93145 1.70906 3.55654 2.61286 3.55556 3.55556V5.33333H1.18519C0.870854 5.33333 0.569398 5.4582 0.347133 5.68047C0.124867 5.90273 0 6.20419 0 6.51852V14.8148C0 15.1291 0.124867 15.4306 0.347133 15.6529C0.569398 15.8751 0.870854 16 1.18519 16H13.037C13.3514 16 13.6528 15.8751 13.8751 15.6529C14.0974 15.4306 14.2222 15.1291 14.2222 14.8148V6.51852C14.2222 6.20419 14.0974 5.90273 13.8751 5.68047C13.6528 5.4582 13.3514 5.33333 13.037 5.33333ZM13.037 14.8148H1.18519V6.51852H13.037V14.8148ZM8 10.6667C8 10.8425 7.94787 11.0143 7.85019 11.1605C7.75252 11.3067 7.6137 11.4206 7.45127 11.4879C7.28885 11.5552 7.11013 11.5728 6.9377 11.5385C6.76527 11.5042 6.60688 11.4195 6.48257 11.2952C6.35826 11.1709 6.2736 11.0125 6.2393 10.8401C6.205 10.6677 6.22261 10.4889 6.28989 10.3265C6.35716 10.1641 6.47109 10.0253 6.61727 9.92758C6.76345 9.82991 6.93531 9.77778 7.11111 9.77778C7.34686 9.77778 7.57295 9.87143 7.73965 10.0381C7.90635 10.2048 8 10.4309 8 10.6667Z" fill="#E6E6E6"/>
</svg>
