<svg width="12" height="16" viewBox="0 0 12 16" fill="none" xmlns="http://www.w3.org/2000/svg">
<path d="M11.7305 5.86873C11.7311 4.88031 11.4819 3.90776 11.006 3.04143C10.5301 2.1751 9.84301 1.44309 9.00851 0.913376C8.17401 0.383666 7.21917 0.0734429 6.23269 0.0115217C5.2462 -0.0503994 4.26007 0.13799 3.36588 0.559191C2.47169 0.980392 1.69844 1.62074 1.11797 2.42077C0.537497 3.22079 0.168621 4.15454 0.0456041 5.13528C-0.0774127 6.11602 0.0494199 7.11194 0.414321 8.03055C0.779223 8.94915 1.37036 9.76064 2.13282 10.3896V15.4664C2.13275 15.5573 2.15595 15.6468 2.20019 15.7262C2.24444 15.8057 2.30827 15.8725 2.38561 15.9203C2.46296 15.9681 2.55125 15.9954 2.64209 15.9995C2.73293 16.0035 2.82331 15.9843 2.90463 15.9436L5.86525 14.4667L8.82653 15.947C8.9008 15.9824 8.98219 16.0004 9.06448 15.9996C9.20589 15.9996 9.34152 15.9434 9.44151 15.8434C9.54151 15.7435 9.59768 15.6078 9.59768 15.4664V10.3896C10.2648 9.84019 10.802 9.14987 11.1708 8.36823C11.5395 7.58658 11.7307 6.73299 11.7305 5.86873ZM1.06641 5.86873C1.06641 4.91961 1.34786 3.9918 1.87516 3.20264C2.40246 2.41347 3.15194 1.79839 4.02881 1.43518C4.90569 1.07197 5.87057 0.976936 6.80146 1.1621C7.73234 1.34726 8.58741 1.80431 9.25854 2.47544C9.92967 3.14657 10.3867 4.00164 10.5719 4.93253C10.757 5.86341 10.662 6.8283 10.2988 7.70517C9.93559 8.58204 9.32051 9.33152 8.53134 9.85882C7.74218 10.3861 6.81437 10.6676 5.86525 10.6676C4.59295 10.6662 3.37317 10.1601 2.47352 9.26047C1.57387 8.36082 1.06782 7.14103 1.06641 5.86873ZM2.13282 5.86873C2.13282 5.13053 2.35172 4.4089 2.76185 3.7951C3.17197 3.18131 3.7549 2.70291 4.43691 2.42042C5.11892 2.13792 5.86939 2.064 6.59341 2.20802C7.31743 2.35204 7.98249 2.70752 8.50448 3.2295C9.02647 3.75149 9.38195 4.41655 9.52596 5.14057C9.66998 5.86459 9.59607 6.61506 9.31357 7.29707C9.03107 7.97908 8.55267 8.56201 7.93888 8.97214C7.32508 9.38226 6.60346 9.60116 5.86525 9.60116C4.87567 9.60011 3.92693 9.20653 3.22719 8.50679C2.52745 7.80705 2.13388 6.85831 2.13282 5.86873Z" fill="#E6E6E6"/>
</svg>
