<svg width="16" height="5" viewBox="0 0 16 5" fill="none" xmlns="http://www.w3.org/2000/svg">
<path d="M10.0741 2.07407C10.0741 2.48429 9.95243 2.88529 9.72453 3.22637C9.49663 3.56745 9.1727 3.83329 8.79371 3.99027C8.41473 4.14725 7.9977 4.18832 7.59537 4.10829C7.19304 4.02827 6.82347 3.83073 6.53341 3.54067C6.24334 3.2506 6.04581 2.88104 5.96578 2.47871C5.88575 2.07637 5.92682 1.65935 6.08381 1.28036C6.24079 0.901373 6.50663 0.577447 6.84771 0.349544C7.18879 0.121642 7.58979 0 8 0C8.55008 0 9.07763 0.218518 9.46659 0.607482C9.85556 0.996447 10.0741 1.524 10.0741 2.07407ZM2.07407 0C1.66386 0 1.26286 0.121642 0.921781 0.349544C0.580702 0.577447 0.314862 0.901373 0.15788 1.28036C0.000898661 1.65935 -0.0401749 2.07637 0.0398537 2.47871C0.119882 2.88104 0.317419 3.2506 0.607483 3.54067C0.897548 3.83073 1.26711 4.02827 1.66944 4.10829C2.07177 4.18832 2.4888 4.14725 2.86779 3.99027C3.24678 3.83329 3.5707 3.56745 3.7986 3.22637C4.02651 2.88529 4.14815 2.48429 4.14815 2.07407C4.14815 1.524 3.92963 0.996447 3.54067 0.607482C3.1517 0.218518 2.62415 0 2.07407 0ZM13.9259 0C13.5157 0 13.1147 0.121642 12.7736 0.349544C12.4326 0.577447 12.1667 0.901373 12.0097 1.28036C11.8527 1.65935 11.8117 2.07637 11.8917 2.47871C11.9717 2.88104 12.1693 3.2506 12.4593 3.54067C12.7494 3.83073 13.119 4.02827 13.5213 4.10829C13.9236 4.18832 14.3407 4.14725 14.7196 3.99027C15.0986 3.83329 15.4226 3.56745 15.6505 3.22637C15.8784 2.88529 16 2.48429 16 2.07407C16 1.8017 15.9464 1.532 15.8421 1.28036C15.7379 1.02872 15.5851 0.800078 15.3925 0.607482C15.1999 0.414887 14.9713 0.262111 14.7196 0.157879C14.468 0.0536473 14.1983 0 13.9259 0Z" fill="#E6E6E6"/>
</svg>
