<svg width="16" height="12" viewBox="0 0 16 12" fill="none" xmlns="http://www.w3.org/2000/svg">
<path d="M5.71429 4.57143C5.71429 4.41988 5.77449 4.27453 5.88165 4.16737C5.98882 4.0602 6.13416 4 6.28571 4H12C12.1516 4 12.2969 4.0602 12.4041 4.16737C12.5112 4.27453 12.5714 4.41988 12.5714 4.57143C12.5714 4.72298 12.5112 4.86833 12.4041 4.97549C12.2969 5.08265 12.1516 5.14286 12 5.14286H6.28571C6.13416 5.14286 5.98882 5.08265 5.88165 4.97549C5.77449 4.86833 5.71429 4.72298 5.71429 4.57143ZM6.28571 7.42857H12C12.1516 7.42857 12.2969 7.36837 12.4041 7.2612C12.5112 7.15404 12.5714 7.0087 12.5714 6.85714C12.5714 6.70559 12.5112 6.56025 12.4041 6.45308C12.2969 6.34592 12.1516 6.28571 12 6.28571H6.28571C6.13416 6.28571 5.98882 6.34592 5.88165 6.45308C5.77449 6.56025 5.71429 6.70559 5.71429 6.85714C5.71429 7.0087 5.77449 7.15404 5.88165 7.2612C5.98882 7.36837 6.13416 7.42857 6.28571 7.42857ZM16 1.14286V9.71429C16 10.1689 15.8194 10.605 15.4979 10.9265C15.1764 11.248 14.7404 11.4286 14.2857 11.4286H1.71429C1.26099 11.4286 0.826138 11.249 0.504872 10.9292C0.183606 10.6095 0.00207762 10.1754 0 9.72214V2.85714C0 2.70559 0.0602039 2.56025 0.167368 2.45308C0.274531 2.34592 0.419876 2.28571 0.571429 2.28571C0.722981 2.28571 0.868326 2.34592 0.97549 2.45308C1.08265 2.56025 1.14286 2.70559 1.14286 2.85714V9.71429C1.14286 9.86584 1.20306 10.0112 1.31022 10.1183C1.41739 10.2255 1.56273 10.2857 1.71429 10.2857C1.86584 10.2857 2.01118 10.2255 2.11835 10.1183C2.22551 10.0112 2.28571 9.86584 2.28571 9.71429V1.14286C2.28571 0.839753 2.40612 0.549062 2.62045 0.334735C2.83478 0.120408 3.12547 0 3.42857 0H14.8571C15.1602 0 15.4509 0.120408 15.6653 0.334735C15.8796 0.549062 16 0.839753 16 1.14286ZM14.8571 1.14286H3.42857V9.71429C3.42891 9.90896 3.39581 10.1022 3.33071 10.2857H14.2857C14.4373 10.2857 14.5826 10.2255 14.6898 10.1183C14.7969 10.0112 14.8571 9.86584 14.8571 9.71429V1.14286Z" fill="#E6E6E6"/>
</svg>
