<svg width="15" height="16" viewBox="0 0 15 16" fill="none" xmlns="http://www.w3.org/2000/svg">
<path d="M14.5368 4.08095C14.3973 4.15317 14.2349 4.16706 14.0852 4.11957C13.9355 4.07207 13.8107 3.96708 13.7384 3.82767C13.1729 2.71048 12.3169 1.76624 11.2604 1.09415C11.1946 1.05263 11.1376 0.998537 11.0926 0.934973C11.0477 0.871409 11.0157 0.799617 10.9985 0.723695C10.9813 0.647773 10.9792 0.569208 10.9924 0.492485C11.0056 0.415763 11.0337 0.342386 11.0753 0.276544C11.1168 0.210702 11.1709 0.153685 11.2344 0.108747C11.298 0.0638087 11.3698 0.0318305 11.4457 0.0146379C11.5216 -0.00255457 11.6002 -0.00462477 11.6769 0.00854557C11.7537 0.0217159 11.827 0.0498689 11.8929 0.091397C13.1242 0.879781 14.124 1.98106 14.7901 3.2826C14.8623 3.42206 14.8762 3.5845 14.8287 3.7342C14.7812 3.88391 14.6762 4.00863 14.5368 4.08095ZM0.592223 4.1476C0.700766 4.14756 0.807211 4.1177 0.899938 4.06128C0.992666 4.00486 1.06811 3.92405 1.11804 3.82767C1.68356 2.71048 2.53954 1.76624 3.59605 1.09415C3.6619 1.05263 3.71891 0.998537 3.76385 0.934973C3.80879 0.871409 3.84077 0.799617 3.85796 0.723695C3.87515 0.647773 3.87722 0.569208 3.86405 0.492485C3.85088 0.415763 3.82273 0.342386 3.7812 0.276544C3.73967 0.210702 3.68558 0.153685 3.62202 0.108747C3.55845 0.0638087 3.48666 0.0318305 3.41074 0.0146379C3.33482 -0.00255457 3.25625 -0.00462477 3.17953 0.00854557C3.10281 0.0217159 3.02943 0.0498689 2.96359 0.091397C1.73229 0.879781 0.732476 1.98106 0.066405 3.2826C0.0196278 3.37289 -0.00312228 3.4737 0.000344449 3.57533C0.00381118 3.67696 0.0333779 3.77599 0.0861992 3.86288C0.139021 3.94978 0.213318 4.02162 0.301942 4.07148C0.390567 4.12135 0.490534 4.14756 0.592223 4.1476ZM14.3746 11.8453C14.4796 12.0253 14.5352 12.2298 14.5359 12.4381C14.5366 12.6465 14.4824 12.8514 14.3787 13.0321C14.2749 13.2128 14.1254 13.363 13.9451 13.4674C13.7648 13.5719 13.5602 13.627 13.3518 13.6271H10.3302C10.1942 14.2968 9.83094 14.8989 9.30185 15.3313C8.77277 15.7638 8.11045 16 7.42712 16C6.74379 16 6.08147 15.7638 5.55239 15.3313C5.0233 14.8989 4.65999 14.2968 4.52401 13.6271H1.50241C1.29417 13.6267 1.08972 13.5715 0.909645 13.4669C0.729573 13.3623 0.58024 13.2121 0.476691 13.0314C0.373141 12.8508 0.319031 12.646 0.319811 12.4378C0.320591 12.2295 0.376234 12.0252 0.481135 11.8453C1.14841 10.6937 1.50241 9.05623 1.50241 7.10996C1.50241 5.53863 2.12662 4.03165 3.23772 2.92056C4.34882 1.80946 5.85579 1.18525 7.42712 1.18525C8.99845 1.18525 10.5054 1.80946 11.6165 2.92056C12.7276 4.03165 13.3518 5.53863 13.3518 7.10996C13.3518 9.05549 13.7058 10.6929 14.3746 11.8453ZM9.10233 13.6271H5.75191C5.87465 13.9733 6.10162 14.2729 6.4016 14.4849C6.70158 14.6968 7.05984 14.8105 7.42712 14.8105C7.7944 14.8105 8.15266 14.6968 8.45264 14.4849C8.75262 14.2729 8.97959 13.9733 9.10233 13.6271Z" fill="#E6E6E6"/>
</svg>
