<svg width="15" height="16" viewBox="0 0 15 16" fill="none" xmlns="http://www.w3.org/2000/svg">
<path d="M14.6667 1.33333V14.6667C14.6667 15.0203 14.5262 15.3594 14.2761 15.6095C14.0261 15.8595 13.687 16 13.3333 16H10C9.64638 16 9.30724 15.8595 9.05719 15.6095C8.80714 15.3594 8.66667 15.0203 8.66667 14.6667V1.33333C8.66667 0.979711 8.80714 0.640573 9.05719 0.390524C9.30724 0.140476 9.64638 0 10 0H13.3333C13.687 0 14.0261 0.140476 14.2761 0.390524C14.5262 0.640573 14.6667 0.979711 14.6667 1.33333ZM4.66667 0H1.33333C0.979711 0 0.640573 0.140476 0.390524 0.390524C0.140476 0.640573 0 0.979711 0 1.33333V14.6667C0 15.0203 0.140476 15.3594 0.390524 15.6095C0.640573 15.8595 0.979711 16 1.33333 16H4.66667C5.02029 16 5.35943 15.8595 5.60948 15.6095C5.85952 15.3594 6 15.0203 6 14.6667V1.33333C6 0.979711 5.85952 0.640573 5.60948 0.390524C5.35943 0.140476 5.02029 0 4.66667 0Z" fill="#E6E6E6"/>
</svg>
