<svg width="14" height="16" viewBox="0 0 14 16" fill="none" xmlns="http://www.w3.org/2000/svg">
<path d="M13.5378 8C13.5383 8.20893 13.4847 8.41444 13.3823 8.59654C13.2799 8.77864 13.132 8.93113 12.9532 9.03918L1.87068 15.8189C1.68383 15.9333 1.46983 15.9957 1.25077 15.9998C1.03171 16.0038 0.815541 15.9493 0.624586 15.8419C0.435448 15.7362 0.277891 15.582 0.168118 15.3951C0.0583445 15.2083 0.000316029 14.9956 0 14.7789V1.22109C0.000316029 1.0044 0.0583445 0.791702 0.168118 0.604871C0.277891 0.41804 0.435448 0.263819 0.624586 0.158069C0.815541 0.0506496 1.03171 -0.00384561 1.25077 0.000211026C1.46983 0.00426766 1.68383 0.0667292 1.87068 0.181145L12.9532 6.96082C13.132 7.06887 13.2799 7.22136 13.3823 7.40346C13.4847 7.58556 13.5383 7.79107 13.5378 8Z" fill="#E6E6E6"/>
</svg>
