<svg width="14" height="16" viewBox="0 0 14 16" fill="none" xmlns="http://www.w3.org/2000/svg">
<path d="M12.9535 6.96098L1.87072 0.181149C1.68387 0.0667307 1.46986 0.00426776 1.2508 0.000211031C1.03174 -0.0038457 0.815561 0.0506508 0.6246 0.158072C0.435458 0.263826 0.277898 0.41805 0.168122 0.604885C0.0583458 0.791721 0.000316037 1.00442 0 1.22112V14.7793C0.00142517 15.1043 0.131869 15.4155 0.362656 15.6444C0.593442 15.8733 0.905683 16.0012 1.23074 16C1.45762 15.9999 1.6801 15.9374 1.8738 15.8192L12.9535 9.03939C13.1316 8.93084 13.2788 8.77831 13.3809 8.59645C13.4831 8.4146 13.5367 8.20953 13.5367 8.00096C13.5367 7.79238 13.4831 7.58732 13.3809 7.40546C13.2788 7.22361 13.1316 7.07107 12.9535 6.96252V6.96098ZM1.23074 14.7646V1.23112L12.2943 8.00019L1.23074 14.7646Z" fill="#E6E6E6"/>
</svg>
