<svg width="17" height="16" viewBox="0 0 17 16" fill="none" xmlns="http://www.w3.org/2000/svg">
<path d="M16.5443 15.0264C15.3272 12.9222 13.4515 11.4134 11.2626 10.6982C12.3454 10.0536 13.1866 9.07145 13.6571 7.90253C14.1276 6.73361 14.2014 5.44255 13.8671 4.22763C13.5329 3.01271 12.8091 1.9411 11.8068 1.17736C10.8046 0.413628 9.57937 0 8.31931 0C7.05925 0 5.83402 0.413628 4.83179 1.17736C3.82955 1.9411 3.10573 3.01271 2.77148 4.22763C2.43722 5.44255 2.51102 6.73361 2.98153 7.90253C3.45205 9.07145 4.29326 10.0536 5.37599 10.6982C3.18709 11.4126 1.31145 12.9214 0.0943302 15.0264C0.0496961 15.0992 0.0200906 15.1802 0.00726054 15.2646C-0.00556956 15.349 -0.00136439 15.4351 0.0196279 15.5179C0.0406203 15.6006 0.0779746 15.6783 0.129487 15.7464C0.180999 15.8145 0.245626 15.8716 0.319554 15.9143C0.393482 15.957 0.475215 15.9844 0.559929 15.9951C0.644642 16.0057 0.730622 15.9992 0.812794 15.976C0.894967 15.9529 0.971667 15.9135 1.03837 15.8602C1.10507 15.8069 1.16043 15.7408 1.20117 15.6658C2.70679 13.0637 5.368 11.5101 8.31931 11.5101C11.2706 11.5101 13.9318 13.0637 15.4375 15.6658C15.4782 15.7408 15.5335 15.8069 15.6002 15.8602C15.667 15.9135 15.7437 15.9529 15.8258 15.976C15.908 15.9992 15.994 16.0057 16.0787 15.9951C16.1634 15.9844 16.2451 15.957 16.3191 15.9143C16.393 15.8716 16.4576 15.8145 16.5091 15.7464C16.5606 15.6783 16.598 15.6006 16.619 15.5179C16.64 15.4351 16.6442 15.349 16.6314 15.2646C16.6185 15.1802 16.5889 15.0992 16.5443 15.0264ZM3.844 5.75614C3.844 4.87101 4.10647 4.00576 4.59823 3.2698C5.08998 2.53383 5.78893 1.96022 6.60668 1.6215C7.42444 1.28277 8.32428 1.19414 9.1924 1.36683C10.0605 1.53951 10.8579 1.96574 11.4838 2.59162C12.1097 3.2175 12.5359 4.01493 12.7086 4.88305C12.8813 5.75118 12.7927 6.65102 12.454 7.46877C12.1152 8.28653 11.5416 8.98547 10.8057 9.47723C10.0697 9.96898 9.20444 10.2315 8.31931 10.2315C7.13277 10.2302 5.9952 9.75827 5.15619 8.91926C4.31718 8.08026 3.84527 6.94268 3.844 5.75614Z" fill="#E6E6E6"/>
</svg>
