<svg width="17" height="16" viewBox="0 0 17 16" fill="none" xmlns="http://www.w3.org/2000/svg">
<path d="M16.3287 1.19701V5.27918C16.3287 5.45962 16.257 5.63267 16.1294 5.76026C16.0018 5.88786 15.8288 5.95954 15.6483 5.95954H11.5661C11.3857 5.95954 11.2126 5.88786 11.0851 5.76026C10.9575 5.63267 10.8858 5.45962 10.8858 5.27918C10.8858 5.09873 10.9575 4.92568 11.0851 4.79809C11.2126 4.6705 11.3857 4.59881 11.5661 4.59881H14.0061L12.7619 3.3546C11.4974 2.08437 9.7806 1.36774 7.98829 1.36199H7.95002C6.17273 1.35783 4.46523 2.05348 3.19685 3.29847C3.06692 3.41977 2.89468 3.48539 2.71698 3.48132C2.53928 3.47724 2.37023 3.40379 2.24599 3.27666C2.12176 3.14954 2.05221 2.97885 2.05222 2.8011C2.05223 2.62335 2.1218 2.45267 2.24604 2.32556C3.78326 0.823145 5.85095 -0.0124383 8.0004 0.000139975C10.1498 0.0127182 12.2076 0.872444 13.7271 2.39274L14.968 3.63695V1.19701C14.968 1.01656 15.0396 0.843511 15.1672 0.715919C15.2948 0.588326 15.4679 0.516646 15.6483 0.516646C15.8288 0.516646 16.0018 0.588326 16.1294 0.715919C16.257 0.843511 16.3287 1.01656 16.3287 1.19701ZM13.1318 12.7028C11.8509 13.954 10.1284 14.6498 8.33778 14.6393C6.5472 14.6288 4.83294 13.9128 3.5668 12.6466L2.32258 11.4024H4.76253C4.94297 11.4024 5.11603 11.3307 5.24362 11.2032C5.37121 11.0756 5.44289 10.9025 5.44289 10.7221C5.44289 10.5416 5.37121 10.3686 5.24362 10.241C5.11603 10.1134 4.94297 10.0417 4.76253 10.0417H0.680362C0.499918 10.0417 0.326866 10.1134 0.199273 10.241C0.0716809 10.3686 0 10.5416 0 10.7221V14.8042C0 14.9847 0.0716809 15.1577 0.199273 15.2853C0.326866 15.4129 0.499918 15.4846 0.680362 15.4846C0.860805 15.4846 1.03386 15.4129 1.16145 15.2853C1.28904 15.1577 1.36072 14.9847 1.36072 14.8042V12.3643L2.60493 13.6085C4.12232 15.1335 6.18312 15.9937 8.33443 16H8.3795C10.5125 16.0055 12.5618 15.1704 14.0835 13.6757C14.2077 13.5486 14.2773 13.3779 14.2773 13.2001C14.2773 13.0224 14.2078 12.8517 14.0835 12.7246C13.9593 12.5975 13.7903 12.524 13.6126 12.5199C13.4348 12.5159 13.2626 12.5815 13.1327 12.7028H13.1318Z" fill="#E6E6E6"/>
</svg>
