<svg width="17" height="16" viewBox="0 0 17 16" fill="none" xmlns="http://www.w3.org/2000/svg">
<path d="M16.3296 1.19613V5.27854C16.3296 5.459 16.258 5.63206 16.1304 5.75966C16.0028 5.88726 15.8297 5.95895 15.6492 5.95895H11.5668C11.4322 5.95905 11.3005 5.9192 11.1885 5.84445C11.0765 5.76969 10.9893 5.66339 10.9377 5.539C10.8862 5.4146 10.8727 5.27771 10.899 5.14566C10.9253 5.0136 10.9902 4.89232 11.0854 4.79716L12.6427 3.23734C11.39 2.03706 9.7237 1.3644 7.98877 1.35858H7.95049C6.17273 1.35509 4.46508 2.05172 3.19704 3.29772C3.0671 3.41902 2.89485 3.48466 2.71714 3.48058C2.53943 3.4765 2.37037 3.40304 2.24613 3.27591C2.12188 3.14878 2.05233 2.97808 2.05234 2.80032C2.05235 2.62256 2.12192 2.45187 2.24618 2.32475C3.76294 0.842817 5.79676 0.00912225 7.91729 7.44174e-05C10.0378 -0.00897341 12.0787 0.807335 13.608 2.27627L15.1696 0.71475C15.2648 0.620068 15.3859 0.555692 15.5177 0.529729C15.6495 0.503766 15.786 0.517378 15.91 0.568851C16.0341 0.620323 16.1401 0.707354 16.2148 0.81898C16.2894 0.930606 16.3294 1.06183 16.3296 1.19613ZM13.1326 12.7026C11.8723 13.9335 10.1836 14.6277 8.42195 14.6389C6.66026 14.6502 4.96288 13.9777 3.68693 12.763L5.2442 11.2057C5.34034 11.1107 5.40601 10.9892 5.43281 10.8567C5.45962 10.7242 5.44635 10.5867 5.3947 10.4618C5.34306 10.3369 5.25537 10.2302 5.14283 10.1553C5.03028 10.0804 4.89799 10.0407 4.76281 10.0414H0.680402C0.499948 10.0414 0.326885 10.113 0.199285 10.2406C0.0716853 10.3682 2.10789e-07 10.5413 2.10789e-07 10.7218V14.8042C-0.000105753 14.9388 0.0397417 15.0705 0.114498 15.1825C0.189254 15.2944 0.295558 15.3817 0.419951 15.4333C0.544344 15.4848 0.681233 15.4983 0.813289 15.472C0.945344 15.4457 1.06663 15.3808 1.16179 15.2856L2.72161 13.724C4.22887 15.1787 6.24021 15.9942 8.33492 16H8.38C10.5131 16.0055 12.5625 15.1704 14.0843 13.6755C14.2086 13.5484 14.2781 13.3777 14.2782 13.2C14.2782 13.0222 14.2086 12.8515 14.0844 12.7244C13.9601 12.5973 13.7911 12.5238 13.6134 12.5197C13.4356 12.5156 13.2634 12.5813 13.1335 12.7026H13.1326Z" fill="#E6E6E6"/>
</svg>
