<svg width="14" height="16" viewBox="0 0 14 16" fill="none" xmlns="http://www.w3.org/2000/svg">
<path d="M13.3333 1.32333V14.6767C13.3308 14.9131 13.2655 15.1445 13.1441 15.3474C13.0227 15.5502 12.8496 15.7172 12.6424 15.831C12.4352 15.9449 12.2015 16.0017 11.9652 15.9955C11.7289 15.9893 11.4984 15.9204 11.2975 15.7958L1.33333 9.56417V15.3333C1.33333 15.5101 1.2631 15.6797 1.13807 15.8047C1.01305 15.9298 0.843478 16 0.666667 16C0.489856 16 0.320287 15.9298 0.195262 15.8047C0.070238 15.6797 0 15.5101 0 15.3333V0.666667C0 0.489856 0.070238 0.320287 0.195262 0.195262C0.320287 0.070238 0.489856 0 0.666667 0C0.843478 0 1.01305 0.070238 1.13807 0.195262C1.2631 0.320287 1.33333 0.489856 1.33333 0.666667V6.43583L11.2975 0.204167C11.4982 0.0781983 11.7289 0.00815689 11.9657 0.00129445C12.2025 -0.00556798 12.4369 0.050998 12.6445 0.165136C12.8521 0.279273 13.0255 0.446834 13.1466 0.650468C13.2677 0.854102 13.3322 1.08641 13.3333 1.32333Z" fill="#E6E6E6"/>
</svg>
