<svg width="14" height="16" viewBox="0 0 14 16" fill="none" xmlns="http://www.w3.org/2000/svg">
<path d="M12.6505 0.167086C12.4423 0.0516976 12.2069 -0.00583394 11.969 0.000467232C11.731 0.00676841 11.499 0.0766724 11.2972 0.202918L1.3333 6.43609V0.667072C1.3333 0.490266 1.26306 0.320701 1.13804 0.19568C1.01302 0.0706595 0.843455 0.000423364 0.666649 0.000423364C0.489843 0.000423364 0.320278 0.0706595 0.195257 0.19568C0.0702362 0.320701 0 0.490266 0 0.667072V15.3334C0 15.5102 0.0702362 15.6797 0.195257 15.8047C0.320278 15.9298 0.489843 16 0.666649 16C0.843455 16 1.01302 15.9298 1.13804 15.8047C1.26306 15.6797 1.3333 15.5102 1.3333 15.3334V9.56434L11.2972 15.7958C11.4979 15.9218 11.7285 15.9918 11.9654 15.9987C12.2022 16.0056 12.4365 15.949 12.6442 15.8349C12.8518 15.7207 13.0251 15.5532 13.1462 15.3495C13.2673 15.1459 13.3318 14.9136 13.333 14.6767V1.32372C13.3329 1.08754 13.2696 0.855672 13.1496 0.652257C13.0296 0.448841 12.8572 0.281307 12.6505 0.167086ZM11.9997 14.6667L1.34663 8.00021L11.9997 1.33955V14.6667Z" fill="#E6E6E6"/>
</svg>
