<svg width="16" height="16" viewBox="0 0 16 16" fill="none" xmlns="http://www.w3.org/2000/svg">
<path d="M15.8154 14.951L11.9725 11.1081C13.0885 9.7696 13.6455 8.05237 13.5277 6.31365C13.4098 4.57492 12.6262 2.94857 11.3397 1.77293C10.0533 0.597292 8.36312 -0.0371183 6.62083 0.0016802C4.87855 0.0404787 3.2183 0.749498 1.98547 1.98124C0.752641 3.21298 0.0421545 4.8726 0.00181622 6.61485C-0.038522 8.3571 0.594394 10.0478 1.7689 11.3353C2.9434 12.6228 4.56906 13.4079 6.30768 13.5273C8.0463 13.6467 9.76402 13.0912 11.1035 11.9763L14.9464 15.82C15.0035 15.8771 15.0712 15.9223 15.1458 15.9532C15.2203 15.9841 15.3002 16 15.3809 16C15.4616 16 15.5415 15.9841 15.6161 15.9532C15.6906 15.9223 15.7584 15.8771 15.8154 15.82C15.8725 15.763 15.9177 15.6952 15.9486 15.6207C15.9795 15.5461 15.9954 15.4662 15.9954 15.3855C15.9954 15.3048 15.9795 15.2249 15.9486 15.1504C15.9177 15.0758 15.8725 15.0081 15.8154 14.951ZM1.25585 6.78765C1.25585 5.69448 1.58002 4.62585 2.18736 3.7169C2.79469 2.80796 3.65792 2.09953 4.66789 1.68118C5.67785 1.26284 6.78919 1.15339 7.86136 1.36666C8.93353 1.57992 9.91839 2.10634 10.6914 2.87933C11.4644 3.65232 11.9908 4.63718 12.2041 5.70935C12.4173 6.78152 12.3079 7.89286 11.8895 8.90282C11.4712 9.91279 10.7627 10.776 9.85381 11.3834C8.94486 11.9907 7.87623 12.3149 6.78306 12.3149C5.31765 12.3132 3.91273 11.7304 2.87653 10.6942C1.84033 9.65798 1.25748 8.25306 1.25585 6.78765Z" fill="#E6E6E6"/>
</svg>
