<svg width="16" height="16" viewBox="0 0 16 16" fill="none" xmlns="http://www.w3.org/2000/svg">
<path d="M6 0.666667C6 0.489856 6.07024 0.320287 6.19526 0.195262C6.32029 0.070238 6.48986 0 6.66667 0H9.33333C9.51014 0 9.67971 0.070238 9.80474 0.195262C9.92976 0.320287 10 0.489856 10 0.666667C10 0.843478 9.92976 1.01305 9.80474 1.13807C9.67971 1.2631 9.51014 1.33333 9.33333 1.33333H6.66667C6.48986 1.33333 6.32029 1.2631 6.19526 1.13807C6.07024 1.01305 6 0.843478 6 0.666667ZM9.33333 14.6667H6.66667C6.48986 14.6667 6.32029 14.7369 6.19526 14.8619C6.07024 14.987 6 15.1565 6 15.3333C6 15.5101 6.07024 15.6797 6.19526 15.8047C6.32029 15.9298 6.48986 16 6.66667 16H9.33333C9.51014 16 9.67971 15.9298 9.80474 15.8047C9.92976 15.6797 10 15.5101 10 15.3333C10 15.1565 9.92976 14.987 9.80474 14.8619C9.67971 14.7369 9.51014 14.6667 9.33333 14.6667ZM14.6667 0H12.6667C12.4899 0 12.3203 0.070238 12.1953 0.195262C12.0702 0.320287 12 0.489856 12 0.666667C12 0.843478 12.0702 1.01305 12.1953 1.13807C12.3203 1.2631 12.4899 1.33333 12.6667 1.33333H14.6667V3.33333C14.6667 3.51014 14.7369 3.67971 14.8619 3.80474C14.987 3.92976 15.1565 4 15.3333 4C15.5101 4 15.6797 3.92976 15.8047 3.80474C15.9298 3.67971 16 3.51014 16 3.33333V1.33333C16 0.979711 15.8595 0.640573 15.6095 0.390524C15.3594 0.140476 15.0203 0 14.6667 0ZM15.3333 6C15.1565 6 14.987 6.07024 14.8619 6.19526C14.7369 6.32029 14.6667 6.48986 14.6667 6.66667V9.33333C14.6667 9.51014 14.7369 9.67971 14.8619 9.80474C14.987 9.92976 15.1565 10 15.3333 10C15.5101 10 15.6797 9.92976 15.8047 9.80474C15.9298 9.67971 16 9.51014 16 9.33333V6.66667C16 6.48986 15.9298 6.32029 15.8047 6.19526C15.6797 6.07024 15.5101 6 15.3333 6ZM15.3333 12C15.1565 12 14.987 12.0702 14.8619 12.1953C14.7369 12.3203 14.6667 12.4899 14.6667 12.6667V14.6667H12.6667C12.4899 14.6667 12.3203 14.7369 12.1953 14.8619C12.0702 14.987 12 15.1565 12 15.3333C12 15.5101 12.0702 15.6797 12.1953 15.8047C12.3203 15.9298 12.4899 16 12.6667 16H14.6667C15.0203 16 15.3594 15.8595 15.6095 15.6095C15.8595 15.3594 16 15.0203 16 14.6667V12.6667C16 12.4899 15.9298 12.3203 15.8047 12.1953C15.6797 12.0702 15.5101 12 15.3333 12ZM0.666667 10C0.843478 10 1.01305 9.92976 1.13807 9.80474C1.2631 9.67971 1.33333 9.51014 1.33333 9.33333V6.66667C1.33333 6.48986 1.2631 6.32029 1.13807 6.19526C1.01305 6.07024 0.843478 6 0.666667 6C0.489856 6 0.320287 6.07024 0.195262 6.19526C0.070238 6.32029 0 6.48986 0 6.66667V9.33333C0 9.51014 0.070238 9.67971 0.195262 9.80474C0.320287 9.92976 0.489856 10 0.666667 10ZM3.33333 14.6667H1.33333V12.6667C1.33333 12.4899 1.2631 12.3203 1.13807 12.1953C1.01305 12.0702 0.843478 12 0.666667 12C0.489856 12 0.320287 12.0702 0.195262 12.1953C0.070238 12.3203 0 12.4899 0 12.6667V14.6667C0 15.0203 0.140476 15.3594 0.390524 15.6095C0.640573 15.8595 0.979711 16 1.33333 16H3.33333C3.51014 16 3.67971 15.9298 3.80474 15.8047C3.92976 15.6797 4 15.5101 4 15.3333C4 15.1565 3.92976 14.987 3.80474 14.8619C3.67971 14.7369 3.51014 14.6667 3.33333 14.6667ZM0.666667 4C0.843478 4 1.01305 3.92976 1.13807 3.80474C1.2631 3.67971 1.33333 3.51014 1.33333 3.33333V1.33333H3.33333C3.51014 1.33333 3.67971 1.2631 3.80474 1.13807C3.92976 1.01305 4 0.843478 4 0.666667C4 0.489856 3.92976 0.320287 3.80474 0.195262C3.67971 0.070238 3.51014 0 3.33333 0H1.33333C0.979711 0 0.640573 0.140476 0.390524 0.390524C0.140476 0.640573 0 0.979711 0 1.33333V3.33333C0 3.51014 0.070238 3.67971 0.195262 3.80474C0.320287 3.92976 0.489856 4 0.666667 4ZM12.6667 12V4C12.6667 3.82319 12.5964 3.65362 12.4714 3.5286C12.3464 3.40357 12.1768 3.33333 12 3.33333H4C3.82319 3.33333 3.65362 3.40357 3.5286 3.5286C3.40357 3.65362 3.33333 3.82319 3.33333 4V12C3.33333 12.1768 3.40357 12.3464 3.5286 12.4714C3.65362 12.5964 3.82319 12.6667 4 12.6667H12C12.1768 12.6667 12.3464 12.5964 12.4714 12.4714C12.5964 12.3464 12.6667 12.1768 12.6667 12Z" fill="#FFFFFF"/>
</svg>
