<svg width="20" height="16" viewBox="0 0 20 16" fill="none" xmlns="http://www.w3.org/2000/svg">
<path d="M19.2711 8.14338L12.3159 15.0986C12.2186 15.196 12.0947 15.2623 11.9597 15.2892C11.8247 15.3161 11.6847 15.3023 11.5576 15.2496C11.4304 15.1969 11.3218 15.1077 11.2454 14.9932C11.1689 14.8787 11.1282 14.7442 11.1283 14.6065V11.1489C6.16402 11.4306 2.7603 14.65 1.80483 15.6698C1.6548 15.83 1.45805 15.9389 1.24259 15.9808C1.02712 16.0227 0.803925 15.9956 0.604753 15.9034C0.405582 15.8111 0.240586 15.6584 0.133247 15.4669C0.0259088 15.2754 -0.0183036 15.055 0.00690237 14.8369C0.329451 12.0322 1.86569 9.33446 4.33305 7.24094C6.38224 5.50213 8.87308 4.39886 11.1283 4.20585V0.69607C11.1282 0.558429 11.1689 0.423851 11.2454 0.309372C11.3218 0.194893 11.4304 0.105662 11.5576 0.0529745C11.6847 0.000286899 11.8247 -0.0134877 11.9597 0.0133946C12.0947 0.0402768 12.2186 0.106607 12.3159 0.203988L19.2711 7.15921C19.3358 7.22381 19.3871 7.30052 19.4221 7.38495C19.4571 7.46939 19.4751 7.55989 19.4751 7.6513C19.4751 7.7427 19.4571 7.8332 19.4221 7.91764C19.3871 8.00207 19.3358 8.07878 19.2711 8.14338Z" fill="#E6E6E6"/>
</svg>
