<svg width="20" height="16" viewBox="0 0 20 16" fill="none" xmlns="http://www.w3.org/2000/svg">
<path d="M19.2743 7.16038L12.3179 0.204021C12.2207 0.106677 12.0968 0.0403535 11.9618 0.0134392C11.8269 -0.0134751 11.687 0.000228545 11.5599 0.0528169C11.4327 0.105405 11.324 0.194516 11.2475 0.30888C11.1711 0.423244 11.1302 0.557725 11.1301 0.695314V4.20393C8.87452 4.39697 6.38328 5.50129 4.33376 7.23951C1.86599 9.33337 0.329505 12.0316 0.0069035 14.8367C-0.0183066 15.0548 0.0259131 15.2753 0.133269 15.4668C0.240625 15.6583 0.405648 15.8111 0.604852 15.9033C0.804056 15.9956 1.02729 16.0227 1.24279 15.9808C1.45829 15.9388 1.65507 15.83 1.80512 15.6697C2.76162 14.6515 6.16502 11.4316 11.1301 11.1481V14.608C11.1302 14.7456 11.1711 14.8801 11.2475 14.9945C11.324 15.1088 11.4327 15.1979 11.5599 15.2505C11.687 15.3031 11.8269 15.3168 11.9618 15.2899C12.0968 15.263 12.2207 15.1967 12.3179 15.0993L19.2743 8.14297C19.4044 8.01256 19.4774 7.83588 19.4774 7.65167C19.4774 7.46747 19.4044 7.29079 19.2743 7.16038ZM12.5214 12.9289V10.4342C12.5214 10.2497 12.4481 10.0728 12.3176 9.94233C12.1872 9.81187 12.0103 9.73858 11.8258 9.73858C9.38408 9.73858 7.00587 10.376 4.75723 11.6342C3.612 12.2779 2.54495 13.0517 1.5773 13.9402C2.08164 11.8672 3.35291 9.89597 5.23374 8.30035C7.25282 6.58822 9.71711 5.56477 11.8258 5.56477C12.0103 5.56477 12.1872 5.49148 12.3176 5.36102C12.4481 5.23056 12.5214 5.05362 12.5214 4.86913V2.37528L17.7987 7.65167L12.5214 12.9289Z" fill="#E6E6E6"/>
</svg>
