<svg width="16" height="14" viewBox="0 0 16 14" fill="none" xmlns="http://www.w3.org/2000/svg">
<path d="M14.7692 0H1.23077C0.904349 0 0.591298 0.12967 0.360484 0.360484C0.12967 0.591298 0 0.904349 0 1.23077V12.3077C0 12.6341 0.12967 12.9472 0.360484 13.178C0.591298 13.4088 0.904349 13.5385 1.23077 13.5385H14.7692C15.0957 13.5385 15.4087 13.4088 15.6395 13.178C15.8703 12.9472 16 12.6341 16 12.3077V1.23077C16 0.904349 15.8703 0.591298 15.6395 0.360484C15.4087 0.12967 15.0957 0 14.7692 0ZM14.7692 12.3077H4.92308V1.23077H14.7692V12.3077Z" fill="#E6E6E6"/>
</svg>
