<svg width="14" height="16" viewBox="0 0 14 16" fill="none" xmlns="http://www.w3.org/2000/svg">
<path d="M13.3333 0.666667V15.3333C13.3333 15.5101 13.2631 15.6797 13.1381 15.8047C13.013 15.9298 12.8435 16 12.6667 16C12.4899 16 12.3203 15.9298 12.1953 15.8047C12.0702 15.6797 12 15.5101 12 15.3333V9.56417L2.03583 15.7958C1.83517 15.9218 1.60448 15.9918 1.36765 15.9987C1.13082 16.0056 0.896461 15.949 0.688838 15.8349C0.481214 15.7207 0.307873 15.5532 0.186762 15.3495C0.0656504 15.1459 0.00117114 14.9136 0 14.6767V1.32333C0.00117114 1.08641 0.0656504 0.854102 0.186762 0.650468C0.307873 0.446834 0.481214 0.279273 0.688838 0.165136C0.896461 0.050998 1.13082 -0.00556798 1.36765 0.00129445C1.60448 0.00815689 1.83517 0.0781983 2.03583 0.204167L12 6.43583V0.666667C12 0.489856 12.0702 0.320287 12.1953 0.195262C12.3203 0.070238 12.4899 0 12.6667 0C12.8435 0 13.013 0.070238 13.1381 0.195262C13.2631 0.320287 13.3333 0.489856 13.3333 0.666667Z" fill="#E6E6E6"/>
</svg>
