<svg width="14" height="16" viewBox="0 0 14 16" fill="none" xmlns="http://www.w3.org/2000/svg">
<path d="M12.6667 0C12.4899 0 12.3203 0.070238 12.1953 0.195262C12.0702 0.320287 12 0.489856 12 0.666667V6.43583L2.03583 0.204167C1.83517 0.0781983 1.60448 0.00815689 1.36765 0.00129445C1.13082 -0.00556798 0.896461 0.050998 0.688838 0.165136C0.481214 0.279273 0.307873 0.446834 0.186762 0.650468C0.0656504 0.854102 0.00117114 1.08641 0 1.32333V14.6767C0.00249016 14.9131 0.0677871 15.1445 0.189199 15.3474C0.310612 15.5502 0.483773 15.7172 0.69094 15.831C0.898106 15.9449 1.13183 16.0017 1.36815 15.9955C1.60448 15.9893 1.83491 15.9204 2.03583 15.7958L12 9.56417V15.3333C12 15.5101 12.0702 15.6797 12.1953 15.8047C12.3203 15.9298 12.4899 16 12.6667 16C12.8435 16 13.013 15.9298 13.1381 15.8047C13.2631 15.6797 13.3333 15.5101 13.3333 15.3333V0.666667C13.3333 0.489856 13.2631 0.320287 13.1381 0.195262C13.013 0.070238 12.8435 0 12.6667 0ZM1.33333 14.6608V1.3375L11.9867 8.00417L1.33333 14.6608Z" fill="#E6E6E6"/>
</svg>
