<svg width="16" height="16" viewBox="0 0 16 16" fill="none" xmlns="http://www.w3.org/2000/svg">
<path d="M7.0599 11.8488C7.12751 11.9164 7.18115 11.9966 7.21775 12.0848C7.25435 12.1731 7.27318 12.2678 7.27318 12.3633C7.27318 12.4589 7.25435 12.5535 7.21775 12.6418C7.18115 12.7301 7.12751 12.8103 7.0599 12.8778L4.15102 15.7867C4.08348 15.8543 4.00327 15.908 3.91499 15.9446C3.82671 15.9812 3.73208 16 3.63651 16C3.54094 16 3.44631 15.9812 3.35803 15.9446C3.26974 15.908 3.18954 15.8543 3.122 15.7867L0.213116 12.8778C0.14555 12.8103 0.0919538 12.7301 0.0553872 12.6418C0.0188206 12.5535 0 12.4589 0 12.3633C0 12.2678 0.0188206 12.1732 0.0553872 12.0849C0.0919538 11.9966 0.14555 11.9164 0.213116 11.8488C0.349573 11.7124 0.534647 11.6357 0.727625 11.6357C0.823178 11.6357 0.917796 11.6545 1.00608 11.6911C1.09435 11.7277 1.17457 11.7812 1.24213 11.8488L2.90929 13.5169V0.727793C2.90929 0.534922 2.98591 0.349951 3.12229 0.21357C3.25867 0.07719 3.44364 0.000572164 3.63651 0.000572164C3.82938 0.000572164 4.01435 0.07719 4.15073 0.21357C4.28711 0.349951 4.36373 0.534922 4.36373 0.727793V13.5169L6.03088 11.8488C6.09842 11.7812 6.17863 11.7276 6.26691 11.691C6.35519 11.6544 6.44982 11.6355 6.54539 11.6355C6.64096 11.6355 6.73559 11.6544 6.82387 11.691C6.91216 11.7276 6.99236 11.7812 7.0599 11.8488ZM15.7866 3.12217L12.8777 0.213284C12.8101 0.14567 12.7299 0.0920309 12.6416 0.055434C12.5534 0.0188371 12.4587 0 12.3632 0C12.2676 0 12.173 0.0188371 12.0847 0.055434C11.9964 0.0920309 11.9162 0.14567 11.8486 0.213284L8.93976 3.12217C8.80331 3.25862 8.72665 3.4437 8.72665 3.63668C8.72665 3.82965 8.80331 4.01473 8.93976 4.15119C9.07622 4.28764 9.2613 4.3643 9.45427 4.3643C9.64725 4.3643 9.83233 4.28764 9.96878 4.15119L11.6359 2.48312V15.2722C11.6359 15.4651 11.7126 15.6501 11.8489 15.7864C11.9853 15.9228 12.1703 15.9994 12.3632 15.9994C12.556 15.9994 12.741 15.9228 12.8774 15.7864C13.0138 15.6501 13.0904 15.4651 13.0904 15.2722V2.48312L14.7575 4.15119C14.894 4.28764 15.0791 4.3643 15.272 4.3643C15.465 4.3643 15.6501 4.28764 15.7866 4.15119C15.923 4.01473 15.9997 3.82965 15.9997 3.63668C15.9997 3.4437 15.923 3.25862 15.7866 3.12217Z" fill="#E6E6E6"/>
</svg>
