<svg width="16" height="16" viewBox="0 0 16 16" fill="none" xmlns="http://www.w3.org/2000/svg">
<path d="M7.21733 12.0852C7.27245 12.218 7.28693 12.3643 7.25894 12.5054C7.23095 12.6465 7.16174 12.7761 7.06007 12.8778L4.15119 15.7867C4.08365 15.8543 4.00344 15.908 3.91516 15.9446C3.82688 15.9812 3.73224 16 3.63668 16C3.54111 16 3.44648 15.9812 3.35819 15.9446C3.26991 15.908 3.18971 15.8543 3.12217 15.7867L0.213285 12.8778C0.111466 12.7761 0.0421124 12.6465 0.014005 12.5054C-0.0141024 12.3642 0.000299974 12.2179 0.0553887 12.085C0.110478 11.952 0.203776 11.8384 0.323472 11.7585C0.443168 11.6786 0.58388 11.636 0.727793 11.6361H2.90946V0.727793C2.90946 0.534922 2.98607 0.349951 3.12245 0.21357C3.25883 0.07719 3.44381 0.000572164 3.63668 0.000572164C3.82955 0.000572164 4.01452 0.07719 4.1509 0.21357C4.28728 0.349951 4.3639 0.534922 4.3639 0.727793V11.6361H6.54556C6.68939 11.6361 6.82998 11.6788 6.94955 11.7587C7.06913 11.8387 7.16231 11.9523 7.21733 12.0852ZM15.7867 3.12217L12.8778 0.213284C12.8103 0.14567 12.7301 0.0920309 12.6418 0.055434C12.5535 0.0188371 12.4589 0 12.3633 0C12.2678 0 12.1731 0.0188371 12.0848 0.055434C11.9966 0.0920309 11.9164 0.14567 11.8488 0.213284L8.93993 3.12217C8.83811 3.22387 8.76876 3.3535 8.74065 3.49464C8.71255 3.63579 8.72695 3.7821 8.78204 3.91505C8.83713 4.048 8.93042 4.16162 9.05012 4.24152C9.16982 4.32142 9.31053 4.36401 9.45444 4.3639H11.6361V15.2722C11.6361 15.4651 11.7127 15.6501 11.8491 15.7864C11.9855 15.9228 12.1705 15.9994 12.3633 15.9994C12.5562 15.9994 12.7412 15.9228 12.8775 15.7864C13.0139 15.6501 13.0905 15.4651 13.0905 15.2722V4.3639H15.2722C15.4161 4.36401 15.5568 4.32142 15.6765 4.24152C15.7962 4.16162 15.8895 4.048 15.9446 3.91505C15.9997 3.7821 16.0141 3.63579 15.986 3.49464C15.9579 3.3535 15.8885 3.22387 15.7867 3.12217Z" fill="#E6E6E6"/>
</svg>
