<svg width="17" height="16" viewBox="0 0 17 16" fill="none" xmlns="http://www.w3.org/2000/svg">
<path d="M16.5315 6.01922C16.4574 5.79146 16.3176 5.59072 16.1296 5.44229C15.9416 5.29386 15.7139 5.20439 15.4752 5.18514L11.1048 4.83254L9.41735 0.751757C9.32609 0.529397 9.17078 0.339196 8.97114 0.205335C8.77151 0.071474 8.53658 0 8.29623 0C8.05587 0 7.82094 0.071474 7.62131 0.205335C7.42168 0.339196 7.26636 0.529397 7.1751 0.751757L5.48916 4.8318L1.11652 5.18514C0.877389 5.20536 0.649544 5.2957 0.461531 5.44485C0.273518 5.59399 0.133699 5.7953 0.0595907 6.02356C-0.0145173 6.25181 -0.019618 6.49686 0.0449277 6.728C0.109473 6.95915 0.240795 7.1661 0.422439 7.32294L3.75581 10.1993L2.74024 14.5001C2.68344 14.7337 2.69735 14.979 2.7802 15.2047C2.86304 15.4304 3.01109 15.6265 3.20555 15.7679C3.40001 15.9093 3.63211 15.9898 3.87238 15.9991C4.11266 16.0084 4.35028 15.9461 4.55508 15.8201L8.29586 13.5178L12.0389 15.8201C12.2437 15.9446 12.4809 16.0057 12.7204 15.9957C12.9599 15.9857 13.1911 15.9051 13.3849 15.764C13.5787 15.6228 13.7264 15.4275 13.8095 15.2026C13.8925 14.9777 13.9071 14.7332 13.8515 14.5001L12.8322 10.1985L16.1656 7.3222C16.3487 7.16562 16.4812 6.95822 16.5464 6.72626C16.6115 6.49431 16.6063 6.24824 16.5315 6.01922ZM15.3952 6.42441L11.7877 9.53555C11.7055 9.60646 11.6443 9.69862 11.6108 9.80195C11.5774 9.90528 11.573 10.0158 11.5981 10.1215L12.7003 14.7734C12.7032 14.7798 12.7035 14.7871 12.7011 14.7937C12.6988 14.8003 12.694 14.8058 12.6878 14.8089C12.6744 14.8193 12.6707 14.8171 12.6596 14.8089L8.60623 12.3163C8.51288 12.2589 8.40544 12.2285 8.29586 12.2285C8.18627 12.2285 8.07883 12.2589 7.98548 12.3163L3.93211 14.8104C3.92099 14.8171 3.91803 14.8193 3.90396 14.8104C3.89771 14.8072 3.89291 14.8018 3.89057 14.7952C3.88823 14.7885 3.88851 14.7813 3.89136 14.7749L4.9936 10.123C5.01872 10.0173 5.01432 9.90677 4.98087 9.80343C4.94743 9.7001 4.88623 9.60794 4.80397 9.53703L1.19652 6.42589C1.18763 6.41848 1.17948 6.41182 1.18689 6.38885C1.1943 6.36589 1.20022 6.36885 1.21134 6.36737L5.9462 5.98515C6.0548 5.97583 6.15873 5.93674 6.24655 5.87218C6.33438 5.80762 6.40269 5.72009 6.44398 5.61922L8.26771 1.20361C8.27363 1.19102 8.27586 1.18509 8.29363 1.18509C8.31141 1.18509 8.31363 1.19102 8.31956 1.20361L10.1477 5.61922C10.1894 5.72013 10.2582 5.80757 10.3464 5.87188C10.4346 5.93619 10.5389 5.97487 10.6477 5.98366L15.3826 6.36589C15.3937 6.36589 15.4004 6.36589 15.407 6.38737C15.4137 6.40885 15.407 6.417 15.3952 6.42441Z" fill="#E6E6E6"/>
</svg>
