<svg width="16" height="14" viewBox="0 0 16 14" fill="none" xmlns="http://www.w3.org/2000/svg">
<path d="M16 12.9231C16 13.0863 15.9352 13.2428 15.8198 13.3582C15.7044 13.4736 15.5478 13.5385 15.3846 13.5385H0.615385C0.452174 13.5385 0.295649 13.4736 0.180242 13.3582C0.064835 13.2428 0 13.0863 0 12.9231V0.615385C0 0.452174 0.064835 0.295649 0.180242 0.180242C0.295649 0.0648351 0.452174 0 0.615385 0C0.778595 0 0.93512 0.0648351 1.05053 0.180242C1.16593 0.295649 1.23077 0.452174 1.23077 0.615385V8.97615L5.10308 5.10308C5.16023 5.04586 5.2281 5.00047 5.30281 4.9695C5.37751 4.93853 5.45759 4.92259 5.53846 4.92259C5.61933 4.92259 5.69941 4.93853 5.77412 4.9695C5.84882 5.00047 5.91669 5.04586 5.97385 5.10308L8 7.13L12.0531 3.07692H10.4615C10.2983 3.07692 10.1418 3.01209 10.0264 2.89668C9.91099 2.78127 9.84615 2.62475 9.84615 2.46154C9.84615 2.29833 9.91099 2.1418 10.0264 2.0264C10.1418 1.91099 10.2983 1.84615 10.4615 1.84615H13.5385C13.7017 1.84615 13.8582 1.91099 13.9736 2.0264C14.089 2.1418 14.1538 2.29833 14.1538 2.46154V5.53846C14.1538 5.70167 14.089 5.8582 13.9736 5.9736C13.8582 6.08901 13.7017 6.15385 13.5385 6.15385C13.3753 6.15385 13.2187 6.08901 13.1033 5.9736C12.9879 5.8582 12.9231 5.70167 12.9231 5.53846V3.94692L8.43538 8.43538C8.37823 8.4926 8.31036 8.53799 8.23566 8.56896C8.16095 8.59993 8.08087 8.61587 8 8.61587C7.91913 8.61587 7.83905 8.59993 7.76434 8.56896C7.68964 8.53799 7.62177 8.4926 7.56462 8.43538L5.53846 6.40846L1.23077 10.7162V12.3077H15.3846C15.5478 12.3077 15.7044 12.3725 15.8198 12.4879C15.9352 12.6033 16 12.7599 16 12.9231Z" fill="#E6E6E6"/>
</svg>
