<svg width="16" height="16" viewBox="0 0 16 16" fill="none" xmlns="http://www.w3.org/2000/svg">
<path d="M14.5455 0H1.45455C1.06878 0 0.698807 0.153246 0.426026 0.426026C0.153246 0.698807 0 1.06878 0 1.45455V14.5455C0 14.9312 0.153246 15.3012 0.426026 15.574C0.698807 15.8468 1.06878 16 1.45455 16H14.5455C14.9312 16 15.3012 15.8468 15.574 15.574C15.8468 15.3012 16 14.9312 16 14.5455V1.45455C16 1.06878 15.8468 0.698807 15.574 0.426026C15.3012 0.153246 14.9312 0 14.5455 0ZM14.5455 14.5455H1.45455V1.45455H14.5455V14.5455Z" fill="#E6E6E6"/>
</svg>
