<svg width="16" height="15" viewBox="0 0 16 15" fill="none" xmlns="http://www.w3.org/2000/svg">
<path d="M15.9866 8.35684L15.1294 1.49994C15.0772 1.08559 14.8756 0.704544 14.5623 0.428361C14.249 0.152178 13.8457 -0.000143251 13.4281 1.01091e-07H1.14282C0.839722 1.01091e-07 0.549042 0.120403 0.334723 0.334723C0.120403 0.549042 0 0.839722 0 1.14282V7.4283C0 7.73139 0.120403 8.02207 0.334723 8.23639C0.549042 8.45071 0.839722 8.57111 1.14282 8.57111H4.21842L6.91689 13.9695C6.96439 14.0644 7.0374 14.1442 7.12773 14.2C7.21806 14.2558 7.32214 14.2853 7.4283 14.2852C8.18603 14.2852 8.91273 13.9842 9.44853 13.4484C9.98433 12.9126 10.2853 12.1859 10.2853 11.4282V10.2853H14.2852C14.5284 10.2854 14.7689 10.2337 14.9907 10.1337C15.2124 10.0337 15.4103 9.8876 15.5712 9.70519C15.7322 9.52277 15.8524 9.3082 15.924 9.07572C15.9957 8.84324 16.017 8.59818 15.9866 8.35684ZM3.99985 7.4283H1.14282V1.14282H3.99985V7.4283ZM14.7137 8.94896C14.6605 9.01021 14.5946 9.05923 14.5207 9.09264C14.4467 9.12605 14.3664 9.14307 14.2852 9.14252H9.71393C9.56238 9.14252 9.41704 9.20272 9.30988 9.30988C9.20272 9.41704 9.14252 9.56238 9.14252 9.71393V11.4282C9.14263 11.8245 9.00541 12.2086 8.7542 12.5152C8.503 12.8217 8.15334 13.0317 7.76471 13.1095L5.14267 7.86471V1.14282H13.4281C13.5673 1.14277 13.7017 1.19354 13.8062 1.2856C13.9106 1.37766 13.9778 1.50468 13.9952 1.6428L14.8523 8.49969C14.863 8.58014 14.8562 8.66195 14.8323 8.7395C14.8083 8.81706 14.7679 8.88851 14.7137 8.94896Z" fill="#E6E6E6"/>
</svg>
