<svg width="16" height="15" viewBox="0 0 16 15" fill="none" xmlns="http://www.w3.org/2000/svg">
<path d="M15.5709 4.57984C15.41 4.39751 15.2121 4.25149 14.9905 4.1515C14.7688 4.0515 14.5284 3.99981 14.2852 3.99986H10.2854V2.85704C10.2854 2.09931 9.98435 1.37261 9.44855 0.836809C8.91275 0.301009 8.18605 1.46497e-07 7.42831 1.46497e-07C7.32216 -7.58548e-05 7.21808 0.0294212 7.12775 0.0851839C7.03742 0.140947 6.96441 0.22077 6.9169 0.315703L4.21842 5.71409H1.14282C0.839723 5.71409 0.549043 5.83449 0.334723 6.04881C0.120404 6.26313 0 6.55381 0 6.8569V13.1424C0 13.4455 0.120404 13.7362 0.334723 13.9505C0.549043 14.1648 0.839723 14.2852 1.14282 14.2852H13.4281C13.8457 14.2854 14.2491 14.133 14.5623 13.8569C14.8756 13.5807 15.0773 13.1996 15.1295 12.7853L15.9866 5.92836C16.017 5.68696 15.9956 5.44185 15.9239 5.20934C15.8523 4.97683 15.7319 4.76224 15.5709 4.57984ZM1.14282 6.8569H3.99986V13.1424H1.14282V6.8569Z" fill="#E6E6E6"/>
</svg>
