<svg width="14" height="16" viewBox="0 0 14 16" fill="none" xmlns="http://www.w3.org/2000/svg">
<path d="M6.85714 2.28571C5.50093 2.28571 4.17517 2.68788 3.04752 3.44135C1.91987 4.19482 1.04097 5.26576 0.521972 6.51874C0.0029711 7.77172 -0.132823 9.15046 0.131761 10.4806C0.396345 11.8108 1.04942 13.0326 2.00841 13.9916C2.9674 14.9506 4.18923 15.6037 5.51938 15.8682C6.84954 16.1328 8.22828 15.997 9.48126 15.478C10.7342 14.959 11.8052 14.0801 12.5586 12.9525C13.3121 11.8248 13.7143 10.4991 13.7143 9.14286C13.7122 7.32487 12.9891 5.58193 11.7036 4.29642C10.4181 3.01091 8.67513 2.28779 6.85714 2.28571ZM6.85714 14.8571C5.72697 14.8571 4.62217 14.522 3.68246 13.8941C2.74275 13.2662 2.01033 12.3738 1.57783 11.3296C1.14533 10.2855 1.03217 9.13652 1.25266 8.02805C1.47315 6.91959 2.01738 5.9014 2.81654 5.10225C3.61569 4.30309 4.63388 3.75886 5.74234 3.53837C6.85081 3.31788 7.99976 3.43104 9.04391 3.86354C10.0881 4.29605 10.9805 5.02846 11.6084 5.96817C12.2363 6.90788 12.5714 8.01268 12.5714 9.14286C12.5697 10.6579 11.9671 12.1103 10.8959 13.1816C9.82461 14.2529 8.37215 14.8554 6.85714 14.8571ZM10.1186 5.88143C10.1717 5.9345 10.2139 5.99752 10.2426 6.06689C10.2714 6.13626 10.2862 6.21062 10.2862 6.28571C10.2862 6.36081 10.2714 6.43517 10.2426 6.50454C10.2139 6.57391 10.1717 6.63693 10.1186 6.69L7.26143 9.54714C7.20834 9.60023 7.14531 9.64235 7.07594 9.67108C7.00658 9.69981 6.93223 9.7146 6.85714 9.7146C6.78206 9.7146 6.70771 9.69981 6.63835 9.67108C6.56898 9.64235 6.50595 9.60023 6.45286 9.54714C6.39977 9.49405 6.35765 9.43102 6.32892 9.36165C6.30019 9.29229 6.2854 9.21794 6.2854 9.14286C6.2854 9.06777 6.30019 8.99343 6.32892 8.92406C6.35765 8.85469 6.39977 8.79166 6.45286 8.73857L9.31 5.88143C9.36307 5.8283 9.42609 5.78615 9.49546 5.75739C9.56483 5.72864 9.63919 5.71384 9.71429 5.71384C9.78938 5.71384 9.86374 5.72864 9.93311 5.75739C10.0025 5.78615 10.0655 5.8283 10.1186 5.88143ZM4.57143 0.571428C4.57143 0.419876 4.63164 0.274531 4.7388 0.167368C4.84596 0.0602039 4.99131 0 5.14286 0H8.57143C8.72298 0 8.86833 0.0602039 8.97549 0.167368C9.08266 0.274531 9.14286 0.419876 9.14286 0.571428C9.14286 0.722981 9.08266 0.868326 8.97549 0.975489C8.86833 1.08265 8.72298 1.14286 8.57143 1.14286H5.14286C4.99131 1.14286 4.84596 1.08265 4.7388 0.975489C4.63164 0.868326 4.57143 0.722981 4.57143 0.571428Z" fill="#E6E6E6"/>
</svg>
