<svg width="16" height="11" viewBox="0 0 16 11" fill="none" xmlns="http://www.w3.org/2000/svg">
<path d="M16 5.14307V9.71441C16 9.86596 15.9398 10.0113 15.8326 10.1185C15.7255 10.2256 15.5801 10.2858 15.4286 10.2858H10.8572C10.7442 10.2859 10.6336 10.2525 10.5395 10.1897C10.4455 10.1269 10.3722 10.0376 10.3289 9.93314C10.2856 9.82868 10.2743 9.71371 10.2964 9.60281C10.3185 9.49191 10.373 9.39005 10.453 9.31013L12.3351 7.42874L8.57158 3.66524L6.11877 6.11877C6.0657 6.1719 6.00268 6.21404 5.93331 6.2428C5.86394 6.27156 5.78958 6.28636 5.71449 6.28636C5.6394 6.28636 5.56504 6.27156 5.49567 6.2428C5.4263 6.21404 5.36328 6.1719 5.31021 6.11877L0.167457 0.976013C0.0602362 0.868792 -1.12976e-09 0.723368 0 0.571735C1.12976e-09 0.420101 0.0602362 0.274678 0.167457 0.167457C0.274678 0.0602361 0.420101 1.12976e-09 0.571735 0C0.723369 -1.12976e-09 0.868792 0.0602361 0.976013 0.167457L5.71449 4.90665L8.1673 2.45313C8.22037 2.4 8.28339 2.35785 8.35276 2.32909C8.42213 2.30034 8.49648 2.28554 8.57158 2.28554C8.64667 2.28554 8.72103 2.30034 8.79039 2.32909C8.85976 2.35785 8.92278 2.4 8.97585 2.45313L13.1429 6.6209L15.0243 4.73879C15.1042 4.65879 15.2061 4.6043 15.317 4.58221C15.4279 4.56012 15.5428 4.57144 15.6473 4.61473C15.7518 4.65801 15.8411 4.73132 15.9038 4.82538C15.9666 4.91943 16.0001 5.02999 16 5.14307Z" fill="#E6E6E6"/>
</svg>
