<svg width="16" height="11" viewBox="0 0 16 11" fill="none" xmlns="http://www.w3.org/2000/svg">
<path d="M16 0.571417V5.14276C16.0001 5.25584 15.9666 5.3664 15.9038 5.46045C15.8411 5.5545 15.7518 5.62781 15.6473 5.6711C15.5428 5.71439 15.4279 5.7257 15.317 5.70362C15.2061 5.68153 15.1042 5.62704 15.0243 5.54703L13.1429 3.66493L8.97585 7.8327C8.92278 7.88583 8.85976 7.92798 8.79039 7.95673C8.72103 7.98549 8.64667 8.00029 8.57158 8.00029C8.49648 8.00029 8.42213 7.98549 8.35276 7.95673C8.28339 7.92798 8.22037 7.88583 8.1673 7.8327L5.71449 5.37918L0.976013 10.1184C0.868792 10.2256 0.723369 10.2858 0.571735 10.2858C0.420101 10.2858 0.274678 10.2256 0.167457 10.1184C0.0602362 10.0111 0 9.86573 0 9.71409C0 9.56246 0.0602362 9.41704 0.167457 9.30981L5.31021 4.16706C5.36328 4.11393 5.4263 4.07178 5.49567 4.04303C5.56504 4.01427 5.6394 3.99947 5.71449 3.99947C5.78958 3.99947 5.86394 4.01427 5.93331 4.04303C6.00268 4.07178 6.0657 4.11393 6.11877 4.16706L8.57158 6.62058L12.3351 2.85709L10.453 0.975695C10.373 0.895779 10.3185 0.793922 10.2964 0.683019C10.2743 0.572116 10.2856 0.457153 10.3289 0.352685C10.3722 0.248216 10.4455 0.15894 10.5395 0.0961581C10.6336 0.033376 10.7442 -8.8814e-05 10.8572 1.77025e-07H15.4286C15.5801 1.77025e-07 15.7255 0.060203 15.8326 0.167365C15.9398 0.274526 16 0.419868 16 0.571417Z" fill="#E6E6E6"/>
</svg>
