<svg width="16" height="11" viewBox="0 0 16 11" fill="none" xmlns="http://www.w3.org/2000/svg">
<path d="M16 5.14307V9.71441C16 9.86596 15.9398 10.0113 15.8326 10.1185C15.7255 10.2256 15.5801 10.2858 15.4286 10.2858H10.8572C10.7057 10.2858 10.5604 10.2256 10.4532 10.1185C10.346 10.0113 10.2858 9.86596 10.2858 9.71441C10.2858 9.56286 10.346 9.41752 10.4532 9.31036C10.5604 9.2032 10.7057 9.14299 10.8572 9.14299H14.0493L8.57158 3.66524L6.11877 6.11877C6.0657 6.1719 6.00268 6.21404 5.93331 6.2428C5.86394 6.27156 5.78958 6.28636 5.71449 6.28636C5.6394 6.28636 5.56504 6.27156 5.49567 6.2428C5.4263 6.21404 5.36328 6.1719 5.31021 6.11877L0.167457 0.976013C0.0602362 0.868792 -1.12976e-09 0.723368 0 0.571735C1.12976e-09 0.420101 0.0602362 0.274678 0.167457 0.167457C0.274678 0.0602361 0.420101 1.12976e-09 0.571735 0C0.723369 -1.12976e-09 0.868792 0.0602361 0.976013 0.167457L5.71449 4.90665L8.1673 2.45313C8.22037 2.4 8.28339 2.35785 8.35276 2.32909C8.42213 2.30034 8.49648 2.28554 8.57158 2.28554C8.64667 2.28554 8.72103 2.30034 8.79039 2.32909C8.85976 2.35785 8.92278 2.4 8.97585 2.45313L14.8572 8.33515V5.14307C14.8572 4.99152 14.9174 4.84618 15.0245 4.73902C15.1317 4.63186 15.277 4.57166 15.4286 4.57166C15.5801 4.57166 15.7255 4.63186 15.8326 4.73902C15.9398 4.84618 16 4.99152 16 5.14307Z" fill="#E6E6E6"/>
</svg>
