<svg width="16" height="11" viewBox="0 0 16 11" fill="none" xmlns="http://www.w3.org/2000/svg">
<path d="M16 0.571417V5.14276C16 5.2943 15.9398 5.43965 15.8326 5.54681C15.7255 5.65397 15.5801 5.71417 15.4286 5.71417C15.277 5.71417 15.1317 5.65397 15.0245 5.54681C14.9174 5.43965 14.8572 5.2943 14.8572 5.14276V1.95068L8.97585 7.8327C8.92278 7.88583 8.85976 7.92798 8.79039 7.95673C8.72103 7.98549 8.64667 8.00029 8.57158 8.00029C8.49648 8.00029 8.42213 7.98549 8.35276 7.95673C8.28339 7.92798 8.22037 7.88583 8.1673 7.8327L5.71449 5.37918L0.976013 10.1184C0.868792 10.2256 0.723369 10.2858 0.571735 10.2858C0.420101 10.2858 0.274678 10.2256 0.167457 10.1184C0.0602362 10.0111 0 9.86573 0 9.71409C0 9.56246 0.0602362 9.41704 0.167457 9.30981L5.31021 4.16706C5.36328 4.11393 5.4263 4.07178 5.49567 4.04303C5.56504 4.01427 5.6394 3.99947 5.71449 3.99947C5.78958 3.99947 5.86394 4.01427 5.93331 4.04303C6.00268 4.07178 6.0657 4.11393 6.11877 4.16706L8.57158 6.62058L14.0493 1.14283H10.8572C10.7057 1.14283 10.5604 1.08263 10.4532 0.97547C10.346 0.868309 10.2858 0.722966 10.2858 0.571417C10.2858 0.419868 10.346 0.274526 10.4532 0.167364C10.5604 0.0602028 10.7057 0 10.8572 0H15.4286C15.5801 0 15.7255 0.0602028 15.8326 0.167364C15.9398 0.274526 16 0.419868 16 0.571417Z" fill="#E6E6E6"/>
</svg>
