<svg width="16" height="16" viewBox="0 0 16 16" fill="none" xmlns="http://www.w3.org/2000/svg">
<path d="M8.39296 15.1802C8.13899 14.9184 7.91568 14.6285 7.72736 14.3162C7.30752 14.3716 6.86507 14.3996 6.4 14.4C3.12896 14.4 0.96 13.049 0.96 11.3376V10.88L0.96448 10.7872C0.987539 10.5498 1.09817 10.3294 1.27481 10.1691C1.45145 10.0088 1.68146 9.92 1.92 9.92H7.43936C7.58843 9.57937 7.77657 9.25721 8 8.96H1.92C1.41078 8.96 0.922425 9.16228 0.562355 9.52235C0.202285 9.88242 0 10.3708 0 10.88V11.3376C0 13.7171 2.6944 15.36 6.4 15.36C7.06843 15.3614 7.73557 15.3012 8.39296 15.1802ZM10.24 3.84C10.24 2.82157 9.83543 1.84485 9.11529 1.12471C8.39515 0.40457 7.41843 0 6.4 0C5.38157 0 4.40485 0.40457 3.68471 1.12471C2.96457 1.84485 2.56 2.82157 2.56 3.84C2.56 4.85843 2.96457 5.83515 3.68471 6.55529C4.40485 7.27543 5.38157 7.68 6.4 7.68C7.41843 7.68 8.39515 7.27543 9.11529 6.55529C9.83543 5.83515 10.24 4.85843 10.24 3.84ZM3.52 3.84C3.52 3.07618 3.82343 2.34364 4.36353 1.80353C4.90364 1.26343 5.63618 0.96 6.4 0.96C7.16382 0.96 7.89636 1.26343 8.43647 1.80353C8.97657 2.34364 9.28 3.07618 9.28 3.84C9.28 4.60382 8.97657 5.33636 8.43647 5.87647C7.89636 6.41657 7.16382 6.72 6.4 6.72C5.63618 6.72 4.90364 6.41657 4.36353 5.87647C3.82343 5.33636 3.52 4.60382 3.52 3.84ZM11.84 16C12.9433 16 14.0014 15.5617 14.7816 14.7816C15.5617 14.0014 16 12.9433 16 11.84C16 10.7367 15.5617 9.67859 14.7816 8.89844C14.0014 8.11828 12.9433 7.68 11.84 7.68C10.7367 7.68 9.67859 8.11828 8.89844 8.89844C8.11828 9.67859 7.68 10.7367 7.68 11.84C7.68 12.9433 8.11828 14.0014 8.89844 14.7816C9.67859 15.5617 10.7367 16 11.84 16ZM11.84 8.96C11.9249 8.96 12.0063 8.99371 12.0663 9.05373C12.1263 9.11374 12.16 9.19513 12.16 9.28V11.52H14.4C14.4849 11.52 14.5663 11.5537 14.6263 11.6137C14.6863 11.6737 14.72 11.7551 14.72 11.84C14.72 11.9249 14.6863 12.0063 14.6263 12.0663C14.5663 12.1263 14.4849 12.16 14.4 12.16H12.16V14.4C12.16 14.4849 12.1263 14.5663 12.0663 14.6263C12.0063 14.6863 11.9249 14.72 11.84 14.72C11.7551 14.72 11.6737 14.6863 11.6137 14.6263C11.5537 14.5663 11.52 14.4849 11.52 14.4V12.16H9.28C9.19513 12.16 9.11374 12.1263 9.05373 12.0663C8.99371 12.0063 8.96 11.9249 8.96 11.84C8.96 11.7551 8.99371 11.6737 9.05373 11.6137C9.11374 11.5537 9.19513 11.52 9.28 11.52H11.52V9.28C11.52 9.19513 11.5537 9.11374 11.6137 9.05373C11.6737 8.99371 11.7551 8.96 11.84 8.96Z" fill="#E6E6E6"/>
</svg>
