<svg width="16" height="10" viewBox="0 0 16 10" fill="none" xmlns="http://www.w3.org/2000/svg">
<path d="M15.718 1.13333C15.633 1.08775 15.5371 1.06609 15.4407 1.07067C15.3444 1.07525 15.251 1.10589 15.1707 1.15933L12.8 2.73667V1.06667C12.8 0.783769 12.6876 0.512458 12.4876 0.312419C12.2875 0.112381 12.0162 0 11.7333 0H1.06667C0.783769 0 0.512458 0.112381 0.312419 0.312419C0.112381 0.512458 0 0.783769 0 1.06667V8.53333C0 8.81623 0.112381 9.08754 0.312419 9.28758C0.512458 9.48762 0.783769 9.6 1.06667 9.6H11.7333C12.0162 9.6 12.2875 9.48762 12.4876 9.28758C12.6876 9.08754 12.8 8.81623 12.8 8.53333V6.86667L15.1707 8.44733C15.2587 8.50451 15.3617 8.53443 15.4667 8.53333C15.6081 8.53333 15.7438 8.47714 15.8438 8.37712C15.9438 8.27711 16 8.14145 16 8V1.6C15.9993 1.50404 15.9728 1.41004 15.9231 1.32791C15.8735 1.24577 15.8026 1.17855 15.718 1.13333ZM11.7333 8.53333H1.06667V1.06667H11.7333V8.53333ZM14.9333 7.00333L12.8 5.58133V4.01867L14.9333 2.6V7.00333Z" fill="#E6E6E6"/>
</svg>
