<svg width="16" height="10" viewBox="0 0 16 10" fill="none" xmlns="http://www.w3.org/2000/svg">
<path d="M11.7333 1.06666V8.53329C11.7333 8.81619 11.6209 9.0875 11.4209 9.28753C11.2208 9.48757 10.9495 9.59995 10.6666 9.59995H1.06666C0.783765 9.59995 0.512456 9.48757 0.312418 9.28753C0.11238 9.0875 0 8.81619 0 8.53329V1.06666C0 0.783765 0.11238 0.512456 0.312418 0.312418C0.512456 0.11238 0.783765 0 1.06666 0H10.6666C10.9495 0 11.2208 0.11238 11.4209 0.312418C11.6209 0.512456 11.7333 0.783765 11.7333 1.06666ZM15.5999 1.08333C15.5247 1.06492 15.4464 1.06264 15.3702 1.07666C15.294 1.09068 15.2217 1.12067 15.1579 1.16466L12.9186 2.65732C12.8821 2.68169 12.8521 2.71471 12.8314 2.75344C12.8107 2.79216 12.7999 2.83541 12.7999 2.87932V6.72063C12.7999 6.76455 12.8107 6.80779 12.8314 6.84652C12.8521 6.88524 12.8821 6.91826 12.9186 6.94263L15.1706 8.44396C15.2549 8.50019 15.3534 8.53124 15.4548 8.53348C15.556 8.53573 15.6559 8.50907 15.7426 8.45662C15.8228 8.40563 15.8886 8.33491 15.9336 8.25121C15.9787 8.16752 16.0015 8.07366 15.9999 7.97863V1.59999C16 1.48171 15.9607 1.36676 15.8883 1.27323C15.8159 1.1797 15.7145 1.1129 15.5999 1.08333Z" fill="#E6E6E6"/>
</svg>
