<svg width="18" height="16" viewBox="0 0 18 16" fill="none" xmlns="http://www.w3.org/2000/svg">
<path d="M17.6647 13.1271L10.6688 0.977643C10.4939 0.679986 10.2444 0.433184 9.94477 0.261698C9.64517 0.0902134 9.30597 0 8.96077 0C8.61557 0 8.27637 0.0902134 7.97677 0.261698C7.67718 0.433184 7.42761 0.679986 7.25279 0.977643L0.256856 13.1271C0.0886461 13.415 0 13.7425 0 14.0759C0 14.4094 0.0886461 14.7368 0.256856 15.0247C0.429438 15.3242 0.678588 15.5723 0.978738 15.7437C1.27889 15.9151 1.61923 16.0035 1.96484 15.9999H15.9567C16.302 16.0032 16.6421 15.9146 16.9419 15.7433C17.2417 15.5719 17.4906 15.3239 17.6631 15.0247C17.8315 14.7369 17.9205 14.4096 17.9207 14.0761C17.921 13.7427 17.8327 13.4152 17.6647 13.1271ZM16.5551 14.3839C16.4941 14.4879 16.4065 14.5739 16.3014 14.6329C16.1962 14.692 16.0773 14.722 15.9567 14.7199H1.96484C1.84426 14.722 1.7253 14.692 1.62015 14.6329C1.51499 14.5739 1.42743 14.4879 1.36644 14.3839C1.3112 14.2904 1.28206 14.1837 1.28206 14.0751C1.28206 13.9665 1.3112 13.8598 1.36644 13.7663L8.36238 1.61684C8.4246 1.5133 8.51255 1.42762 8.61769 1.36814C8.72283 1.30866 8.84157 1.2774 8.96237 1.2774C9.08317 1.2774 9.20191 1.30866 9.30705 1.36814C9.41219 1.42762 9.50014 1.5133 9.56236 1.61684L16.5583 13.7663C16.6131 13.8601 16.6416 13.9669 16.6411 14.0756C16.6405 14.1842 16.6108 14.2907 16.5551 14.3839ZM8.32078 9.59996V6.39999C8.32078 6.23025 8.3882 6.06747 8.50823 5.94745C8.62825 5.82742 8.79103 5.76 8.96077 5.76C9.13051 5.76 9.29329 5.82742 9.41331 5.94745C9.53334 6.06747 9.60076 6.23025 9.60076 6.39999V9.59996C9.60076 9.7697 9.53334 9.93248 9.41331 10.0525C9.29329 10.1725 9.13051 10.24 8.96077 10.24C8.79103 10.24 8.62825 10.1725 8.50823 10.0525C8.3882 9.93248 8.32078 9.7697 8.32078 9.59996ZM9.92076 12.4799C9.92076 12.6698 9.86446 12.8554 9.75897 13.0133C9.65349 13.1711 9.50356 13.2942 9.32814 13.3668C9.15273 13.4395 8.95971 13.4585 8.77349 13.4215C8.58727 13.3844 8.41621 13.293 8.28195 13.1587C8.1477 13.0245 8.05627 12.8534 8.01923 12.6672C7.98218 12.481 8.00119 12.288 8.07385 12.1126C8.14651 11.9371 8.26956 11.7872 8.42743 11.6817C8.5853 11.5762 8.7709 11.5199 8.96077 11.5199C9.21538 11.5199 9.45955 11.6211 9.63959 11.8011C9.81962 11.9811 9.92076 12.2253 9.92076 12.4799Z" fill="#E6E6E6"/>
</svg>
